<svg xmlns="http://www.w3.org/2000/svg" width="85.991" height="86" viewBox="0 0 85.991 86"><defs><clipPath id="a"><path fill="none" d="M0 0h85.991v86H0z"/></clipPath></defs><g clip-path="url(#a)"><path fill="#fe816e" d="m8.156 74.129-2.325 1.5 3.8 5.722 8.613-10.749a8.264 8.264 0 1 1-1.825-2.147l-6.564 8.189Z"/><path fill="#e5e8ec" d="M18.085 14.715a5.526 5.526 0 1 0-8.36 0 11.5 11.5 0 0 0-5.459 4.638 11.073 11.073 0 1 1 19.261 0 11.64 11.64 0 0 0-5.442-4.641"/><path fill="#75b0f1" d="M21.672 21.784a11.055 11.055 0 0 1-15.549 0 8.464 8.464 0 0 1 15.549 0"/><path fill="#efcfb3" d="M13.202 8.447a2.767 2.767 0 1 1-1.947 3.5 2.756 2.756 0 0 1 1.947-3.5"/><path fill="#2e2e2e" d="M27.662 15.583c-.168-.006-.136-.557.179-.6.168.007.143.555-.179.6"/><path fill="#fe816e" d="m71.892 74.129-2.325 1.5 3.8 5.722 8.612-10.747a8.264 8.264 0 1 1-1.825-2.147l-6.564 8.189Z"/><path fill="#e5e8ec" d="M76.279 14.715a5.526 5.526 0 1 0-8.36 0 11.5 11.5 0 0 0-5.459 4.64 11.073 11.073 0 1 1 19.261 0 11.64 11.64 0 0 0-5.442-4.641"/><path fill="#b3dc7e" d="M79.866 21.783a11.055 11.055 0 0 1-15.549 0 8.464 8.464 0 0 1 15.549 0"/><path fill="#efcfb3" d="M71.396 8.447a2.767 2.767 0 1 1-1.947 3.5 2.756 2.756 0 0 1 1.947-3.5"/><path d="M58.3 67.662a61.2 61.2 0 0 1 2.643 13.473L61 85.947H27.76l.059-4.982a61.3 61.3 0 0 1 2.635-13.24l.076-3.93a7.96 7.96 0 0 1-8.3-7.122l-.03-3.982H11.125v11.076a10.4 10.4 0 0 1 7 2.467l1.63-2.007L21.938 66l-1.822 2.344a11.11 11.11 0 0 1-16.4 14.805 10.97 10.97 0 0 1-3.68-9.181 11.1 11.1 0 0 1 8.31-9.857l.075-12.091c.006-.888 1.206-1.913 2.024-2.053l11.728-.056.4-2.76h-12.13c-.787-.355-2.028-1.081-2.032-2.118l-.053-18.415A13.888 13.888 0 1 1 27.8 14.632 16.756 16.756 0 0 1 43.332.036c6.66-.4 12.413 2.937 15.8 8.823a13.9 13.9 0 1 1 15.747 18.648l-.074 17.527c0 1.031-1.25 1.76-2.015 2.112l-6.609.008.43 2.762 6.172.084a2.535 2.535 0 0 1 2.017 2.018l.073 11.727a10.7 10.7 0 0 1 7.014 2.5l1.6-2.019L85.675 66l-1.822 2.344a11.121 11.121 0 1 1-11.761-4.235V52.693h-5.525l-.067 4.143a7.935 7.935 0 0 1-8.294 6.952ZM18.085 14.716a11.63 11.63 0 0 1 5.442 4.641 11.073 11.073 0 1 0-19.261 0 11.5 11.5 0 0 1 5.459-4.64 5.519 5.519 0 1 1 8.36 0m24.488-4.956 4.012 3.039-1.657 2.2-4.707-3.525-3.656 2.752a1.33 1.33 0 0 0-.5 1.056v6.939a8.309 8.309 0 0 0 16.618 0v-6.768a1.4 1.4 0 0 0-.711-1.191l-5.526-3.334.533-.937.894-1.439 5.576 3.366a4.35 4.35 0 0 1 2.028 3.881l-.029 6.767a10.85 10.85 0 0 1-5.183 9.023l.529 2.216c.355 1.489 2.428.933 4.51 1.722a12.7 12.7 0 0 0 2.924-8.121l-.006-10.9a13.842 13.842 0 0 0-27.68-.174l-.02 9.867a12.5 12.5 0 0 0 3.778 9.066l2.135-.361c.712-.12 1.353-.369 1.529-1.105l.529-2.215A10.94 10.94 0 0 1 33.3 22.39v-7.115a4.13 4.13 0 0 1 1.688-3.331L40.22 8Zm33.707 4.955a11.63 11.63 0 0 1 5.441 4.641 11.073 11.073 0 1 0-19.261 0 11.5 11.5 0 0 1 5.459-4.64 5.519 5.519 0 1 1 8.361 0M13.2 8.449a2.767 2.767 0 1 0 3.374 1.975A2.755 2.755 0 0 0 13.2 8.449m58.194 0a2.767 2.767 0 1 0 3.375 1.975A2.754 2.754 0 0 0 71.4 8.449m-43.738 7.134c.323-.049.347-.6.179-.6-.314.048-.347.6-.179.6m-4.115 28.793a15.72 15.72 0 0 1 7.817-8.126 15.86 15.86 0 0 1-3.588-8.033l-.076-12.49a13.956 13.956 0 0 1-16.576 11.787v16.867Zm-1.875-22.592a8.58 8.58 0 0 0-7.858-5.117 8.58 8.58 0 0 0-7.691 5.117 11.056 11.056 0 0 0 15.549 0m58.194 0a8.464 8.464 0 0 0-15.549 0 11.055 11.055 0 0 0 15.549 0M65.212 44.392l6.881-.015v-16.6a13.92 13.92 0 0 1-11.052-5.445l-.07 6.755a15.2 15.2 0 0 1-2.907 7.453 15.95 15.95 0 0 1 7.151 7.85m-17.52-5.559 1.289-2.605a7.35 7.35 0 0 1-1.274-3.43 11.55 11.55 0 0 1-6.659 0 7.4 7.4 0 0 1-1.274 3.432l1.323 2.609Zm-17.178 7.715a3.4 3.4 0 0 0-.948-2.563l1.942-1.96a6.2 6.2 0 0 1 1.8 4.445 4.06 4.06 0 0 1 2.747-.944l.01-3.925a2.76 2.76 0 0 1 1.946-2.633l-.63-1.366a13.163 13.163 0 0 0-12.4 13.191v5.029a5.219 5.219 0 0 0 10.056 1.921l1.389-3.482-3.415-2.065-2.634 5.264-2.44-1.2 2.471-5.341c.374-1.342-.02-2.888.1-4.373m27.863 4.429 2.435 5.288-2.436 1.194-2.644-5.263-3.4 2.067 1.278 3.241a5.3 5.3 0 0 0 5.831 3.427 5.135 5.135 0 0 0 4.319-4.936l.012-5.372A13.087 13.087 0 0 0 51.378 37.6l-.64 1.392a2.68 2.68 0 0 1 1.927 2.616l.029 3.919a4.06 4.06 0 0 1 2.75.94 6 6 0 0 1 1.844-4.439l1.894 1.96a3.25 3.25 0 0 0-.926 2.134c.1 1.555-.3 3.273.123 4.852m-8.477-6.6-.012-2.755-11.046-.013v2.773ZM49.923 61l-.012-5.327-1.5-3.722a4.7 4.7 0 0 1 .679-4.793h-9.42a4.72 4.72 0 0 1 .778 4.546l-1.6 3.971-.011 5.336Zm-12.5-9.356a3.1 3.1 0 0 0 .435-.962 1.84 1.84 0 0 0-1.3-2.369 1.9 1.9 0 0 0-2.266 1.419Zm17.038-1.913a1.9 1.9 0 0 0-2.4-1.382 1.854 1.854 0 0 0-1.129 2.467 2.4 2.4 0 0 0 .408.82Zm.971 13.369a8.3 8.3 0 0 1-2.726-1.844 2.88 2.88 0 0 1-2.617 2.521H38.668a2.88 2.88 0 0 1-2.619-2.521 8.9 8.9 0 0 1-2.744 1.873v3.421h22.149ZM8.156 74.13l1.7 2.515 6.564-8.189a8.342 8.342 0 1 0 1.827 2.144L9.635 81.35l-3.8-5.722Zm63.737 0 1.7 2.515 6.564-8.189a8.341 8.341 0 1 0 1.827 2.144l-8.613 10.75-3.8-5.722Zm-13.685 9.046a50 50 0 0 0-2.417-13.852H32.968a49.8 49.8 0 0 0-2.42 13.863Z"/><path fill="#efcfb3" d="m47.694 38.83-6.6.006-1.319-2.61a7.4 7.4 0 0 0 1.274-3.431 11.54 11.54 0 0 0 6.659 0 7.35 7.35 0 0 0 1.274 3.43Z"/><path fill="#656d78" d="M46.985 9.987a29 29 0 0 1-3.444.111l-.97-.339-2.353-1.758-5.235 3.942a4.13 4.13 0 0 0-1.687 3.33l.007 7.116a10.94 10.94 0 0 0 5.19 9.195l-.529 2.214c-.176.737-.817.986-1.529 1.106l-2.136.361a12.5 12.5 0 0 1-3.779-9.071l.021-9.869a13.842 13.842 0 0 1 27.68.174l.006 10.9a12.7 12.7 0 0 1-2.925 8.122c-2.082-.79-4.155-.233-4.51-1.722l-.529-2.216a10.84 10.84 0 0 0 5.183-9.023l.029-6.768a4.35 4.35 0 0 0-2.021-3.884l-5.575-3.359Z"/><path fill="#efcfb3" d="m46.985 9.988-.533.936 5.526 3.335a1.4 1.4 0 0 1 .711 1.191v6.768a8.309 8.309 0 0 1-16.617 0v-6.939a1.33 1.33 0 0 1 .5-1.056l3.656-2.752 4.707 3.525 1.657-2.2-4.013-3.037 4.07-.032a.3.3 0 0 1 .342.26"/><path d="m47.268 22.999 2.5 1.224a5.883 5.883 0 0 1-10.78 0l2.483-1.244a3.1 3.1 0 0 0 2.827 1.987 3.055 3.055 0 0 0 2.968-1.971"/><path fill="#020202" d="M39.711 16.77a1.37 1.37 0 0 1 1.8.765 1.386 1.386 0 1 1-1.8-.765m8.314 0a1.37 1.37 0 0 1 1.8.765 1.386 1.386 0 1 1-1.8-.765"/><path fill="#d29f6c" d="m58.208 83.175-27.658.011a49.8 49.8 0 0 1 2.42-13.863h22.822a50 50 0 0 1 2.417 13.852"/><path fill="#fbd670" d="M58.38 50.974c-.426-1.58-.018-3.3-.123-4.852a3.25 3.25 0 0 1 .926-2.134l-1.891-1.96a6 6 0 0 0-1.844 4.439 4.06 4.06 0 0 0-2.75-.94l-.032-3.919a2.68 2.68 0 0 0-1.928-2.616l.64-1.393a13.087 13.087 0 0 1 12.39 13.019l-.011 5.372a5.135 5.135 0 0 1-4.319 4.936 5.3 5.3 0 0 1-5.831-3.427l-1.274-3.237 3.4-2.068 2.644 5.263 2.435-1.194Zm-27.864-4.429c-.124 1.485.269 3.032-.1 4.373l-2.471 5.342 2.44 1.2 2.634-5.264 3.415 2.064-1.39 3.482a5.219 5.219 0 0 1-10.056-1.921v-5.029a13.163 13.163 0 0 1 12.4-13.191l.631 1.368a2.76 2.76 0 0 0-1.946 2.633l-.01 3.925a4.05 4.05 0 0 0-2.747.943 6.2 6.2 0 0 0-1.8-4.445l-1.942 1.959a3.4 3.4 0 0 1 .948 2.563"/><path fill="#e5e8ec" d="m49.923 60.997-11.085.011.011-5.337 1.6-3.97a4.72 4.72 0 0 0-.777-4.546h9.418a4.7 4.7 0 0 0-.679 4.793l1.5 3.722Z"/><path fill="#fbd670" d="m55.432 63.099.022 3.449H33.305v-3.421a8.9 8.9 0 0 0 2.744-1.873 2.88 2.88 0 0 0 2.619 2.521H50.09a2.884 2.884 0 0 0 2.617-2.521 8.3 8.3 0 0 0 2.725 1.844"/><path fill="#b3dc7e" d="M49.902 44.376H38.845v-2.768l11.046.013Z"/><path fill="#edceb2" d="m37.427 51.64-3.132-1.913a1.9 1.9 0 0 1 2.266-1.419 1.84 1.84 0 0 1 1.3 2.37 3.1 3.1 0 0 1-.434.961m17.037-1.912-3.119 1.9a2.3 2.3 0 0 1-.408-.82 1.855 1.855 0 0 1 1.129-2.467 1.9 1.9 0 0 1 2.4 1.383"/><path d="m47.151 52.688-5.538.007v-2.777h5.534Zm0 5.543-5.538.007v-2.777h5.534Z"/></g></svg>