<svg xmlns="http://www.w3.org/2000/svg" width="1240" height="465.888" viewBox="0 0 1240 465.888"><defs><clipPath id="b"><path fill="#adecd1" d="M17.848 179.768h1204.3A17.657 17.657 0 0 1 1240 197.227v430.969a17.657 17.657 0 0 1-17.849 17.459H17.848A17.657 17.657 0 0 1 0 628.196V197.227a17.657 17.657 0 0 1 17.848-17.459"/></clipPath><clipPath id="c"><use href="#a"/></clipPath><clipPath id="d"><path fill="#adecd1" d="M0 0h188.411v620.275H0z"/></clipPath><clipPath id="e"><path fill="#adecd1" d="M97.234 111.966 1206.169-22.641 1084.19 1234.883-24.745 1369.49Z"/></clipPath><clipPath id="f"><path fill="#adecd1" d="M686.871 15.453C471.765 92.39 260.66 252.982 102.145 473.6 61.781 529.8 24.179 591.078 2.93 658.453s-24.13 142.04 3.088 192.841c35.14 65.586 108.972 77.481 186.022 89.428-25.774 16.854-40.405 57.663-35.912 88.92 9.6 66.809 72.7 73.376 126.655 64.816 179.808-28.543 357.011-160.4 513.347-312.313 82.131-79.808 161.671-167.4 223.955-271.233 40.921-68.216 78.418-165.4 34.992-219.469-20.031-24.946-59.063-26.614-87.235 6.411 45.736-59.768 55.53-149.222 31.323-209.744S922.414-5.821 865.356-13.572c-21.425-2.914-43.488-2.565-65.849.137-37.18 4.493-75.2 15.5-112.636 28.888"/></clipPath><clipPath id="g"><path fill="#adecd1" d="M116.349 133.977 1443.293-27.092l-145.959 1504.744-1326.944 161.07Z"/></clipPath><clipPath id="h"><path fill="#adecd1" d="M821.905 18.491c-257.395 92.062-510 284.226-699.679 548.217-48.3 67.245-93.294 140.571-118.72 221.192S-25.373 957.864 7.2 1018.652c42.049 78.48 130.4 92.713 222.593 107.009-30.84 20.168-48.348 69-42.972 106.4 11.485 79.943 87 87.8 151.555 77.558 215.156-34.154 427.2-191.939 614.267-373.711 98.278-95.5 193.455-200.311 267.982-324.555 48.966-81.627 93.834-197.917 41.872-262.615-23.969-29.85-70.674-31.846-104.385 7.672 54.727-71.519 66.447-178.558 37.481-250.978s-91.84-112.4-160.116-121.672c-25.637-3.487-52.037-3.07-78.794.164C912.2-10.7 866.7 2.469 821.905 18.491"/></clipPath><path id="a" fill="#ebfcf5" d="M19.13 0h1290.741C1320.436 0 1329 11.712 1329 26.16v645.731c0 14.448-8.565 26.16-19.13 26.16H19.13C8.565 698.051 0 686.339 0 671.891V26.16C0 11.712 8.565 0 19.13 0"/></defs><g clip-path="url(#b)" transform="translate(0 -179.768)"><g clip-path="url(#c)" transform="translate(-40 -22.944)"><use href="#a"/><ellipse cx="335" cy="458.689" fill="#adecd1" opacity=".37" rx="335" ry="458.689" style="mix-blend-mode:multiply;isolation:isolate" transform="translate(233.001 553.59)"/><ellipse cx="335" cy="458.689" fill="#adecd1" opacity=".37" rx="335" ry="458.689" style="mix-blend-mode:multiply;isolation:isolate" transform="translate(568.001 -648.491)"/><g style="isolation:isolate" transform="translate(-68.935 214.785)"><g fill="#adecd1" clip-path="url(#d)" opacity=".65" style="mix-blend-mode:soft-light;isolation:isolate"><path d="M34.086 17.685c-.052-.244-.365-.136-.523-.273-5.525-4.805-9.453 6.098-14.476 9.624-.808.567-1.769-.085-1.949-1.3a11.3 11.3 0 0 0-.589-2.308c-1.575-4.192-5.411-5.666-8.471-3.639q-1.31 3.965-2.464 8.788c1.242-1.279 2.511-2.571 3.663-3.616.863-.782 2.037.026 2.075 1.439.13 4.718 1.92 8.407 5.56 10.468a1.45 1.45 0 0 0 1.974-.186c3.815-3.805 8.152-6.019 11.647-10.246.636-.77 1.643-.525 2.046.5a14 14 0 0 0 3.413 5.068 9 9 0 0 0 2.376 1.391 1.3 1.3 0 0 0 .507.492 4.7 4.7 0 0 0 2.977.33 1.2 1.2 0 0 0 .315-.113 51 51 0 0 0 4.871-3.51q-1.717-5.425-3.662-9.976c-3.162 1.917-7.835 3.868-9.288-2.933m13.28 41.803c-4.251 6.109-6.038-1.816-9.355.861v9.63a26 26 0 0 1 2.044 1.735 2.9 2.9 0 0 0 2.966.566c2.837-1 5.182 1.473 6.921 2.8 1.526.958 2.717 4.491 4.626 3.014.25-.213.486-.452.727-.682q-.4-5.671-1.009-11.016a2.07 2.07 0 0 1-1-1.648 4.37 4.37 0 0 0-.859-2.233c-1.643-1.291-2.955-3.943-5.059-3.032m4.713 46.589c-4.554-.149-8.108 2.99-11.559 6.532-.354.363-1.316 0-2.542-1.576-.142-.716-.8-1.066-1.254-.564-.85.928-1.143 2.867-1.992 3.4-.479.365-.647.359-.98-.31-4.992-12.261-12.431-8.794-17.927-.015-.382.61-1.1.46-1.324-.279a11.8 11.8 0 0 0-6.13-7.042c-2.931-2.156-5.263-.162-7.33 2.492q.429 5.688.975 11.357c2.194-2.755 4.443-6.632 6.347-8.315.432-.381 1.01-.091 1.171.577a14.45 14.45 0 0 0 8.489 10.315.63.63 0 0 0 .674-.145c3.489-3.266 5.558-9.35 9.9-11.189a.667.667 0 0 1 .823.348c1.666 2.745 4.549 6.914 7.445 8.741a.7.7 0 0 0 .229.089c0 .008 0 .034.006.039 1.85 1.867 5.223 2.48 6.358.449 2.552-2.748 5.155-6.913 8.307-8.324.48-.215.982.262 1.021.951.22 3.9 1.706 6.887 4.329 8.846a2.14 2.14 0 0 0 .9.574q-.34-6.708-.713-13.4a10.7 10.7 0 0 0-5.055-3.53.7.7 0 0 0-.162-.022m1.197 23.472a4.37 4.37 0 0 0-.86-2.233c-1.642-1.29-2.954-3.943-5.058-3.032-4.251 6.109-6.038-1.815-9.355.861v9.631a26 26 0 0 1 2.043 1.735 2.9 2.9 0 0 0 2.966.566c2.837-1 5.182 1.473 6.921 2.8 1.526.96 2.717 4.491 4.625 3.014a29.7 29.7 0 0 0 4.178-4.633q-.27-5.921-.563-11.831c-.749 1.238-1.441 2.672-2.145 4.047-.791 1.545-2.518.932-2.753-.928m4.828 46.343a1.95 1.95 0 0 0-.535-1.152 11.05 11.05 0 0 0-5.333-3.847 1 1 0 0 0-.162-.022c-4.554-.149-8.108 2.99-11.559 6.532-.354.364-1.316 0-2.542-1.576-.143-.716-.8-1.066-1.254-.564-.85.928-1.143 2.867-1.992 3.4-.479.365-.647.359-.98-.31-4.992-12.261-12.431-8.794-17.927-.015-.382.61-1.1.461-1.324-.278a11.8 11.8 0 0 0-6.13-7.044 5 5 0 0 0-1.129-.626q.269 3.108.506 6.223l.039.5c.194-.207.387-.4.575-.564.432-.381 1.01-.091 1.17.577a14.46 14.46 0 0 0 8.49 10.314.63.63 0 0 0 .674-.145c3.489-3.266 5.558-9.35 9.9-11.188a.665.665 0 0 1 .823.347c1.666 2.745 4.548 6.914 7.445 8.741a.7.7 0 0 0 .229.089l.006.039c1.85 1.868 5.223 2.48 6.357.449 2.553-2.748 5.156-6.913 8.308-8.324.48-.215.982.263 1.021.951.219 3.9 1.7 6.887 4.329 8.846 1.065 1.092 2.278.728 3.552-.373q-.2-5.8-.412-11.6l-.783 1.107c-.439.615-1.226.354-1.36-.485m-2.076 19.375c-.791 1.546-2.518.932-2.753-.928a4.4 4.4 0 0 0-.86-2.233c-1.643-1.29-2.955-3.942-5.059-3.03-4.25 6.109-6.037-1.816-9.354.861v9.63a27 27 0 0 1 2.042 1.735 2.9 2.9 0 0 0 2.967.566c2.836-1 5.181 1.475 6.92 2.8 1.526.96 2.718 4.493 4.626 3.015a31.7 31.7 0 0 0 4.618-5.211 4.3 4.3 0 0 1 1.953-1.528q-.205-6.295-.421-12.583c-1.9 1.122-3.265 4.142-4.68 6.9m3.439 45.903c-.439.615-1.226.355-1.36-.485a1.95 1.95 0 0 0-.535-1.152 11.07 11.07 0 0 0-5.333-3.847 1 1 0 0 0-.162-.022c-4.555-.149-8.109 2.99-11.559 6.532-.354.363-1.316 0-2.543-1.576-.142-.716-.8-1.066-1.253-.564-.85.928-1.143 2.867-1.992 3.4-.48.365-.648.359-.98-.31-4.992-12.259-12.432-8.792-17.927-.015-.383.61-1.1.461-1.324-.278a10.9 10.9 0 0 0-3.093-4.906q.219 4.62.432 9.243a13.67 13.67 0 0 0 6.184 5.046.63.63 0 0 0 .674-.145c3.488-3.266 5.557-9.349 9.9-11.188a.664.664 0 0 1 .823.347c1.666 2.744 4.549 6.914 7.446 8.741a.6.6 0 0 0 .228.089c0 .008 0 .034.007.039 1.849 1.867 5.223 2.48 6.357.449 2.553-2.748 5.155-6.913 8.308-8.323.48-.216.982.262 1.021.95.219 3.9 1.7 6.887 4.329 8.846 1.6 1.643 3.539 0 5.515-2.515l-.362-12.1c-.986 1.139-1.908 2.5-2.8 3.742"/><path d="M56.039 260.05c-.791 1.546-2.518.932-2.753-.928a4.4 4.4 0 0 0-.86-2.233c-1.643-1.29-2.955-3.942-5.059-3.03-4.25 6.109-6.037-1.816-9.354.861v9.63a27 27 0 0 1 2.042 1.735 2.9 2.9 0 0 0 2.967.566c2.836-1 5.181 1.475 6.92 2.8 1.526.96 2.718 4.493 4.626 3.015a31.6 31.6 0 0 0 4.618-5.21 3.7 3.7 0 0 1 3.931-1.626q-.2-6.454-.39-12.909c-3.042-.427-4.821 3.679-6.688 7.326m3.435 45.901c-.439.615-1.226.355-1.36-.485a1.95 1.95 0 0 0-.535-1.152 11.07 11.07 0 0 0-5.333-3.847 1 1 0 0 0-.162-.022c-4.555-.149-8.109 2.99-11.559 6.532-.354.363-1.316 0-2.543-1.576-.142-.716-.8-1.066-1.253-.565-.85.928-1.143 2.867-1.992 3.4-.48.365-.648.359-.98-.31-4.992-12.259-12.432-8.794-17.927-.014-.383.609-1.1.46-1.324-.279a12 12 0 0 0-.609-1.535q.112 4.234.215 8.47a13.2 13.2 0 0 0 3.917 2.448.63.63 0 0 0 .674-.145c3.488-3.266 5.557-9.349 9.9-11.188a.664.664 0 0 1 .823.348c1.666 2.744 4.549 6.913 7.446 8.741a.7.7 0 0 0 .228.088c0 .008 0 .034.007.039 1.849 1.868 5.223 2.48 6.357.449 2.553-2.748 5.155-6.913 8.308-8.323.48-.216.982.262 1.021.95.219 3.9 1.7 6.887 4.329 8.846 2.139 2.192 4.873-1.47 7.5-5.236q-.2-5.589-.391-11.18c-1.767 1.163-3.3 3.512-4.755 5.547"/><path d="M56.039 324.841c-.791 1.546-2.518.932-2.753-.928a4.4 4.4 0 0 0-.86-2.233c-1.643-1.29-2.955-3.942-5.059-3.03-4.25 6.108-6.037-1.816-9.354.861v9.63a27 27 0 0 1 2.042 1.735 2.9 2.9 0 0 0 2.967.566c2.836-1 5.181 1.475 6.92 2.8 1.526.96 2.718 4.493 4.626 3.015a31.6 31.6 0 0 0 4.618-5.211 3.59 3.59 0 0 1 6.213.1q-.266-6.6-.51-13.207l-1.629-1.32c-3.373-1.019-5.247 3.359-7.221 7.215m-13.017 71.395c2.837-1 5.182 1.473 6.921 2.8 1.526.958 2.717 4.491 4.625 3.015a31.7 31.7 0 0 0 4.619-5.211c1.841-2.484 4.894-2.3 6.466.507a10.55 10.55 0 0 0 3.236 3.614q-.45-7.09-.858-14.2c-.948-1.311-2.461-2.467-4.77-4.341-3.374-1.019-5.247 3.358-7.222 7.215-.791 1.545-2.518.932-2.753-.928a4.37 4.37 0 0 0-.86-2.233c-1.642-1.29-2.954-3.943-5.058-3.032-4.251 6.109-6.038-1.815-9.355.862v9.63a26 26 0 0 1 2.044 1.736 2.9 2.9 0 0 0 2.966.566m-.001 64.791c2.837-1 5.182 1.473 6.921 2.8 1.526.96 2.717 4.491 4.625 3.015a31.7 31.7 0 0 0 4.619-5.211c1.841-2.484 4.894-2.3 6.466.507 1.968 3.519 5.47 5.674 8.5 4.355q-.571-5.729-1.1-11.48c-1.468 1.064-3.385.314-4.2-1.915-.766-2.111-2.445-3.328-5.6-5.889-3.374-1.019-5.247 3.358-7.222 7.215-.791 1.545-2.518.932-2.753-.928a4.37 4.37 0 0 0-.86-2.233c-1.642-1.29-2.954-3.943-5.058-3.032-4.251 6.109-6.038-1.815-9.355.861v9.631a26 26 0 0 1 2.052 1.74 2.9 2.9 0 0 0 2.966.566m-.001 64.787c2.837-1 5.182 1.473 6.921 2.8 1.526.96 2.717 4.493 4.625 3.015a31.7 31.7 0 0 0 4.619-5.211c1.841-2.484 4.894-2.3 6.466.507 2.062 3.687 5.808 5.886 8.931 4.151a1.96 1.96 0 0 0 1.555-1.839 2.22 2.22 0 0 1 1.029-1.758 7.3 7.3 0 0 0 1.159-1.234 4.46 4.46 0 0 1 2.635-1.78 1047 1047 0 0 0-1.269-10.83c-2.143.153-4.013 2.491-5.755 5.213-1.461 2.28-4.09 1.753-5.076-.962-.766-2.111-2.445-3.328-5.6-5.889-3.374-1.019-5.247 3.358-7.222 7.215-.791 1.545-2.518.932-2.753-.928a4.37 4.37 0 0 0-.86-2.233c-1.642-1.29-2.954-3.942-5.058-3.03-4.251 6.108-6.038-1.816-9.355.861v9.629a26 26 0 0 1 2.043 1.735 2.9 2.9 0 0 0 2.966.566m-.001 64.793c2.837-1 5.182 1.473 6.921 2.8 1.526.958 2.717 4.491 4.625 3.015a31.7 31.7 0 0 0 4.619-5.211c1.841-2.484 4.894-2.3 6.466.507 2.062 3.687 5.808 5.886 8.931 4.151a1.96 1.96 0 0 0 1.555-1.839 2.22 2.22 0 0 1 1.029-1.758 7.3 7.3 0 0 0 1.159-1.234c1.766-2.33 4.441-2.445 6.249-.414q.118-4.579.1-9.216a6.5 6.5 0 0 0-1-.738c-3.938-4.67-7-1.314-9.739 2.971-1.461 2.28-4.09 1.753-5.076-.962-.766-2.111-2.445-3.328-5.6-5.889-3.374-1.019-5.247 3.358-7.222 7.215-.791 1.545-2.518.932-2.753-.928a4.37 4.37 0 0 0-.86-2.233c-1.642-1.29-2.954-3.943-5.058-3.032-4.251 6.109-6.038-1.815-9.355.861v9.631a26 26 0 0 1 2.043 1.735 2.9 2.9 0 0 0 2.966.566m39.78 23.971c.381-2.873.695-5.809.952-8.79a22 22 0 0 1-4.159 4.363c-.809.567-1.769-.085-1.949-1.3a11.2 11.2 0 0 0-.59-2.308c-1.643-4.374-5.752-5.8-8.874-3.353-8.89 6.953-13.525-1.191-16.04-2.262a1 1 0 0 0-.246-.073 8.85 8.85 0 0 0-5.467 1.209c-.145-1.157-10.1 9.261-12.346-1.257-.052-.244-.365-.136-.523-.273-5.522-4.805-9.453 6.1-14.476 9.62-.808.567-1.769-.085-1.949-1.3a11.3 11.3 0 0 0-.589-2.308 8.2 8.2 0 0 0-1.5-2.544q-.008 7.334-.005 14.651a10.6 10.6 0 0 0 1.867 1.341 1.45 1.45 0 0 0 1.975-.186c3.814-3.806 8.153-6.02 11.646-10.246.637-.77 1.644-.525 2.047.5a14 14 0 0 0 3.413 5.067 9 9 0 0 0 2.376 1.392 1.3 1.3 0 0 0 .507.491 4.7 4.7 0 0 0 2.977.329 1.2 1.2 0 0 0 .315-.112c2.208-1.143 4.051-3.282 6.3-4.355 1.911-1.257 8.147 2.619 11.222 4.3 1.136.6 6.267-5.609 10.1-9.087.862-.782 2.036.026 2.075 1.439a14 14 0 0 0 1.67 6.6 53 53 0 0 0 7.007-1.285q1.133-.134 2.264-.253m-72.2-601.364a4.77 4.77 0 0 0 3.47-.459 1.96 1.96 0 0 0 1.554-1.839 2.22 2.22 0 0 1 1.029-1.76 7.2 7.2 0 0 0 1.159-1.232c2.007-2.646 5.187-2.438 6.935.53 1.679 2.849 3.89 4.786 6.007 2.82a14.1 14.1 0 0 1 4.958-4.169 22.7 22.7 0 0 0-5.942-5.485A3.99 3.99 0 0 1 25.723.1c-5.4-.829-10.7 3.24-15.121 13.11M8.365 46.958c.432-.381 1.01-.091 1.17.577a14.45 14.45 0 0 0 8.491 10.315.63.63 0 0 0 .674-.145c3.489-3.266 5.557-9.349 9.9-11.188a.666.666 0 0 1 .824.347c1.664 2.745 4.547 6.914 7.444 8.743a.7.7 0 0 0 .229.088l.006.039c1.851 1.867 5.223 2.48 6.357.449 2.467-2.655 4.981-6.624 7.99-8.163q-.675-3.387-1.431-6.569c-3.6.683-6.583 3.376-9.492 6.362-.355.363-1.317 0-2.544-1.576-.141-.716-.8-1.066-1.252-.565-.851.928-1.144 2.867-1.992 3.4-.48.365-.649.359-.981-.31-4.991-12.259-12.432-8.794-17.927-.015-.382.61-1.1.461-1.324-.278a11.8 11.8 0 0 0-6.13-7.044c-2.022-1.487-3.757-1-5.319.321q-1.043 6.641-1.815 14.45c2.432-2.732 4.993-7.356 7.122-9.239m16.936 17.411a6.6 6.6 0 0 0-2.132-2.023c-3.937-4.669-7-1.313-9.739 2.971-1.461 2.281-4.089 1.753-5.075-.962-.767-2.111-2.446-3.328-5.6-5.889a3.1 3.1 0 0 0-1.72-.048 219 219 0 0 0-.334 3.795 235 235 0 0 0-.548 9.366c1.729-.936 3.791-.329 4.991 1.817 2.062 3.686 5.808 5.885 8.932 4.15a1.956 1.956 0 0 0 1.554-1.839 2.22 2.22 0 0 1 1.029-1.758 7.3 7.3 0 0 0 1.16-1.232c2.006-2.646 5.186-2.44 6.934.529 1.679 2.85 3.89 4.787 6.008 2.821a15.1 15.1 0 0 1 5.469-4.464c.536-.464 1.135-1.064 1.772-1.71v-9.565a38 38 0 0 0-6.457 5.114c-1.988 1.812-4.624 1.329-6.244-1.073m8.785 18.107c-.052-.244-.365-.136-.523-.273-5.522-4.805-9.453 6.1-14.476 9.62-.808.567-1.769-.085-1.949-1.3a11.3 11.3 0 0 0-.589-2.308c-1.644-4.374-5.753-5.8-8.875-3.353C4.652 87.222 2.122 87.838 0 87.584q.1 5.413.385 10.8c2.041-1.457 5.867-5.889 8.892-8.634.863-.782 2.037.026 2.075 1.439.13 4.718 1.92 8.407 5.56 10.468a1.45 1.45 0 0 0 1.974-.186c3.814-3.802 8.153-6.018 11.647-10.245.636-.77 1.643-.525 2.046.5a14 14 0 0 0 3.413 5.068 9 9 0 0 0 2.376 1.391 1.3 1.3 0 0 0 .507.492 4.7 4.7 0 0 0 2.977.329 1.2 1.2 0 0 0 .315-.112c2.208-1.143 4.051-3.282 6.3-4.355 1.384-.91 5.033.87 8.109 2.561q-.352-5.8-.732-11.592c-1.582-1.2-2.78-2.522-3.7-2.912a1 1 0 0 0-.247-.073 8.86 8.86 0 0 0-5.466 1.209c-.145-1.158-10.1 9.261-12.347-1.257m-8.783 46.682a6.6 6.6 0 0 0-2.132-2.023c-3.937-4.669-7-1.313-9.739 2.971-1.461 2.281-4.089 1.753-5.075-.962-.767-2.109-2.446-3.328-5.6-5.889a4 4 0 0 0-.432-.091q.666 6.71 1.412 13.408a4.8 4.8 0 0 1 1.413 1.614c2.062 3.686 5.808 5.885 8.932 4.151a1.96 1.96 0 0 0 1.554-1.841 2.22 2.22 0 0 1 1.029-1.758 7.3 7.3 0 0 0 1.153-1.228c2.006-2.646 5.186-2.44 6.934.529 1.679 2.85 3.89 4.787 6.008 2.821a15.1 15.1 0 0 1 5.469-4.464c.536-.464 1.135-1.064 1.772-1.71v-9.569a38 38 0 0 0-6.457 5.114c-1.988 1.812-4.624 1.329-6.244-1.073m8.788 18.108c-.052-.244-.365-.136-.523-.273-5.522-4.805-9.453 6.1-14.476 9.62-.808.567-1.769-.085-1.949-1.3a11.3 11.3 0 0 0-.589-2.308c-1.644-4.374-5.753-5.8-8.875-3.353a16.5 16.5 0 0 1-2.338 1.542q.353 3.265.693 6.534c1.108-1.136 2.222-2.258 3.245-3.186.863-.782 2.037.026 2.075 1.439.13 4.718 1.92 8.406 5.56 10.468a1.45 1.45 0 0 0 1.974-.184c3.815-3.807 8.153-6.021 11.647-10.248.636-.77 1.643-.525 2.046.5a14 14 0 0 0 3.413 5.067 9 9 0 0 0 2.376 1.392 1.3 1.3 0 0 0 .507.492 4.7 4.7 0 0 0 2.977.329 1.2 1.2 0 0 0 .315-.112c2.208-1.143 4.051-3.282 6.3-4.355 1.912-1.257 8.147 2.619 11.223 4.3a.4.4 0 0 0 .13.017q-.224-5.754-.464-11.5c-3.456-.969-5.709-4.118-7.207-4.757a1.2 1.2 0 0 0-.247-.073 8.86 8.86 0 0 0-5.466 1.209c-.145-1.157-10.1 9.261-12.347-1.257m-8.786 46.68a6.6 6.6 0 0 0-2.132-2.023c-3.937-4.669-7-1.314-9.739 2.971a2.53 2.53 0 0 1-4.4.277q.391 6.074.755 12.162a4.92 4.92 0 0 0 4.3-.209 1.956 1.956 0 0 0 1.554-1.839 2.22 2.22 0 0 1 1.029-1.758 7.3 7.3 0 0 0 1.16-1.232c2.006-2.646 5.186-2.438 6.934.529 1.679 2.85 3.89 4.787 6.008 2.82a15.1 15.1 0 0 1 5.469-4.462c.536-.464 1.135-1.064 1.772-1.71v-9.564a38 38 0 0 0-6.457 5.114c-1.988 1.812-4.624 1.329-6.244-1.073m8.777 18.104c-.052-.244-.365-.135-.523-.273-5.522-4.805-9.453 6.1-14.476 9.62-.808.567-1.769-.085-1.949-1.3a11.3 11.3 0 0 0-.589-2.308c-1.236-3.291-3.868-4.908-6.426-4.469.111 1.943.228 3.881.334 5.825a1.8 1.8 0 0 1 .894 1.623c.13 4.718 1.92 8.407 5.56 10.468a1.45 1.45 0 0 0 1.974-.185c3.815-3.807 8.153-6.021 11.647-10.248.636-.77 1.643-.525 2.046.5a14 14 0 0 0 3.413 5.067 9 9 0 0 0 2.376 1.392 1.3 1.3 0 0 0 .507.492 4.7 4.7 0 0 0 2.977.33 1.2 1.2 0 0 0 .315-.113c2.208-1.141 4.051-3.282 6.3-4.355 1.912-1.257 8.147 2.619 11.223 4.3.378.2 1.2-.365 2.272-1.322l-.3-9.882c-4.8.161-7.7-4.268-9.51-5.039a1 1 0 0 0-.247-.073 8.85 8.85 0 0 0-5.466 1.209c-.145-1.157-10.1 9.261-12.347-1.257m-8.791 46.68a6.6 6.6 0 0 0-2.132-2.021c-3.937-4.67-7-1.313-9.739 2.97a3.4 3.4 0 0 1-1.015 1.044q.231 5.826.438 11.662a4.8 4.8 0 0 0 1.224-.475 1.96 1.96 0 0 0 1.554-1.841 2.22 2.22 0 0 1 1.029-1.758 7.3 7.3 0 0 0 1.16-1.232c2.006-2.646 5.186-2.438 6.934.529 1.679 2.85 3.89 4.787 6.008 2.821a15.1 15.1 0 0 1 5.469-4.464c.536-.464 1.135-1.064 1.772-1.71v-9.565a38 38 0 0 0-6.457 5.115c-1.988 1.811-4.624 1.327-6.244-1.074m8.787 18.106c-.052-.242-.365-.134-.523-.273-5.522-4.8-9.453 6.1-14.476 9.62-.808.567-1.769-.085-1.949-1.3a11.3 11.3 0 0 0-.589-2.309 7.04 7.04 0 0 0-3.485-4.056q.246 7.212.461 14.436a10.2 10.2 0 0 0 3.386 3.069 1.454 1.454 0 0 0 1.974-.184c3.815-3.807 8.153-6.021 11.647-10.249.636-.768 1.643-.525 2.046.5a14 14 0 0 0 3.408 5.068 9 9 0 0 0 2.376 1.389 1.3 1.3 0 0 0 .507.493 4.72 4.72 0 0 0 2.977.329 1.1 1.1 0 0 0 .315-.113c2.208-1.14 4.051-3.282 6.3-4.354 1.912-1.257 8.147 2.617 11.223 4.3.583.306 2.223-1.187 4.2-3.178q-.136-4.166-.269-8.338c-5.986 1.68-9.427-3.858-11.47-4.727a1.2 1.2 0 0 0-.247-.074 8.87 8.87 0 0 0-5.466 1.21c-.146-1.16-10.101 9.263-12.346-1.259"/><path d="M43.458 380.132c2.553-2.749 5.155-6.913 8.308-8.323.48-.216.982.262 1.02.95.22 3.9 1.706 6.887 4.33 8.846 2.873 2.944 6.816-4.669 10.144-8.911q-.214-4.1-.417-8.2c-2.939-.377-5.248 3.267-7.37 6.245-.439.613-1.226.354-1.36-.486a1.95 1.95 0 0 0-.535-1.151 11.05 11.05 0 0 0-5.333-3.848 1 1 0 0 0-.163-.022c-4.554-.149-8.108 2.992-11.558 6.532-.354.365-1.316 0-2.543-1.576-.142-.715-.8-1.064-1.253-.563-.85.927-1.143 2.867-1.992 3.4-.48.365-.648.358-.98-.313-4.992-12.258-12.432-8.792-17.927-.014a.69.69 0 0 1-.717.368q.039 3.577.071 7.159a13.2 13.2 0 0 0 2.844 1.579.63.63 0 0 0 .674-.146c3.488-3.266 5.557-9.35 9.9-11.189a.666.666 0 0 1 .823.35c1.666 2.743 4.549 6.914 7.445 8.74a.6.6 0 0 0 .229.088c0 .01 0 .036.007.039 1.849 1.87 5.223 2.481 6.357.45M15.63 334.867a2.22 2.22 0 0 1 1.029-1.758 7.3 7.3 0 0 0 1.16-1.232c2.006-2.646 5.186-2.44 6.934.529 1.679 2.85 3.89 4.787 6.007 2.82a15.1 15.1 0 0 1 5.47-4.462c.536-.464 1.135-1.064 1.772-1.71v-9.565a38 38 0 0 0-6.457 5.114c-1.988 1.812-4.624 1.329-6.244-1.073a6.6 6.6 0 0 0-2.132-2.023c-3.524-4.18-6.344-1.925-8.864 1.667q.145 6.658.269 13.326a1.8 1.8 0 0 0 1.057-1.633m3.255 25.766c3.814-3.806 8.153-6.019 11.646-10.246.637-.771 1.644-.526 2.047.5a14 14 0 0 0 3.413 5.068 9 9 0 0 0 2.376 1.391 1.3 1.3 0 0 0 .507.493 4.7 4.7 0 0 0 2.977.329 1.2 1.2 0 0 0 .315-.113c2.208-1.141 4.051-3.281 6.3-4.354 1.911-1.257 8.147 2.619 11.222 4.3.807.425 3.636-2.59 6.582-5.619q-.157-3.439-.306-6.881c-7.455 4.1-11.52-2.763-13.817-3.742a1.2 1.2 0 0 0-.246-.073 8.87 8.87 0 0 0-5.467 1.209c-.144-1.157-10.1 9.26-12.346-1.257-.052-.244-.365-.135-.523-.271-5.522-4.807-9.453 6.1-14.476 9.618-.808.567-1.769-.085-1.949-1.3a11.2 11.2 0 0 0-.589-2.308 7.95 7.95 0 0 0-1.831-2.9q.125 7.449.226 14.9a10.5 10.5 0 0 0 1.967 1.437 1.45 1.45 0 0 0 1.975-.184m24.569 84.293c2.553-2.75 5.155-6.913 8.308-8.324.48-.215.982.262 1.02.951.22 3.9 1.706 6.887 4.33 8.846 3.356 3.438 8.17-7.526 11.76-10.7.431-.381 1.009-.091 1.17.577a16.2 16.2 0 0 0 1.751 4.4q-.379-4.543-.737-9.1a16.6 16.6 0 0 0-2.177-1.414c-3.953-2.906-6.82 1.732-9.41 5.366-.439.614-1.226.354-1.36-.485a1.95 1.95 0 0 0-.535-1.152 11.06 11.06 0 0 0-5.333-3.847.7.7 0 0 0-.163-.022c-4.554-.149-8.108 2.99-11.558 6.532-.354.363-1.316 0-2.543-1.576-.142-.716-.8-1.066-1.253-.565-.85.928-1.143 2.867-1.992 3.4-.48.365-.648.359-.98-.311-4.992-12.259-12.432-8.792-17.927-.014a.8.8 0 0 1-.348.321q.006 3.709.007 7.417a13 13 0 0 0 2.54 1.367.63.63 0 0 0 .674-.145c3.488-3.266 5.557-9.35 9.9-11.189a.667.667 0 0 1 .823.348c1.666 2.744 4.549 6.914 7.445 8.741a.7.7 0 0 0 .229.09c0 .008 0 .034.007.039 1.849 1.867 5.223 2.48 6.357.449m-26.804-47.026a7.3 7.3 0 0 0 1.16-1.232c2.006-2.646 5.186-2.438 6.934.529 1.679 2.85 3.89 4.787 6.007 2.821a15.1 15.1 0 0 1 5.47-4.464c.536-.464 1.135-1.064 1.772-1.71v-9.565a38 38 0 0 0-6.457 5.113c-1.988 1.812-4.624 1.329-6.244-1.073a6.6 6.6 0 0 0-2.132-2.023c-3.092-3.668-5.642-2.376-7.924.42q.059 6.939.1 13.881a2.16 2.16 0 0 0 .284-.94 2.22 2.22 0 0 1 1.029-1.758m2.228 27.527c3.814-3.806 8.153-6.02 11.646-10.246.637-.771 1.644-.526 2.047.5a14 14 0 0 0 3.413 5.068 9 9 0 0 0 2.376 1.392 1.3 1.3 0 0 0 .507.492 4.7 4.7 0 0 0 2.977.329 1.2 1.2 0 0 0 .315-.113c2.208-1.141 4.051-3.281 6.3-4.354 1.911-1.257 8.147 2.619 11.222 4.3 1.132.6 6.227-5.558 10.056-9.044q-.195-2.825-.388-5.651a6 6 0 0 0-1.17.715c-8.89 6.953-13.525-1.19-16.04-2.262a1.2 1.2 0 0 0-.246-.073 8.86 8.86 0 0 0-5.467 1.21c-.145-1.158-10.1 9.259-12.346-1.257-.052-.245-.365-.136-.523-.273-5.522-4.806-9.453 6.1-14.476 9.619-.808.567-1.769-.084-1.949-1.3a11.3 11.3 0 0 0-.589-2.308 8.5 8.5 0 0 0-1.153-2.13q.035 7.288.056 14.578a10.5 10.5 0 0 0 1.458 1 1.45 1.45 0 0 0 1.975-.184m24.571 84.283c2.553-2.75 5.155-6.913 8.308-8.324.48-.215.982.263 1.02.951.22 3.9 1.706 6.887 4.33 8.846 3.356 3.438 8.17-7.526 11.76-10.7.431-.381 1.009-.091 1.17.577a14.46 14.46 0 0 0 8.489 10.315.63.63 0 0 0 .675-.145c.056-.054.11-.114.166-.168-.492-3.965-.974-7.7-1.418-11.15q-.834 1.1-1.622 2.357c-.382.61-1.094.46-1.324-.279a11.8 11.8 0 0 0-6.13-7.044c-3.953-2.906-6.82 1.732-9.41 5.366-.439.614-1.226.354-1.36-.485a1.95 1.95 0 0 0-.535-1.152 11.06 11.06 0 0 0-5.333-3.847.7.7 0 0 0-.163-.022c-4.554-.149-8.108 2.99-11.558 6.532-.354.364-1.316 0-2.543-1.576-.142-.716-.8-1.066-1.253-.565-.85.928-1.143 2.867-1.992 3.4-.48.365-.648.359-.98-.31-4.992-12.261-12.432-8.794-17.927-.015a.76.76 0 0 1-.445.35l-.025 7.3a13 13 0 0 0 2.669 1.454.63.63 0 0 0 .674-.145c3.488-3.266 5.557-9.35 9.9-11.189a.667.667 0 0 1 .823.348c1.666 2.744 4.549 6.914 7.445 8.741a.6.6 0 0 0 .229.088c0 .01 0 .036.007.039 1.849 1.868 5.223 2.481 6.357.45M15.63 464.44a2.22 2.22 0 0 1 1.029-1.758 7.3 7.3 0 0 0 1.16-1.232c2.006-2.646 5.186-2.44 6.934.529 1.679 2.85 3.89 4.787 6.007 2.82a15.1 15.1 0 0 1 5.47-4.462c.536-.464 1.135-1.064 1.772-1.71v-9.565a38 38 0 0 0-6.457 5.114c-1.988 1.812-4.624 1.329-6.244-1.073a6.6 6.6 0 0 0-2.132-2.023c-2.982-3.537-5.461-2.466-7.68.124q0 6.95-.01 13.9a2.4 2.4 0 0 0 .152-.66m3.254 25.769c3.814-3.806 8.153-6.02 11.646-10.246.637-.771 1.644-.526 2.047.5a14 14 0 0 0 3.413 5.068 9 9 0 0 0 2.376 1.391 1.3 1.3 0 0 0 .507.493 4.72 4.72 0 0 0 2.977.329 1.2 1.2 0 0 0 .315-.113c2.208-1.141 4.051-3.281 6.3-4.353 1.911-1.257 8.147 2.619 11.222 4.3 1.136.6 6.267-5.608 10.1-9.087.862-.781 2.036.026 2.075 1.44.121 4.391 1.681 7.888 4.831 10.014a463 463 0 0 1-.419-3.523q-.717-6.326-1.374-12.679a5.11 5.11 0 0 0-6.715-.145c-8.89 6.953-13.525-1.19-16.04-2.262a1.2 1.2 0 0 0-.246-.073 8.87 8.87 0 0 0-5.467 1.209c-.144-1.157-10.1 9.262-12.346-1.257-.052-.244-.365-.135-.523-.271-5.522-4.807-9.453 6.1-14.476 9.618-.808.567-1.769-.084-1.949-1.3a11.2 11.2 0 0 0-.589-2.308 8.5 8.5 0 0 0-1.088-2.035q-.015 7.232-.035 14.461a10.6 10.6 0 0 0 1.485 1.02 1.45 1.45 0 0 0 1.975-.184m-2.229 37.253a7.3 7.3 0 0 0 1.16-1.232c2.006-2.646 5.186-2.44 6.934.529 1.679 2.85 3.89 4.787 6.007 2.821a15.1 15.1 0 0 1 5.47-4.464c.536-.464 1.135-1.064 1.772-1.71v-9.565a38 38 0 0 0-6.457 5.114c-1.988 1.812-4.624 1.329-6.244-1.073a6.6 6.6 0 0 0-2.132-2.023c-3.052-3.62-5.576-2.409-7.834.311q-.027 7.053-.056 14.1a2.1 2.1 0 0 0 .352-1.049 2.22 2.22 0 0 1 1.029-1.758m2.227 27.529c3.814-3.806 8.153-6.02 11.646-10.246.637-.771 1.644-.526 2.047.5a14 14 0 0 0 3.413 5.068 9 9 0 0 0 2.376 1.391 1.3 1.3 0 0 0 .507.493 4.7 4.7 0 0 0 2.977.329 1.2 1.2 0 0 0 .315-.113c2.208-1.141 4.051-3.281 6.3-4.354 1.911-1.257 8.147 2.619 11.222 4.3 1.136.6 6.267-5.608 10.1-9.086.862-.782 2.036.025 2.075 1.439.13 4.718 1.92 8.405 5.559 10.467a1.45 1.45 0 0 0 1.975-.184 44 44 0 0 1 4.088-3.522q-.337-4.672-.739-9.234a17.2 17.2 0 0 1-3.147 3.1c-.809.567-1.769-.084-1.949-1.3a11.2 11.2 0 0 0-.59-2.308c-1.643-4.376-5.752-5.8-8.874-3.354-8.89 6.953-13.525-1.19-16.04-2.262a1.2 1.2 0 0 0-.246-.073 8.86 8.86 0 0 0-5.467 1.21c-.144-1.158-10.1 9.259-12.346-1.258-.052-.244-.365-.135-.523-.271-5.522-4.807-9.453 6.1-14.476 9.618-.808.567-1.769-.084-1.949-1.3a11.2 11.2 0 0 0-.589-2.308 8.3 8.3 0 0 0-1.309-2.317l-.057 14.541a10.5 10.5 0 0 0 1.728 1.223 1.45 1.45 0 0 0 1.975-.184m-.186 21.018c3.489-3.266 5.558-9.35 9.9-11.189a.667.667 0 0 1 .823.348c1.666 2.744 4.548 6.914 7.445 8.742a.6.6 0 0 0 .229.088.2.2 0 0 0 .006.04c1.85 1.867 5.223 2.48 6.357.449 2.553-2.749 5.156-6.913 8.308-8.324.48-.215.982.262 1.021.951.219 3.9 1.7 6.887 4.329 8.846 3.356 3.438 8.171-7.526 11.76-10.7.431-.381 1.01-.091 1.17.577a14.46 14.46 0 0 0 8.491 10.315.63.63 0 0 0 .674-.145c1.974-1.849 3.494-4.6 5.227-6.972q-.168-4.752-.437-9.473c-2.68 1.03-5.345 3.781-7.663 7.484-.382.61-1.1.46-1.324-.28a11.8 11.8 0 0 0-6.13-7.044c-3.954-2.907-6.82 1.732-9.411 5.365-.439.614-1.226.354-1.36-.485a1.95 1.95 0 0 0-.535-1.152 11.05 11.05 0 0 0-5.333-3.847.7.7 0 0 0-.162-.022c-4.554-.149-8.108 2.99-11.559 6.532-.354.363-1.316 0-2.542-1.576-.143-.716-.8-1.066-1.254-.564-.85.928-1.143 2.867-1.992 3.4-.479.365-.647.359-.98-.311-4.992-12.259-12.432-8.792-17.927-.014a.69.69 0 0 1-.693.368l-.022 7.1a13 13 0 0 0 2.914 1.633.63.63 0 0 0 .674-.145m-3.076 18.003a2.22 2.22 0 0 1 1.029-1.758 7.3 7.3 0 0 0 1.16-1.232c2.006-2.646 5.186-2.44 6.934.529 1.679 2.85 3.89 4.787 6.007 2.82a15.1 15.1 0 0 1 5.47-4.462c.536-.464 1.135-1.064 1.772-1.71v-9.566a38 38 0 0 0-6.457 5.114c-1.988 1.812-4.624 1.329-6.244-1.073a6.6 6.6 0 0 0-2.132-2.023c-3.16-3.749-5.755-2.32-8.075.6q-.02 7.036-.032 14.059a1.9 1.9 0 0 0 .569-1.3m145.57-481.295c-.474 0-1.257-.49-2.2-1.7-.143-.716-.8-1.066-1.255-.564-.85.928-1.143 2.867-1.992 3.4-.479.365-.647.359-.98-.311-4.992-12.259-12.431-8.792-17.927-.014-.382.61-1.1.46-1.324-.279a11.8 11.8 0 0 0-6.13-7.044c-3.953-2.906-6.82 1.732-9.411 5.366-.438.614-1.226.354-1.36-.485a1.95 1.95 0 0 0-.535-1.152 11.05 11.05 0 0 0-5.333-3.847.7.7 0 0 0-.162-.022c-2.93-.1-5.445 1.173-7.787 3.03q.378 4.963.845 9.912c2.032-2.477 4.16-5.262 6.625-6.365.481-.215.982.262 1.021.951.219 3.9 1.7 6.887 4.329 8.846 3.356 3.438 8.171-7.526 11.76-10.7.432-.381 1.01-.091 1.17.577a14.46 14.46 0 0 0 8.49 10.315.63.63 0 0 0 .674-.145c3.489-3.266 5.557-9.35 9.9-11.189a.667.667 0 0 1 .823.348c1.666 2.744 4.548 6.914 7.445 8.741a.6.6 0 0 0 .229.088.2.2 0 0 0 .006.04 5.9 5.9 0 0 0 3.582 1.693q-.24-4.75-.5-9.49m-2.171 12.412v9.63c.314.172 1.2 1 2.043 1.735a2.97 2.97 0 0 0 1.348.684q-.281-6.1-.584-12.19a2.23 2.23 0 0 0-2.807.142m-.032 50.677c-.142-.716-.8-1.066-1.255-.566-.85.929-1.142 2.869-1.992 3.4-.479.366-.647.359-.979-.311-4.993-12.259-12.432-8.792-17.928-.012-.382.609-1.094.458-1.324-.281a11.8 11.8 0 0 0-6.13-7.042c-3.953-2.906-6.82 1.731-9.41 5.363-.439.615-1.227.355-1.361-.483a1.94 1.94 0 0 0-.534-1.151 11.07 11.07 0 0 0-5.336-3.852 1 1 0 0 0-.162-.021 9.3 9.3 0 0 0-1.574.084c.2 2.284.387 4.575.554 6.861a7 7 0 0 1 .7-.368c.48-.215.981.262 1.02.951.22 3.9 1.706 6.887 4.33 8.846 3.356 3.437 8.17-7.526 11.759-10.7.432-.381 1.01-.089 1.171.577a14.46 14.46 0 0 0 8.49 10.318.63.63 0 0 0 .674-.146c3.489-3.267 5.558-9.35 9.9-11.189a.67.67 0 0 1 .823.35c1.666 2.743 4.549 6.914 7.445 8.741a.7.7 0 0 0 .229.087c0 .01 0 .036.006.039 1.8 1.816 5.025 2.438 6.248.611q-.19-5.452-.39-10.9a52 52 0 0 0-2.435 2.365c-.354.365-1.315 0-2.542-1.576m-3.893-28.547c-.052-.244-.365-.136-.523-.273-5.522-4.805-9.453 6.1-14.476 9.62-.808.567-1.769-.085-1.949-1.3a11.3 11.3 0 0 0-.589-2.308c-1.644-4.374-5.753-5.8-8.875-3.353-8.89 6.953-13.524-1.191-16.039-2.262a1.2 1.2 0 0 0-.247-.073 7.1 7.1 0 0 0-3.717.449q.621 5.659 1.207 11.323c2.523-.061 7.614 3.076 10.3 4.544 1.136.6 6.266-5.609 10.1-9.087.861-.782 2.036.026 2.074 1.439.13 4.718 1.92 8.406 5.56 10.468a1.45 1.45 0 0 0 1.974-.184c3.815-3.807 8.153-6.021 11.647-10.248.636-.77 1.644-.525 2.046.5a14 14 0 0 0 3.413 5.067 9 9 0 0 0 2.376 1.392 1.3 1.3 0 0 0 .507.492 4.7 4.7 0 0 0 2.977.329 1.2 1.2 0 0 0 .315-.112c.12-.062.235-.138.352-.205q-.245-6.266-.508-12.519c-3.012 1.523-6.67 2.18-7.926-3.694m3.929 42.655v9.63a27 27 0 0 1 2.044 1.738 2.9 2.9 0 0 0 2.966.566 4 4 0 0 1 .853-.194q-.169-5.159-.342-10.314c-1.908-.526-3.4-3.13-5.519-1.422M159 240.607c-.142-.716-.8-1.066-1.255-.564-.85.928-1.142 2.867-1.992 3.4-.479.365-.647.359-.979-.311-4.993-12.259-12.432-8.792-17.928-.014-.382.61-1.094.46-1.324-.279a11.8 11.8 0 0 0-6.13-7.044c-3.953-2.906-6.82 1.732-9.41 5.365-.439.614-1.227.354-1.361-.485a1.95 1.95 0 0 0-.534-1.152 14.5 14.5 0 0 0-3-2.766q.32 6.679.611 13.373a10.2 10.2 0 0 0 1.929 1.9c3.356 3.438 8.17-7.526 11.759-10.7.432-.381 1.01-.091 1.171.577a14.46 14.46 0 0 0 8.49 10.315.63.63 0 0 0 .674-.145c3.489-3.267 5.558-9.35 9.9-11.189a.667.667 0 0 1 .823.348c1.666 2.744 4.549 6.914 7.445 8.741a.6.6 0 0 0 .229.088c0 .01 0 .036.006.039 1.85 1.868 5.224 2.481 6.357.45.613-.66 1.229-1.4 1.854-2.166l-.306-10.244a36 36 0 0 0-4.481 4.04c-.354.363-1.315 0-2.542-1.576m-3.9-28.553c-.052-.244-.365-.135-.523-.273-5.522-4.805-9.453 6.1-14.476 9.62-.808.567-1.769-.085-1.949-1.3a11.3 11.3 0 0 0-.589-2.308c-1.644-4.374-5.753-5.8-8.875-3.353-7.654 5.986-12.151.786-14.859-1.462q.352 6.177.677 12.367c2.075 1 4.232 2.281 5.685 3.076 1.136.6 6.266-5.609 10.1-9.087.861-.782 2.036.026 2.074 1.439.13 4.718 1.92 8.407 5.56 10.468a1.45 1.45 0 0 0 1.974-.185c3.815-3.807 8.153-6.021 11.647-10.248.636-.77 1.644-.525 2.046.5a14 14 0 0 0 3.413 5.067 9 9 0 0 0 2.376 1.392 1.3 1.3 0 0 0 .507.492 4.7 4.7 0 0 0 2.977.33 1.2 1.2 0 0 0 .315-.113 16 16 0 0 0 2.494-1.695q-.187-6.183-.381-12.361c-3.092 2-8.6 5.125-10.2-2.363m3.934 42.661v9.63a27 27 0 0 1 2.044 1.734 2.9 2.9 0 0 0 2.966.566 4.1 4.1 0 0 1 2.84.051l-.33-10.907c-3.013 1.945-4.723-3.331-7.519-1.074m-.038 50.678c-.142-.716-.8-1.066-1.255-.565-.85.928-1.142 2.867-1.992 3.4-.479.365-.647.359-.979-.311-4.993-12.259-12.432-8.792-17.928-.014-.382.61-1.094.46-1.324-.28a11.8 11.8 0 0 0-6.13-7.044c-3.953-2.906-6.82 1.732-9.41 5.366-.439.614-1.227.354-1.361-.485a1.95 1.95 0 0 0-.534-1.152q-.254-.3-.523-.6.18 6.667.335 13.344c3.341 2.6 7.992-7.853 11.484-10.94.432-.381 1.01-.091 1.171.577a14.46 14.46 0 0 0 8.49 10.315.63.63 0 0 0 .674-.145c3.489-3.267 5.558-9.35 9.9-11.189a.667.667 0 0 1 .823.348c1.666 2.744 4.549 6.914 7.445 8.741a.6.6 0 0 0 .229.088c0 .01 0 .036.006.039 1.85 1.868 5.224 2.481 6.357.45 1.251-1.347 2.514-3.032 3.847-4.568q-.162-4.539-.317-9.083a27.2 27.2 0 0 0-6.464 5.282c-.354.363-1.315 0-2.542-1.576m-3.893-28.551c-.052-.242-.365-.134-.523-.273-5.522-4.8-9.453 6.1-14.476 9.62-.808.567-1.769-.085-1.949-1.3a11.3 11.3 0 0 0-.589-2.309c-1.644-4.373-5.753-5.8-8.875-3.353-5.316 4.157-9.109 2.918-11.837 1.02q.189 5.644.36 11.294c1.122.62 2.163 1.22 2.979 1.667 1.136.6 6.266-5.611 10.1-9.088.861-.781 2.036.026 2.074 1.439.13 4.718 1.92 8.407 5.56 10.469a1.454 1.454 0 0 0 1.974-.184c3.815-3.807 8.153-6.021 11.647-10.249.636-.768 1.644-.525 2.046.5a14 14 0 0 0 3.413 5.068 9 9 0 0 0 2.376 1.389 1.3 1.3 0 0 0 .507.493 4.72 4.72 0 0 0 2.977.329 1.1 1.1 0 0 0 .315-.113 37 37 0 0 0 4.431-3.2q-.2-6.014-.386-12.029c-1.474.447-10.06 8.485-12.127-1.191m3.931 42.665v9.63a27 27 0 0 1 2.044 1.736 2.9 2.9 0 0 0 2.966.565c1.951-.687 3.67.268 5.118 1.364q-.287-7.109-.552-14.229c-.074.023-.145.043-.219.074-4.251 6.109-6.038-1.816-9.355.861m11.588 45.971c-3.413.8-6.281 3.41-9.079 6.282-.354.363-1.316 0-2.542-1.575-.143-.717-.8-1.067-1.255-.566-.85.928-1.143 2.867-1.992 3.4-.479.365-.647.359-.98-.31-4.992-12.261-12.431-8.794-17.927-.015-.382.61-1.1.461-1.324-.278a11.8 11.8 0 0 0-6.13-7.044c-3.953-2.908-6.82 1.731-9.411 5.364a.676.676 0 0 1-1.162.014q.065 5.756.12 11.512c3.22.173 7.3-8.576 10.445-11.355.432-.381 1.01-.091 1.17.577a14.46 14.46 0 0 0 8.49 10.315.63.63 0 0 0 .674-.145c3.489-3.266 5.557-9.349 9.9-11.188a.665.665 0 0 1 .823.347c1.666 2.745 4.548 6.914 7.445 8.741a.7.7 0 0 0 .229.09l.006.038c1.85 1.868 5.223 2.48 6.357.449 2.056-2.214 4.145-5.343 6.526-7.215q-.193-3.717-.381-7.438m-2.238 17.958c-4.251 6.109-6.038-1.816-9.355.861v9.631a26 26 0 0 1 2.045 1.734 2.9 2.9 0 0 0 2.966.566c2.837-1 5.182 1.473 6.921 2.8a7.9 7.9 0 0 1 1.65 1.789q-.51-8.067-.97-16.157c-.96-.994-1.956-1.79-3.255-1.228m6.318 47.162a6.5 6.5 0 0 0-1.448-.552.7.7 0 0 0-.163-.022c-4.554-.149-8.108 2.99-11.558 6.532-.355.363-1.316 0-2.543-1.576-.142-.716-.8-1.066-1.253-.565-.85.928-1.143 2.867-1.993 3.4-.479.365-.647.359-.979-.31-4.992-12.261-12.432-8.794-17.928-.015-.382.61-1.094.46-1.324-.28a11.8 11.8 0 0 0-6.13-7.042c-3.953-2.908-6.819 1.731-9.41 5.364a.684.684 0 0 1-.766.307q.008 5.605.009 11.206c3.173-.326 7.109-8.646 10.159-11.342.432-.381 1.01-.091 1.171.577a14.45 14.45 0 0 0 8.49 10.315.63.63 0 0 0 .674-.145c3.488-3.266 5.557-9.35 9.9-11.188a.664.664 0 0 1 .823.347c1.666 2.745 4.549 6.914 7.445 8.741a.7.7 0 0 0 .229.09c0 .008 0 .034.007.039 1.849 1.867 5.223 2.48 6.357.449 2.553-2.748 5.155-6.913 8.308-8.324.48-.215.982.262 1.02.951a12.46 12.46 0 0 0 2 6.4q-.569-6.665-1.091-13.352m-.407 22.891a4.37 4.37 0 0 0-.86-2.233c-1.642-1.29-2.954-3.943-5.058-3.032-4.251 6.109-6.038-1.815-9.355.861v9.631a26 26 0 0 1 2.044 1.734 2.9 2.9 0 0 0 2.966.566c2.837-1 5.182 1.473 6.921 2.8 1.526.96 2.717 4.491 4.625 3.015a23 23 0 0 0 2.123-2.119q-.486-4.936-.942-9.886c-.861.972-2.253.317-2.463-1.342m7.241 45.341c-.357.5-.709 1-1.055 1.488-.439.615-1.226.355-1.36-.485a1.95 1.95 0 0 0-.535-1.152 11.06 11.06 0 0 0-5.333-3.847 1 1 0 0 0-.162-.022c-4.554-.149-8.109 2.99-11.559 6.532-.354.363-1.316 0-2.543-1.575-.142-.717-.794-1.067-1.253-.566-.85.928-1.143 2.867-1.992 3.4-.48.363-.648.359-.98-.311-4.992-12.259-12.431-8.792-17.927-.015-.382.611-1.1.461-1.324-.278a11.8 11.8 0 0 0-6.13-7.044c-3.954-2.908-6.82 1.732-9.411 5.364a.673.673 0 0 1-.853.273l-.04 11.247c3.2-.094 7.2-8.613 10.3-11.349.432-.381 1.01-.091 1.17.577a14.46 14.46 0 0 0 8.49 10.315.63.63 0 0 0 .674-.145c3.489-3.266 5.557-9.349 9.9-11.188a.67.67 0 0 1 .823.347c1.666 2.745 4.548 6.914 7.445 8.743a.7.7 0 0 0 .229.088c0 .008 0 .036.006.039 1.85 1.868 5.223 2.481 6.357.45 2.553-2.75 5.156-6.914 8.308-8.324.48-.215.982.262 1.02.951.22 3.9 1.706 6.887 4.33 8.845 1.4 1.439 3.064.352 4.782-1.626-.479-3.822-.943-7.418-1.37-10.731"/><path d="M177.059 519.209c-.791 1.546-2.518.932-2.753-.928a4.4 4.4 0 0 0-.86-2.233c-1.643-1.29-2.955-3.942-5.059-3.03-4.251 6.108-6.038-1.816-9.354.861v9.629a27 27 0 0 1 2.044 1.735 2.9 2.9 0 0 0 2.967.566c2.836-1 5.181 1.475 6.92 2.8 1.526.96 2.718 4.493 4.625 3.015a31.6 31.6 0 0 0 4.619-5.211 3.6 3.6 0 0 1 4.548-1.4c-.51-4.594-1.035-9.007-1.549-13.162-2.715.1-4.392 3.928-6.146 7.352M164.042 590.6c2.837-1 5.182 1.473 6.921 2.8 1.526.958 2.717 4.491 4.625 3.015a31.7 31.7 0 0 0 4.619-5.211c1.841-2.484 4.894-2.3 6.466.507a11.5 11.5 0 0 0 1.536 2.133c.166-4.451.223-8.965.2-13.5a42 42 0 0 0-4.125-3.562c-3.373-1.019-5.246 3.358-7.221 7.215-.791 1.545-2.518.932-2.753-.928a4.37 4.37 0 0 0-.86-2.233c-1.642-1.29-2.954-3.943-5.058-3.032-4.251 6.109-6.038-1.815-9.355.861v9.631a26 26 0 0 1 2.04 1.738 2.9 2.9 0 0 0 2.966.566m23.38 15.875c.064-.72.117-1.448.174-2.174-7.85 4.844-12.074-2.382-14.432-3.387a1.2 1.2 0 0 0-.247-.073 8.86 8.86 0 0 0-5.466 1.209c-.145-1.157-10.1 9.261-12.347-1.257-.052-.244-.365-.135-.523-.271-5.316-4.628-9.158 5.3-13.919 9.192 12.885-.858 25.8-1.682 38.861-2.7 2.635-.194 5.27-.38 7.9-.536M114.14 13.658a1.46 1.46 0 0 0 .938-.348 31.6 31.6 0 0 0 4.619-5.209c1.842-2.484 4.9-2.3 6.466.508 2.062 3.686 5.808 5.885 8.932 4.15a1.956 1.956 0 0 0 1.554-1.839 2.22 2.22 0 0 1 1.03-1.758 7.2 7.2 0 0 0 1.159-1.232 5.4 5.4 0 0 1 .675-.737 22.7 22.7 0 0 0-6.089-5.613c-1.311.829-2.923.274-3.8-1.44-5.537-.954-10.981 3.227-15.484 13.522m6.056 20.387c1.136.6 6.266-5.608 10.1-9.087.861-.782 2.036.026 2.074 1.439.13 4.718 1.921 8.407 5.56 10.468a1.45 1.45 0 0 0 1.974-.184c3.258-3.252 6.9-5.35 10.065-8.524q-1.56-4.6-3.287-8.514c-2.136 2.509-4.238 5.747-6.577 7.387-.808.567-1.769-.085-1.949-1.3a11.2 11.2 0 0 0-.589-2.309c-1.644-4.374-5.753-5.794-8.875-3.353-8.89 6.953-13.524-1.19-16.039-2.262a1 1 0 0 0-.143-.043 105 105 0 0 0-3.427 11.937c2.022-1.064 8.089 2.7 11.111 4.348m16.653 14.693c-.382.611-1.094.46-1.324-.278a11.8 11.8 0 0 0-6.13-7.044c-3.953-2.908-6.82 1.732-9.41 5.364-.439.614-1.227.355-1.361-.485a1.95 1.95 0 0 0-.535-1.152 11.06 11.06 0 0 0-5.333-3.847 1 1 0 0 0-.162-.022 10.55 10.55 0 0 0-6 1.766q-.829 5.525-1.481 11.826c2.195-2.62 4.479-5.813 7.163-7.015.481-.215.982.263 1.021.953.219 3.9 1.706 6.886 4.329 8.845 3.356 3.439 8.171-7.526 11.76-10.7.432-.383 1.01-.092 1.17.576a14.46 14.46 0 0 0 8.49 10.315.63.63 0 0 0 .674-.143c3.489-3.267 5.557-9.351 9.9-11.191a.67.67 0 0 1 .823.348 35.3 35.3 0 0 0 5.9 7.538c-.29-1.74-.593-3.454-.914-5.127-.254.106-.41-.025-.652-.516-4.992-12.259-12.431-8.791-17.927-.014"/><path d="M146.319 64.368a6.6 6.6 0 0 0-2.131-2.023c-3.938-4.669-7-1.313-9.739 2.971-1.461 2.281-4.09 1.753-5.076-.962-.767-2.111-2.445-3.328-5.6-5.889-3.373-1.017-5.247 3.359-7.221 7.215-.791 1.546-2.518.932-2.753-.927a4.36 4.36 0 0 0-.86-2.233c-1.643-1.291-2.954-3.943-5.058-3.032-1.34 1.925-2.434 2.455-3.41 2.364l-.031.359q-.4 5.006-.578 9.976c2.689-.708 4.922 1.616 6.594 2.9 1.526.96 2.717 4.493 4.625 3.015a31.6 31.6 0 0 0 4.618-5.21c1.842-2.485 4.9-2.3 6.467.507 2.061 3.686 5.807 5.885 8.931 4.15a1.96 1.96 0 0 0 1.555-1.839 2.22 2.22 0 0 1 1.029-1.758 7.2 7.2 0 0 0 1.159-1.232c2.006-2.646 5.186-2.44 6.935.529 1.679 2.85 3.89 4.787 6.007 2.821a15.1 15.1 0 0 1 5.469-4.464 26 26 0 0 0 1.194-1.132q-.455-4.678-1.054-9.1a55 55 0 0 0-4.825 4.067c-1.987 1.812-4.624 1.329-6.244-1.073m-42.22 33.635a36 36 0 0 1 4.87-3.463c1.912-1.257 8.148 2.619 11.223 4.3 1.136.6 6.267-5.608 10.1-9.086.862-.782 2.036.025 2.075 1.439.129 4.718 1.92 8.406 5.559 10.467a1.45 1.45 0 0 0 1.973-.191c3.814-3.806 8.153-6.019 11.646-10.246.636-.771 1.644-.525 2.047.5a14 14 0 0 0 3.413 5.068 9 9 0 0 0 2.375 1.392 1.3 1.3 0 0 0 .508.492 5 5 0 0 0 .517.19q-.35-5.838-.73-11.66c-1.977.11-3.772-.965-4.577-4.731-.051-.245-.364-.136-.522-.273-5.522-4.807-9.453 6.1-14.476 9.62-.809.566-1.769-.085-1.95-1.3a11 11 0 0 0-.589-2.308c-1.643-4.376-5.752-5.8-8.874-3.354-8.891 6.954-13.525-1.19-16.039-2.262a1.2 1.2 0 0 0-.248-.072 8.85 8.85 0 0 0-5.466 1.209c-.052-.424-1.418.7-3.238 1.782q.077 6.264.4 12.488m42.221 31.153a6.6 6.6 0 0 0-2.131-2.023c-3.938-4.669-7-1.313-9.739 2.971-1.461 2.281-4.09 1.753-5.076-.962-.767-2.109-2.445-3.328-5.6-5.889-3.373-1.017-5.247 3.359-7.221 7.215-.791 1.546-2.518.932-2.753-.927a4.36 4.36 0 0 0-.86-2.233c-1.643-1.291-2.954-3.943-5.058-3.032a7.8 7.8 0 0 1-1.544 1.722q.6 5.857 1.248 11.706a31 31 0 0 1 2.87 2.169c1.526.958 2.717 4.491 4.625 3.014a31.6 31.6 0 0 0 4.618-5.21c1.842-2.485 4.9-2.3 6.467.507 2.061 3.686 5.807 5.885 8.931 4.151a1.96 1.96 0 0 0 1.555-1.841 2.22 2.22 0 0 1 1.029-1.758 7.2 7.2 0 0 0 1.159-1.232c2.006-2.646 5.186-2.44 6.935.529 1.679 2.85 3.89 4.787 6.007 2.821a15.1 15.1 0 0 1 5.469-4.464c.536-.464 1.136-1.064 1.772-1.71v-9.565a38.2 38.2 0 0 0-6.457 5.114c-1.987 1.812-4.624 1.329-6.244-1.073m-.003 64.791a6.6 6.6 0 0 0-2.131-2.023c-3.938-4.669-7-1.314-9.739 2.971-1.461 2.281-4.09 1.753-5.076-.962-.767-2.111-2.445-3.328-5.6-5.889-3.373-1.019-5.247 3.359-7.221 7.215-.791 1.546-2.518.932-2.753-.927a4.36 4.36 0 0 0-.86-2.233 6 6 0 0 1-.4-.348q.532 8.042 1 16.109a1.31 1.31 0 0 0 1.539-.182 31.6 31.6 0 0 0 4.618-5.21c1.842-2.485 4.9-2.3 6.467.507 2.061 3.686 5.807 5.885 8.931 4.15a1.96 1.96 0 0 0 1.555-1.839 2.22 2.22 0 0 1 1.029-1.758 7.2 7.2 0 0 0 1.159-1.232c2.006-2.646 5.186-2.438 6.935.529 1.679 2.85 3.89 4.787 6.007 2.82a15.1 15.1 0 0 1 5.469-4.462c.536-.464 1.136-1.064 1.772-1.71v-9.565a38.2 38.2 0 0 0-6.457 5.114c-1.987 1.812-4.624 1.329-6.244-1.073m0 64.787a6.56 6.56 0 0 0-2.131-2.021c-3.938-4.67-7-1.313-9.739 2.97-1.461 2.281-4.09 1.753-5.076-.962-.767-2.109-2.445-3.328-5.6-5.889-3.373-1.017-5.247 3.359-7.221 7.215a1.8 1.8 0 0 1-.413.537q.208 5.237.4 10.482a39 39 0 0 0 3.158-3.81c1.842-2.484 4.9-2.3 6.467.507 2.061 3.686 5.807 5.885 8.931 4.151a1.96 1.96 0 0 0 1.555-1.841 2.22 2.22 0 0 1 1.029-1.758 7.2 7.2 0 0 0 1.159-1.232c2.006-2.646 5.186-2.438 6.935.529 1.679 2.85 3.89 4.787 6.007 2.821a15.1 15.1 0 0 1 5.469-4.464c.536-.464 1.136-1.064 1.772-1.71v-9.565a38 38 0 0 0-6.457 5.115c-1.987 1.811-4.624 1.327-6.244-1.074m-20.157 73.816c2.062 3.687 5.807 5.886 8.932 4.151a1.96 1.96 0 0 0 1.554-1.841 2.22 2.22 0 0 1 1.029-1.758 7.3 7.3 0 0 0 1.16-1.232c2.006-2.646 5.186-2.438 6.934.529 1.679 2.85 3.89 4.787 6.007 2.821a15.1 15.1 0 0 1 5.469-4.464c.537-.464 1.137-1.064 1.773-1.709v-9.561a38 38 0 0 0-6.457 5.115c-1.988 1.811-4.624 1.327-6.245-1.074a6.56 6.56 0 0 0-2.131-2.021c-3.937-4.67-7-1.314-9.739 2.97-1.461 2.281-4.09 1.753-5.076-.961-.766-2.111-2.445-3.329-5.6-5.89-2.543-.767-4.234 1.532-5.757 4.362q.131 5.952.245 11.911.734-.9 1.439-1.849c1.841-2.484 4.894-2.3 6.466.507m4.13 16.352c.862-.782 2.036.026 2.075 1.439.129 4.718 1.92 8.405 5.559 10.468a1.453 1.453 0 0 0 1.975-.184c3.814-3.807 8.153-6.021 11.646-10.248.636-.77 1.644-.525 2.047.5a14 14 0 0 0 3.413 5.067 9 9 0 0 0 2.375 1.392 1.3 1.3 0 0 0 .508.492 4.7 4.7 0 0 0 2.976.329 1.2 1.2 0 0 0 .316-.112c2.208-1.143 4.051-3.282 6.295-4.355a1.5 1.5 0 0 1 .569-.2q-.264-5.739-.508-11.484a15 15 0 0 0-2.091.876c-.145-1.156-10.1 9.261-12.347-1.257-.051-.244-.364-.136-.522-.273-5.522-4.805-9.453 6.1-14.476 9.62-.809.567-1.77-.085-1.95-1.3a11 11 0 0 0-.589-2.308c-1.643-4.374-5.752-5.8-8.874-3.353-4.337 3.392-7.66 3.187-10.219 1.967q.092 5.572.171 11.145c.568.321 1.1.62 1.549.867 1.136.6 6.267-5.609 10.1-9.087m-4.13 48.432c2.062 3.687 5.807 5.885 8.933 4.151a1.96 1.96 0 0 0 1.554-1.841 2.22 2.22 0 0 1 1.029-1.758 7.3 7.3 0 0 0 1.16-1.232c2.006-2.646 5.186-2.438 6.934.529 1.679 2.85 3.89 4.787 6.007 2.821a15.1 15.1 0 0 1 5.469-4.464c.537-.464 1.137-1.063 1.773-1.71v-9.565a38 38 0 0 0-6.457 5.115c-1.988 1.811-4.624 1.327-6.245-1.074a6.6 6.6 0 0 0-2.131-2.021c-3.937-4.67-7-1.313-9.739 2.97-1.461 2.281-4.09 1.753-5.076-.961-.766-2.111-2.445-3.328-5.6-5.89-2.029-.613-3.514.732-4.807 2.737q.056 6.258.1 12.518c.211-.277.426-.551.634-.832 1.841-2.484 4.894-2.3 6.466.507m4.129 16.355c.862-.782 2.036.026 2.075 1.439.129 4.718 1.92 8.405 5.559 10.468a1.453 1.453 0 0 0 1.975-.186c3.814-3.806 8.153-6.02 11.646-10.246.636-.77 1.644-.525 2.047.5a14 14 0 0 0 3.413 5.067 9 9 0 0 0 2.375 1.392 1.3 1.3 0 0 0 .508.492 4.7 4.7 0 0 0 2.976.329 1.2 1.2 0 0 0 .316-.112c2.208-1.143 4.051-3.282 6.295-4.355.838-.551 2.5-.116 4.372.687q-.458-6.334-.877-12.686c-.02 0-.039-.012-.059-.017a8.86 8.86 0 0 0-5.466 1.209c-.145-1.157-10.1 9.261-12.347-1.257-.051-.244-.364-.136-.522-.273-5.522-4.805-9.453 6.1-14.476 9.62-.809.567-1.77-.085-1.95-1.3a11 11 0 0 0-.589-2.308c-1.643-4.374-5.752-5.8-8.874-3.353-3.972 3.106-7.092 3.2-9.555 2.254q.026 5.58.045 11.162c.361.2.7.4 1.011.565 1.136.6 6.267-5.609 10.1-9.087m-4.132 48.43c2.062 3.687 5.807 5.886 8.933 4.151a1.96 1.96 0 0 0 1.554-1.841 2.22 2.22 0 0 1 1.029-1.758 7.3 7.3 0 0 0 1.16-1.232c2.006-2.646 5.186-2.438 6.934.529 1.679 2.85 3.89 4.787 6.007 2.821a15.1 15.1 0 0 1 5.469-4.464c.537-.463 1.137-1.064 1.773-1.709v-9.566a38 38 0 0 0-6.457 5.115c-1.988 1.812-4.624 1.327-6.245-1.074a6.56 6.56 0 0 0-2.131-2.021c-3.937-4.67-7-1.314-9.739 2.97-1.461 2.281-4.09 1.753-5.076-.961-.766-2.111-2.445-3.328-5.6-5.89-1.893-.57-3.312.556-4.544 2.336q0 6.357-.006 12.711c.158-.209.32-.413.476-.624 1.841-2.484 4.894-2.3 6.466.507m4.13 16.357c.862-.782 2.036.026 2.075 1.439.129 4.718 1.92 8.406 5.559 10.468a1.45 1.45 0 0 0 1.975-.184c3.814-3.807 8.153-6.019 11.646-10.248.636-.77 1.644-.525 2.047.5a14 14 0 0 0 3.413 5.067 9 9 0 0 0 2.375 1.392 1.3 1.3 0 0 0 .508.492 4.7 4.7 0 0 0 2.976.329 1.2 1.2 0 0 0 .316-.112c2.208-1.141 4.051-3.282 6.295-4.355 1.793-1.179 7.391 2.158 10.616 3.962a56 56 0 0 0-.1-.819q-.621-5.458-1.2-10.939c-2.591-1.3-4.383-3.61-5.642-4.147a1 1 0 0 0-.247-.073 8.86 8.86 0 0 0-5.466 1.209c-.144-1.157-10.1 9.261-12.347-1.257-.051-.244-.364-.136-.522-.273-5.522-4.805-9.453 6.1-14.476 9.62-.809.567-1.77-.085-1.95-1.3a11 11 0 0 0-.589-2.308c-1.643-4.374-5.752-5.794-8.874-3.353-3.939 3.08-7.041 3.2-9.494 2.277q-.012 5.568-.028 11.132c.366.207.715.4 1.024.571 1.136.6 6.267-5.609 10.1-9.087m34.191 96.009c2.553-2.749 5.156-6.913 8.308-8.324.48-.215.982.262 1.02.951.22 3.9 1.706 6.887 4.33 8.846 2.822 2.891 6.676-4.4 9.964-8.681q-.168-4.24-.411-8.45c-2.856-.213-5.117 3.344-7.2 6.262-.439.614-1.226.354-1.36-.485a1.95 1.95 0 0 0-.535-1.152 11.05 11.05 0 0 0-5.333-3.847.7.7 0 0 0-.162-.022c-4.554-.149-8.109 2.99-11.559 6.532-.354.363-1.316 0-2.542-1.576-.143-.716-.8-1.066-1.255-.564-.85.928-1.143 2.867-1.992 3.4-.479.365-.648.359-.98-.311-4.992-12.259-12.431-8.792-17.927-.014-.382.61-1.1.46-1.324-.28a11.8 11.8 0 0 0-6.13-7.044c-3.954-2.907-6.82 1.732-9.411 5.365a.67.67 0 0 1-1.1.087q-.02 5.717-.036 11.424c3.234.351 7.365-8.535 10.537-11.34.432-.381 1.01-.091 1.17.577a14.46 14.46 0 0 0 8.49 10.315.63.63 0 0 0 .674-.145c3.489-3.266 5.557-9.35 9.9-11.189a.667.667 0 0 1 .823.348c1.666 2.744 4.548 6.914 7.445 8.742a.6.6 0 0 0 .229.088.2.2 0 0 0 .006.04c1.85 1.867 5.223 2.48 6.357.449m-38.31-47.581c2.062 3.686 5.807 5.885 8.932 4.151a1.96 1.96 0 0 0 1.554-1.841 2.22 2.22 0 0 1 1.029-1.758 7.3 7.3 0 0 0 1.16-1.232c2.006-2.646 5.186-2.438 6.934.529 1.679 2.85 3.89 4.787 6.007 2.821a15.1 15.1 0 0 1 5.469-4.464c.537-.464 1.137-1.064 1.773-1.71v-9.565a38 38 0 0 0-6.457 5.115c-1.988 1.811-4.624 1.327-6.245-1.074a6.6 6.6 0 0 0-2.131-2.023c-3.937-4.669-7-1.312-9.739 2.971-1.461 2.281-4.09 1.753-5.076-.962-.766-2.109-2.445-3.328-5.6-5.889-1.969-.595-3.426.655-4.692 2.561l-.049 12.737c.223-.29.448-.578.668-.874 1.841-2.484 4.894-2.3 6.466.507m4.131 16.356c.862-.782 2.036.026 2.075 1.439.129 4.718 1.92 8.406 5.559 10.468a1.453 1.453 0 0 0 1.975-.186c3.814-3.806 8.153-6.019 11.646-10.246.636-.77 1.644-.525 2.047.5a14 14 0 0 0 3.413 5.067 9 9 0 0 0 2.375 1.392 1.3 1.3 0 0 0 .508.492 4.7 4.7 0 0 0 2.976.329 1.2 1.2 0 0 0 .316-.112c2.208-1.143 4.051-3.282 6.295-4.355 1.913-1.257 8.148 2.619 11.223 4.3.771.406 3.383-2.324 6.181-5.207q-.279-3.509-.593-6.942c-7.02 3.328-10.9-3.145-13.129-4.095a1.2 1.2 0 0 0-.247-.072 8.85 8.85 0 0 0-5.466 1.209c-.145-1.156-10.1 9.261-12.347-1.257-.051-.245-.364-.136-.522-.273-5.522-4.805-9.453 6.1-14.476 9.62-.809.567-1.77-.085-1.95-1.3a11 11 0 0 0-.589-2.308c-1.643-4.374-5.752-5.8-8.874-3.353-4.059 3.175-7.229 3.2-9.717 2.189q-.023 5.545-.043 11.086c.458.259.884.5 1.262.7 1.136.6 6.267-5.609 10.1-9.087"/><path d="M126.164 591.714c2.062 3.687 5.807 5.886 8.932 4.151a1.96 1.96 0 0 0 1.554-1.841 2.22 2.22 0 0 1 1.029-1.758 7.3 7.3 0 0 0 1.16-1.232c2.006-2.646 5.186-2.438 6.934.529 1.679 2.85 3.89 4.787 6.007 2.821a15.1 15.1 0 0 1 5.469-4.464c.537-.463 1.137-1.064 1.773-1.709v-9.566a38 38 0 0 0-6.457 5.115c-1.988 1.811-4.624 1.327-6.245-1.074a6.6 6.6 0 0 0-2.131-2.021c-3.937-4.67-7-1.313-9.739 2.97-1.461 2.281-4.09 1.754-5.076-.961-.766-2.111-2.445-3.328-5.6-5.89-2.1-.632-3.61.818-4.931 2.928q-.018 6.334-.03 12.657.449-.574.888-1.162c1.841-2.484 4.894-2.3 6.466.507m11.991 17.125a11.2 11.2 0 0 0-.589-2.308c-1.644-4.376-5.753-5.8-8.875-3.353-4.159 3.252-7.387 3.2-9.9 2.115q0 2.978-.006 5.955c2.968-.224 5.934-.427 8.9-.636.9-.91 1.783-1.79 2.612-2.54.861-.782 2.036.026 2.074 1.439q.012.386.038.763 3.084-.213 6.172-.419a2.1 2.1 0 0 1-.424-1.016"/></g></g><g opacity=".12" style="mix-blend-mode:multiply;isolation:isolate" transform="rotate(157.98 431.138 300.218)"><g clip-path="url(#e)"><path fill="#adecd1" d="M1048.013 443.136c45.736-59.768 55.52-149.221 31.323-209.744s-76.765-93.93-133.81-101.682-118.533 7.571-178.483 29.012C551.935 237.671 340.82 398.265 182.315 618.881c-40.363 56.186-77.976 117.479-99.214 184.853s-24.13 142.028 3.089 192.828c35.13 65.587 108.971 77.494 186.021 89.441-25.784 16.856-40.4 57.651-35.912 88.92 9.6 66.809 72.694 73.377 126.645 64.817 179.818-28.544 357.027-160.419 513.347-312.313 82.132-79.808 161.671-167.4 223.955-271.232 40.933-68.23 78.428-165.4 35-219.483-20.032-24.933-59.064-26.6-87.237 6.424"/></g><g fill="#adecd1" clip-path="url(#f)" transform="translate(80.171 145.282)"><path d="M-44.806 658.882s542.89 67.447 510.915-608.753"/><path d="M-70.67 926.477s476.593 146.1 779.143-945.056"/><path d="M84.167 1193.581s317.528 4.333 558.762-534.049 257.993-793.365 257.993-793.365m147.789 322.839s-61.253 464.066-481.959 820.444"/></g></g><g opacity=".46" style="mix-blend-mode:soft-light;isolation:isolate" transform="rotate(157.98 763.814 852.96)"><g clip-path="url(#g)"><path fill="#adecd1" d="M1254.044 530.254c54.727-71.518 66.435-178.556 37.481-250.978s-91.852-112.396-160.115-121.673-141.836 9.064-213.572 34.716c-257.4 92.077-510.015 284.242-699.681 548.232-48.298 67.23-93.306 140.573-118.719 221.192s-28.877 169.949 3.7 230.737c42.037 78.481 130.394 92.728 222.592 107.024-30.853 20.169-48.347 68.984-42.972 106.4 11.485 79.943 86.985 87.8 151.543 77.56 215.169-34.155 427.21-191.956 614.267-373.711 98.278-95.5 193.455-200.311 267.982-324.555 48.98-81.644 93.846-197.918 41.885-262.632-23.97-29.835-70.676-31.831-104.387 7.687"/></g><g fill="#adecd1" clip-path="url(#h)" transform="translate(95.932 173.843)"><path d="M-53.614 788.416s649.618 80.7 611.359-728.433"/><path d="M-84.564 1108.616S485.725 1283.435 847.754-22.231"/><path d="M100.714 1428.231s379.951 5.185 668.611-639.039c288.645-644.207 308.712-949.336 308.712-949.336m176.844 386.304s-73.295 555.3-576.709 981.741"/></g></g></g></g></svg>