<svg xmlns="http://www.w3.org/2000/svg" width="1328" height="405.5" viewBox="0 0 1328 405.5"><defs><clipPath id="a"><path fill="#fff" stroke="#707070" d="M0 0h1328v405.5H0z"/></clipPath><clipPath id="b"><path fill="#fff" d="m-44.273 1027.141 1234.638-48.856 44.273-1027.14L0 0Z"/></clipPath><clipPath id="c"><path fill="#fff" d="M661.423 813.8C429.3 781.045 213.816 678.2 66.51 517.869 29 477.025-4.644 431.56-18.913 378.659s-6.713-114.519 31.435-160.672c49.245-59.584 134.47-80.166 223.341-101.256-26.706-10.269-37.341-42.056-27.73-68.677 20.536-56.9 92.857-71.5 152.633-72.2 199.217-2.344 380.519 81.539 535.317 185.101 81.323 54.409 158.587 115.661 213.981 192.906 36.4 50.749 64.721 126.062 7.774 177.278-26.268 23.629-70.653 30.67-97.73 7.313 43.065 43.032 41.18 115.936 5.033 169.729s-100.412 89.165-166.066 103.873a415.7 415.7 0 0 1-74.452 9.428c-41.4 1.654-82.8-1.98-123.2-7.681"/></clipPath><clipPath id="d"><path fill="#fff" d="m61.176 1044.663 1244.954 35.165-31.866-1017.791L29.309 26.872Z"/></clipPath><clipPath id="e"><path fill="#fff" d="M751.154 871.892c-237.2-48.293-462.787-165.11-623.723-334.443-40.979-43.135-78.4-90.6-96.776-144.142S15.322 279.041 50.457 235.76c45.356-55.877 130.008-70.552 218.311-85.486-27.775-12.017-40.9-44.328-33.168-70.133 16.523-55.155 88.572-64.761 148.971-61.409 201.3 11.184 390.908 106.842 555.184 220.261 86.3 59.587 169.01 125.7 230.794 206.224 40.594 52.9 74.859 129.671 21.09 176.71-24.8 21.7-69.164 25.69-98.289.641 46.762 45.687 50.3 118.012 17.754 169.022s-94.894 81.8-160.193 91.97a410 410 0 0 1-74.591 4.321c-41.742-1.163-83.886-7.583-125.166-15.988"/></clipPath></defs><g clip-path="url(#a)"><g transform="translate(-578.311 -412.257)"><path fill="#f6f6f6" d="M597.426 1057.058h1289.77c10.557 0 19.115-10.819 19.115-24.164V436.422c0-13.345-8.558-24.164-19.115-24.164H597.426c-10.557 0-19.115 10.819-19.115 24.164v596.471c0 13.346 8.558 24.165 19.115 24.165"/><g opacity=".49" style="isolation:isolate" transform="rotate(202 1212.09 468.666)"><g clip-path="url(#b)"><path fill="#fff" d="M1079 614.217c43.064 43.032 41.168 115.937 5.033 169.729S983.61 873.112 917.968 887.819s-132.958 10.882-197.653 1.757C488.192 856.81 272.692 753.965 125.402 593.634c-37.51-40.833-71.166-86.309-85.423-139.21s-6.714-114.508 31.434-160.659c49.234-59.584 134.47-80.176 223.341-101.267-26.718-10.269-37.341-42.045-27.73-68.676 20.536-56.9 92.846-71.5 152.622-72.2 199.23-2.34 380.531 81.553 535.318 185.105 81.323 54.409 158.587 115.661 213.981 192.906 36.407 50.759 64.732 126.061 7.785 177.288-26.268 23.618-70.653 30.66-97.729 7.3"/></g><g fill="#fff" clip-path="url(#c)" transform="translate(58.892 75.766)"><path d="M-72.838 385.219s623.755-134.703 489.614 431.758"/><path d="M-63.315 166.633S496.859-23.811 680.923 838.946"/><path d="M150.502-77.73s359.737-49.609 554.551 362.757 176.821 621.794 176.821 621.794m213.922-289.649s-2.032-376.699-426.193-611.84"/></g></g><ellipse cx="334.677" cy="296.672" fill="#e8e8e8" opacity=".37" rx="334.677" ry="296.672" style="mix-blend-mode:multiply;isolation:isolate" transform="translate(597.588 652.46)"/><ellipse cx="334.899" cy="297.345" fill="#fff" opacity=".65" rx="334.899" ry="297.345" transform="translate(262.5 240.215)"/><ellipse cx="334.899" cy="297.345" fill="#fff" opacity=".65" rx="334.899" ry="297.345" transform="translate(1475.939 620.35)"/><g opacity=".3" style="isolation:isolate" transform="rotate(165 706.314 725.33)"><g clip-path="url(#d)"><path fill="#fff" d="M1166.343 710.46c46.763 45.686 50.285 118.012 17.754 169.022s-94.907 81.8-160.193 91.97-133.649 1.8-199.756-11.657c-237.2-48.3-462.8-165.121-623.723-334.453-40.978-43.124-78.41-90.6-96.776-144.142S88.315 366.944 123.45 323.663c45.345-55.877 130.008-70.563 218.311-85.5-27.786-12.017-40.9-44.318-33.168-70.133 16.523-55.155 88.561-64.762 148.96-61.409 201.308 11.185 390.92 106.853 555.183 220.261 86.3 59.587 169.01 125.7 230.795 206.224 40.606 52.914 74.87 129.672 21.1 176.72-24.8 21.691-69.165 25.68-98.29.631"/></g><g fill="#fff" clip-path="url(#e)" transform="translate(72.993 87.893)"><path d="M-23.39 396.17s620.758-91.574 527.366 462.291"/><path d="M-30.071 179.579s552.3-151.282 802.821 718.625"/><path d="M167.932-48.774s360.1-24.91 587.89 398.119 225.216 629.939 225.216 629.939m194.728-273.352s-30.165-374.508-476.665-636.958"/></g></g><g transform="translate(349.815)"><path fill="#e8e8e8" d="M758.516 315.66a1188 1188 0 0 1-27.43-26.412.5.5 0 0 1-.002-.707.5.5 0 0 1 .708-.002 1180 1180 0 0 0 44.394 41.915 1087 1087 0 0 0 44.335 37.632 1013 1013 0 0 0 44.183 33.544 943 943 0 0 0 43.948 29.646 889 889 0 0 0 43.624 25.946 844 844 0 0 0 43.208 22.434 811 811 0 0 0 42.706 19.122 785 785 0 0 0 42.115 16.001 763 763 0 0 0 41.438 13.072 755 755 0 0 0 40.672 10.344 742 742 0 0 0 78.681 13.257 743 743 0 0 0 74.545 4.64 756 756 0 0 0 69.713-2.414 772 772 0 0 0 64.165-7.93 787 787 0 0 0 57.909-11.896 778 778 0 0 0 94.215-29.493 709 709 0 0 0 34.887-14.503c8.981-4.025 17.659-8.154 25.792-12.275 13.841-7.012 21.39-11.62 21.466-11.667a.5.5 0 0 1 .688.166.5.5 0 0 1-.165.687c-.074.046-7.66 4.676-21.537 11.706-8.147 4.128-16.84 8.264-25.835 12.294a711 711 0 0 1-34.935 14.524 779 779 0 0 1-94.335 29.534 788 788 0 0 1-57.983 11.91 776 776 0 0 1-64.248 7.94 758 758 0 0 1-69.803 2.42 744 744 0 0 1-74.652-4.653 743 743 0 0 1-78.79-13.275 750 750 0 0 1-40.722-10.355 765 765 0 0 1-41.49-13.091 785 785 0 0 1-42.17-16.021 812 812 0 0 1-42.759-19.145 847 847 0 0 1-43.26-22.463 890 890 0 0 1-43.672-25.974 945 945 0 0 1-43.995-29.678 1011 1011 0 0 1-44.23-33.575 1088 1088 0 0 1-44.374-37.667q-8.499-7.606-17.005-15.538m649.834 542.595a.5.5 0 0 1-.155-.282c-.012-.074-1.205-7.506-2.026-19.43a336 336 0 0 1-.779-21.28c-.042-8.9.27-17.762.933-26.34 1.691-21.85 5.619-42.013 11.683-59.932a173 173 0 0 1 13.09-29.611 138.7 138.7 0 0 1 19.495-26.72 125.5 125.5 0 0 1 23.736-19.757 134.8 134.8 0 0 1 30.575-14.433 172.2 172.2 0 0 1 38.22-7.693 250 250 0 0 1 46.674.45.5.5 0 0 1 .448.546.5.5 0 0 1-.545.449 249 249 0 0 0-46.482-.447 171.2 171.2 0 0 0-37.993 7.642 133.8 133.8 0 0 0-30.354 14.326 124.5 124.5 0 0 0-23.547 19.598 137.7 137.7 0 0 0-19.35 26.522 172 172 0 0 0-13.013 29.432c-6.036 17.838-9.95 37.914-11.632 59.672a324 324 0 0 0-.932 26.259c.03 7.1.293 14.24.772 21.221.818 11.887 2.005 19.29 2.017 19.362a.5.5 0 0 1-.838.45Zm-848.044 495.929a.5.5 0 0 1-.047-.683c27.892-34.162 47.052-63.193 58.584-88.743a184 184 0 0 0 7.19-18.39 139 139 0 0 0 4.477-17.216 112.5 112.5 0 0 0 1.901-16.217 100 100 0 0 0-.537-15.396 99 99 0 0 0-2.845-14.756 109 109 0 0 0-5.02-14.296 150.4 150.4 0 0 0-16.061-27.922 294 294 0 0 0-23.214-28.17c-7.85-8.535-17.166-18.002-29.32-29.794a154 154 0 0 1-10.77-11.546 132 132 0 0 1-8.565-11.406 119.3 119.3 0 0 1-11.755-22.382c-5.856-14.714-8.322-29.063-10.71-42.939-4.026-23.422-7.828-45.546-27.183-66.678a121 121 0 0 0-17.693-15.666A191 191 0 0 0 443.7 896.69a327 327 0 0 0-33.873-14.917c-13.127-4.985-27.993-9.874-44.19-14.535a704 704 0 0 0-73.694-17.147 540 540 0 0 0-62.525-7.29c-33.662-1.856-65.024.047-93.21 5.65a259 259 0 0 0-31.505 8.27 196 196 0 0 0-21.995 8.794c-11.452 5.455-17.047 9.788-17.1 9.833a.5.5 0 0 1-.702-.086.5.5 0 0 1 .086-.702c.056-.043 5.705-4.422 17.225-9.916a196 196 0 0 1 22.093-8.855 260 260 0 0 1 31.62-8.314c28.267-5.624 59.716-7.537 93.474-5.684a541 541 0 0 1 62.67 7.301 705 705 0 0 1 73.842 17.18c16.224 4.67 31.114 9.565 44.269 14.561a328 328 0 0 1 33.978 14.965 192 192 0 0 1 25.174 15.38 122 122 0 0 1 17.84 15.796 92.5 92.5 0 0 1 11.968 16.22 95.3 95.3 0 0 1 7.573 16.617c3.907 11.194 5.84 22.442 7.887 34.35 2.377 13.827 4.834 28.124 10.652 42.742a118.3 118.3 0 0 0 11.657 22.196 131 131 0 0 0 8.5 11.32 153 153 0 0 0 10.698 11.47c12.168 11.806 21.496 21.286 29.357 29.838a295 295 0 0 1 23.294 28.258 151.4 151.4 0 0 1 16.163 28.105 110 110 0 0 1 5.064 14.43 100 100 0 0 1 2.873 14.906 101 101 0 0 1 .543 15.547 113.6 113.6 0 0 1-1.917 16.362 140 140 0 0 1-4.51 17.34 185 185 0 0 1-7.228 18.49c-11.568 25.631-30.777 54.731-58.721 88.965a.5.5 0 0 1-.704.071Z"/><path fill="#e8e8e8" d="M303.329 1164.542a.5.5 0 0 1 .331-.866c.07-.001 7.05-.135 17.91-1.033a404 404 0 0 0 42.265-5.734c18.844-3.639 35.468-8.474 49.405-14.377a133.4 133.4 0 0 0 21.994-11.643 80.5 80.5 0 0 0 17.323-15.244 58.4 58.4 0 0 0 6.5-9.577 52.2 52.2 0 0 0 4.339-10.763 53.7 53.7 0 0 0 1.881-12.031 64.2 64.2 0 0 0-.886-13.39 51 51 0 0 0-5.464-15.815 62 62 0 0 0-10.24-13.703 90 90 0 0 0-14.339-11.75 138 138 0 0 0-17.73-9.934c-22.663-10.712-53.147-18.952-90.606-24.492-14.725-2.177-30.574-3.937-47.107-5.233a871 871 0 0 0-40.706-2.2c-23.465-.724-39.246-.275-39.401-.27a.5.5 0 0 1-.517-.482.5.5 0 0 1 .482-.517c.157-.004 15.959-.454 39.45.27a866 866 0 0 1 40.752 2.202c16.562 1.301 32.437 3.062 47.183 5.244 37.56 5.554 68.14 13.822 90.893 24.576a139 139 0 0 1 17.861 10.007 91 91 0 0 1 14.495 11.875 63 63 0 0 1 10.406 13.926 52 52 0 0 1 5.578 16.127 65.2 65.2 0 0 1 .898 13.6 54.7 54.7 0 0 1-1.916 12.257 53.2 53.2 0 0 1-4.422 10.97 59.4 59.4 0 0 1-6.61 9.74 81.5 81.5 0 0 1-17.54 15.437 134.4 134.4 0 0 1-22.165 11.736c-14.006 5.929-30.698 10.787-49.617 14.44a402 402 0 0 1-42.37 5.748c-10.887.9-17.89 1.035-17.96 1.036a.5.5 0 0 1-.35-.137m690.646-747.809a216.5 216.5 0 0 1-26.62-29.883 224 224 0 0 1-16.36-25.737 238 238 0 0 1-13.336-29.1.5.5 0 0 1 .29-.644.5.5 0 0 1 .644.289 237 237 0 0 0 13.283 28.979 223 223 0 0 0 16.285 25.621 215.5 215.5 0 0 0 40.091 41.402 224.3 224.3 0 0 0 47.645 28.658 241.6 241.6 0 0 0 52.223 16.36 252.2 252.2 0 0 0 57.304 4.402 242.7 242.7 0 0 0 55.513-8.504c36.752-10.165 68.303-28.671 91.25-53.523a.5.5 0 0 1 .707-.024.5.5 0 0 1 .025.706c-23.073 24.99-54.79 43.596-91.72 53.809a243.7 243.7 0 0 1-55.743 8.537 253.2 253.2 0 0 1-57.528-4.422 242.6 242.6 0 0 1-52.442-16.43 225.3 225.3 0 0 1-47.857-28.786q-7.072-5.572-13.654-11.71"/><path fill="none" d="M844.799 888.612c-25.388-37.189-33.294-84.459-11.962-120.057s75.34-54.151 113.436-42.848c-49.02-22.201-98.451-44.634-142.017-74.987s-81.402-69.635-98.483-115.3-10.493-98.019 24.837-130.354c41.013-37.53 108.73-41.165 170.57-38.616 180.49 7.444 363.107 49.987 527.916 127.65 52.354 24.672 106.835 56.93 127.169 105.612 19.435 46.526 1.186 97.94-35.144 131.21s-87.961 50.838-140.412 60.851-106.932 13.306-158.852 19.807c22.282 17.323 44.802 34.875 62.112 56.09s29.146 46.807 26.828 71.567c-2.766 29.553-25.688 54.138-54.664 67.545s-63.361 16.929-97.285 16.535a488.1 488.1 0 0 1-204.985-48.532c-24.736-11.977-48.656-26.352-69.345-43.46-15.344-12.688-28.907-26.877-39.719-42.714"/></g></g></g></svg>