<svg xmlns="http://www.w3.org/2000/svg" width="1328" height="445" viewBox="0 0 1328 445"><defs><clipPath id="a"><path fill="#fff" stroke="#707070" d="M0 0h1328v445H0z"/></clipPath><clipPath id="b"><path fill="#fff" d="m-10.127 1111.656 1249.862-11.175 10.127-1111.656L0 0Z"/></clipPath><clipPath id="c"><path fill="#fff" d="M707.487 912.9C471.079 869.546 249.173 750.8 94.429 572.058c-39.4-45.533-75.047-95.944-91.3-153.758s-10.68-124.336 26.428-173.063c47.9-62.908 133.6-82.329 222.968-102.179-27.419-12.033-39.274-46.841-30.433-75.366C240.983 6.722 313.8-6.654 374.368-5.4 576.231-1.19 762.849 95.851 923.266 213.322c84.276 61.717 164.668 130.712 223.433 216.3 38.61 56.23 69.871 138.808 13.878 192.386-25.828 24.719-70.581 30.848-98.818 4.619 45.109 48.093 45.666 127.038 10.845 184.113s-98.769 93.234-164.822 106.952a386.5 386.5 0 0 1-75.151 7.7c-41.908.392-84-4.948-125.144-12.493"/></clipPath><clipPath id="d"><path fill="#fff" d="m12.491 1115.034 1252.222 8.043-7.29-1109.517L5.2 5.516Z"/></clipPath><clipPath id="e"><path fill="#fff" d="M727.193 925.976C489.625 879.07 265.407 757.13 107.545 576.326c-40.2-46.057-76.7-96.926-93.9-154.886S1 297.162 37.415 249.092c47.013-62.06 132.575-80.131 221.817-98.572-27.663-12.432-40.089-47.361-31.677-75.7 17.974-60.57 90.727-72.8 151.439-70.618 202.338 7.3 390.857 107.033 553.442 226.759 85.414 62.9 167.052 133.008 227.278 219.346 39.571 56.723 72.19 139.634 16.924 192.256-25.493 24.278-70.241 29.709-98.946 3.093 45.955 48.7 47.75 127.513 13.754 183.951s-97.506 91.551-163.478 104.23a385.3 385.3 0 0 1-75.183 6.53c-41.986-.252-84.249-6.229-125.594-14.393"/></clipPath></defs><g clip-path="url(#a)"><g transform="translate(-549.497 -485.93)"><path fill="#f6f6f6" d="M568.612 1193.541h1289.77c10.557 0 19.115-11.872 19.115-26.518V512.449c0-14.646-8.558-26.518-19.115-26.518H568.612c-10.557 0-19.115 11.872-19.115 26.518v654.574c0 14.645 8.558 26.518 19.115 26.518"/><g opacity=".49" style="isolation:isolate" transform="rotate(202 1213.79 554.329)"><g clip-path="url(#b)"><path fill="#fff" d="M1114.531 702.159c45.109 48.093 45.654 127.038 10.845 184.113s-98.78 93.234-164.822 106.952-134.408 7.3-200.3-4.783c-236.403-43.363-458.32-162.11-613.053-340.852-39.4-45.521-75.058-95.944-91.3-153.758s-10.68-124.325 26.428-173.052c47.891-62.908 133.6-82.34 222.968-102.191-27.43-12.033-39.274-46.83-30.433-75.366 18.891-60.968 91.696-74.344 152.265-73.091 201.874 4.21 388.492 101.262 548.898 218.723 84.275 61.716 164.668 130.712 223.432 216.3 38.622 56.241 69.882 138.808 13.89 192.4-25.828 24.707-70.581 30.837-98.818 4.608"/></g><g fill="#fff" clip-path="url(#c)" transform="translate(52.772 75.531)"><path d="M-51.311 423.585s627.725-124.879 510.915 484.48"/><path d="M-49.054 187.016S512.335-.423 728.104 940.809"/><path d="M159.419-70.575s362.976-41.592 574.405 411.9 200.275 679.842 200.275 679.842m207.045-306.662s-14.805-408.317-452.719-677.5"/></g></g><ellipse cx="334.677" cy="325.572" fill="#e8e8e8" opacity=".37" rx="334.677" ry="325.572" style="mix-blend-mode:multiply;isolation:isolate" transform="translate(568.775 749.531)"/><ellipse cx="334.899" cy="326.309" fill="#fff" opacity=".65" rx="334.899" ry="326.309" transform="translate(233.687 297.129)"/><ellipse cx="334.899" cy="326.309" fill="#fff" opacity=".65" rx="334.899" ry="326.309" transform="translate(1447.125 714.293)"/><g opacity=".3" style="isolation:isolate" transform="rotate(165 668.384 790.743)"><g clip-path="url(#d)"><path fill="#fff" d="M1133.006 723.542c45.955 48.7 47.739 127.513 13.754 183.951s-97.518 91.551-163.478 104.23-134.565 5.218-200.776-7.851c-237.568-46.917-461.793-168.857-619.648-349.661-40.195-46.046-76.715-96.926-93.897-154.886s-12.648-124.266 23.768-172.34c47-62.06 132.575-80.142 221.817-98.583-27.675-12.433-40.089-47.349-31.677-75.7 17.974-60.566 90.716-72.8 151.427-70.617 202.349 7.3 390.868 107.044 553.442 226.759 85.414 62.9 167.052 133.008 227.279 219.346 39.583 56.734 72.2 139.634 16.936 192.267-25.493 24.267-70.241 29.7-98.947 3.082"/></g><g fill="#fff" clip-path="url(#e)" transform="translate(55.314 77.885)"><path d="M-40.819 425.879s627.039-115.014 519.55 491.463"/><path d="M-42.269 189.768S517.318 11.286 748.289 954.154"/><path d="M162.587-64.162s363.06-35.943 582.031 419.985 211.345 681.709 211.345 681.709m202.655-302.94s-21.239-407.81-464.264-683.24"/></g></g><g transform="translate(342.796)"><path fill="#e8e8e8" d="M775.336 417.639a1146 1146 0 0 1-21.633-20.71c-14.894-14.638-29.844-30.128-44.431-46.037a.5.5 0 0 1 .031-.707.5.5 0 0 1 .707.031q32.302 35.23 65.7 66.375c89.315 83.286 184.117 144.303 282.783 181.89 98.583 37.555 201.205 51.923 305.016 42.706a715.5 715.5 0 0 0 122.069-21.754 728 728 0 0 0 94.216-32.362 675 675 0 0 0 34.89-15.916c8.984-4.417 17.665-8.95 25.8-13.472 13.853-7.7 21.417-12.767 21.492-12.817a.5.5 0 0 1 .694.136.5.5 0 0 1-.135.693c-.075.051-7.659 5.134-21.538 12.847-8.147 4.53-16.84 9.069-25.836 13.493a676 676 0 0 1-34.936 15.938 729 729 0 0 1-94.34 32.412 728 728 0 0 1-57.985 13.072 709 709 0 0 1-64.252 8.714 690 690 0 0 1-69.814 2.654 679 679 0 0 1-74.654-5.104 680 680 0 0 1-38.924-5.996 687 687 0 0 1-39.869-8.572 698 698 0 0 1-40.725-11.365 716 716 0 0 1-41.492-14.367 742 742 0 0 1-42.17-17.584 784 784 0 0 1-42.761-21.006 823 823 0 0 1-43.261-24.652 878 878 0 0 1-43.672-28.503 944 944 0 0 1-43.995-32.57c-14.808-11.634-29.687-24.03-44.23-36.845a1098 1098 0 0 1-22.745-20.622m611.221 557.697a.5.5 0 0 1-.154-.293c-.012-.085-1.27-8.685-2.092-22.406a403 403 0 0 1-.714-24.436c.01-10.199.41-20.33 1.191-30.108 1.987-24.899 6.417-47.704 13.166-67.784a190 190 0 0 1 14.519-32.95 145.5 145.5 0 0 1 21.512-29.163 127 127 0 0 1 23.593-19.314 132.2 132.2 0 0 1 29.756-13.916 163.3 163.3 0 0 1 36.587-7.227 231 231 0 0 1 44.085.735.5.5 0 0 1 .444.55.5.5 0 0 1-.55.444c-57.36-6.135-102.17 7.127-133.192 39.423-34.8 36.227-45.813 90.301-48.928 129.286a398.5 398.5 0 0 0-.474 54.404c.819 13.677 2.07 22.235 2.084 22.317a.5.5 0 0 1-.836.44Zm-848.044 544.236a.5.5 0 0 1-.062-.666c54.253-72.937 76.344-125.74 71.627-171.213-2.16-20.85-9.77-40.732-23.936-62.558a318 318 0 0 0-23.22-30.92c-7.848-9.37-17.167-19.756-29.32-32.698a164 164 0 0 1-10.767-12.669 144 144 0 0 1-8.565-12.516 135.7 135.7 0 0 1-11.748-24.55c-5.853-16.139-8.32-31.882-10.704-47.107-4.028-25.716-7.832-50.005-27.197-73.21-21.762-26.072-60.147-47.14-120.789-66.29-48.297-15.252-94.126-24.274-136.212-26.816-33.657-2.03-65.016.05-93.195 6.194a241 241 0 0 0-31.5 9.076 186 186 0 0 0-21.99 9.651c-11.45 5.986-17.045 10.741-17.1 10.788a.5.5 0 0 1-.704-.054.5.5 0 0 1 .054-.704c.056-.048 5.704-4.854 17.227-10.883a187 187 0 0 1 22.094-9.704 241.5 241.5 0 0 1 31.627-9.123c28.274-6.177 59.725-8.272 93.487-6.238a495 495 0 0 1 62.673 8.011 653 653 0 0 1 73.84 18.849c16.224 5.123 31.12 10.5 44.271 15.98a314 314 0 0 1 33.98 16.423 189.6 189.6 0 0 1 25.173 16.874 126.5 126.5 0 0 1 17.836 17.334 101.5 101.5 0 0 1 11.968 17.787 109.6 109.6 0 0 1 7.567 18.223c3.905 12.278 5.837 24.618 7.883 37.683 4.814 30.741 9.795 62.528 41.522 96.31 12.166 12.954 21.495 23.358 29.358 32.74a319 319 0 0 1 23.292 31.018 171 171 0 0 1 16.157 30.831 129 129 0 0 1 5.063 15.823 119 119 0 0 1 2.868 16.348 121 121 0 0 1 .543 17.05 136 136 0 0 1-1.916 17.943 166 166 0 0 1-4.506 19.018 215 215 0 0 1-7.226 20.284c-11.566 28.122-30.772 60.053-58.713 97.618a.5.5 0 0 1-.7.102z"/><path fill="#e8e8e8" d="M281.534 1311.46a.5.5 0 0 1 .331-.866c.067 0 6.781-.142 17.277-1.078a372 372 0 0 0 41.017-5.958c28.843-5.93 67.576-18.172 88.307-42.815 12.505-14.865 17.26-32.746 14.128-53.14-2.171-14.17-9.271-26.875-21.187-37.986a119.3 119.3 0 0 0-26.597-18.24c-22.66-11.754-53.14-20.796-90.595-26.874-33.347-5.411-66.16-7.424-87.81-8.153-23.462-.793-39.243-.303-39.4-.297a.5.5 0 0 1-.517-.482.5.5 0 0 1 .482-.517c.157-.006 15.96-.498 39.453.296a793 793 0 0 1 40.756 2.416c16.56 1.421 32.434 3.355 47.183 5.747 37.563 6.096 68.15 15.168 90.903 26.975a136 136 0 0 1 17.863 10.982 93.5 93.5 0 0 1 14.495 13.036 69 69 0 0 1 10.397 15.272 60.8 60.8 0 0 1 5.565 17.67 77.7 77.7 0 0 1 .851 15.942 64.6 64.6 0 0 1-2.369 14.254 62 62 0 0 1-5.198 12.637 68 68 0 0 1-7.638 11.107 89.6 89.6 0 0 1-17.99 16 138.4 138.4 0 0 1-22.164 12.17c-13.895 6.151-30.292 11.192-48.733 14.983a373 373 0 0 1-41.129 5.973c-10.524.937-17.263 1.078-17.33 1.08a.5.5 0 0 1-.35-.134m698.092-813.381a230 230 0 0 1-33.098-38.626 249 249 0 0 1-16.925-28.86 274 274 0 0 1-13.748-32.756.5.5 0 0 1 .309-.637.5.5 0 0 1 .636.31c13.875 40.069 35.733 73.98 63.767 100.124 30.627 28.56 68.622 47.857 111.676 55.827 75.657 14.006 153.43-11.276 198.136-64.411a.5.5 0 0 1 .705-.061.5.5 0 0 1 .06.705 181 181 0 0 1-40.16 35.276 202.7 202.7 0 0 1-48.792 22.912 223 223 0 0 1-54.082 10.004 231.3 231.3 0 0 1-56.043-3.447 228 228 0 0 1-54.187-17.21 222.4 222.4 0 0 1-49.598-31.483q-4.418-3.715-8.656-7.667"/><path fill="none" d="M823.005 1008.684c-25.387-40.81-33.294-92.685-11.96-131.75s75.34-59.426 113.434-47.02c-49.02-24.364-98.45-48.983-142.016-82.291s-81.401-76.418-98.483-126.532-10.493-107.567 24.835-143.054c41.009-41.19 108.73-45.175 170.57-42.377 180.491 8.169 363.108 54.857 527.917 140.083 52.355 27.077 106.836 62.477 127.172 115.897 19.436 51.058 1.185 107.484-35.144 143.993s-87.96 55.79-140.412 66.778-106.933 14.606-158.856 21.738c22.282 19.01 44.803 38.272 62.114 61.553s29.145 51.368 26.828 78.54c-2.763 32.435-25.687 59.411-54.663 74.125s-63.362 18.578-97.285 18.145c-70.007-.899-141.295-19.421-204.987-53.26-24.736-13.142-48.656-28.918-69.345-47.693a222 222 0 0 1-39.719-46.875"/></g></g></g></svg>