<svg xmlns="http://www.w3.org/2000/svg" width="1328" height="477" viewBox="0 0 1328 477"><defs><clipPath id="a"><path fill="#fff" stroke="#707070" d="M0 0h1328v477H0z"/></clipPath><clipPath id="b"><path fill="#fff" d="m17.536 1180.125 1262.2 19.351L1262.2 19.352 0 0Z"/></clipPath><clipPath id="c"><path fill="#fff" d="M657.962 940.35C418.085 888.414 190.975 756.787 30.2 563.127-10.732 513.8-48 459.377-65.857 397.584S-79.75 265.3-43.485 214.483C3.33 148.882 89.4 130.4 179.181 111.556c-28-13.461-40.841-50.717-32.623-80.785 17.559-64.267 90.776-76.651 151.988-73.8 204 9.507 394.93 117.208 559.9 245.948 86.668 67.637 169.594 142.905 231.09 235.252 40.4 60.67 74.043 149.134 18.823 204.626-25.471 25.6-70.523 30.992-99.7 2.436 46.765 52.193 49.3 136.032 15.553 195.765S926.775 937.527 860.4 950.444a367 367 0 0 1-75.717 6.3c-42.321-.63-84.973-7.351-126.719-16.391"/></clipPath><clipPath id="d"><path fill="#fff" d="m268.4 1376.852 1258.109-13.929L1539.133 179.1 281.024 193.024Z"/></clipPath><clipPath id="e"><path fill="#fff" d="M807.878 1035.482C570.009 989.7 346.9 863.609 191.531 673.513c-39.561-48.424-75.331-102.05-91.565-163.59s-10.478-132.388 26.98-184.338C175.3 258.516 261.6 237.695 351.6 216.411c-27.573-12.769-39.43-49.817-30.469-80.208 19.149-64.957 92.473-79.32 153.438-78.078 203.181 4.151 390.816 107.187 552.032 232.023 84.695 65.586 165.465 138.929 224.43 229.977 38.742 59.817 70.027 147.7 13.55 204.851-26.052 26.365-71.114 32.965-99.478 5.079 45.3 51.141 45.688 135.21 10.513 196.046s-99.616 99.446-166.136 114.161a369 369 0 0 1-75.662 8.32c-42.184.485-84.543-5.132-125.94-13.1"/></clipPath></defs><g clip-path="url(#a)"><g transform="translate(-864.452 -479.897)"><path fill="#f6f6f6" d="M883.567 1238.392h1289.77c10.557 0 19.115-12.726 19.115-28.425V508.323c0-15.699-8.558-28.425-19.115-28.425H883.567c-10.557 0-19.115 12.726-19.115 28.425v701.644c0 15.699 8.558 28.425 19.115 28.425"/><g opacity=".49" style="isolation:isolate" transform="rotate(202 1377.93 557.99)"><g clip-path="url(#b)"><path fill="#fff" d="M1143.315 773.403c46.765 52.192 49.287 136.032 15.553 195.766s-97.448 96.53-163.809 109.447-135.582 4.389-202.436-10.082c-239.882-51.948-467.004-183.575-627.764-377.235-40.935-49.319-78.21-103.75-96.06-165.543S54.906 393.479 91.171 342.67c46.803-65.6 132.888-84.1 222.666-102.942-28.008-13.458-40.841-50.706-32.623-80.785 17.559-64.267 90.764-76.651 151.976-73.8 204.016 9.507 394.942 117.22 559.9 245.948 86.667 67.636 169.594 142.905 231.089 235.252 40.416 60.682 74.054 149.134 18.836 204.638-25.472 25.59-70.524 30.981-99.7 2.425"/></g><g fill="#fff" clip-path="url(#c)" transform="translate(134.657 128.172)"><path d="M-120.711 401.836s630.94-116.92 528.171 527.191"/><path d="M-124.344 150.699s562.372-185 803.828 819.8"/><path d="M79.799-117.609s365.6-35.1 590.489 451.706 219.276 726.876 219.276 726.876m201.476-320.455S1065.888 306.595 616.831 9.834"/></g></g><ellipse cx="334.677" cy="348.983" fill="#e8e8e8" opacity=".37" rx="334.677" ry="348.983" style="mix-blend-mode:multiply;isolation:isolate" transform="translate(883.729 762.454)"/><ellipse cx="334.899" cy="349.774" fill="#fff" opacity=".65" rx="334.899" ry="349.774" transform="translate(548.641 277.52)"/><ellipse cx="334.899" cy="349.774" fill="#fff" opacity=".65" rx="334.899" ry="349.774" transform="translate(1762.08 724.682)"/><g opacity=".3" style="isolation:isolate" transform="rotate(165 972.285 916.136)"><g clip-path="url(#d)"><path fill="#fff" d="M1401.353 938.949c45.3 51.141 45.677 135.21 10.513 196.046s-99.634 99.446-166.14 114.162-135.307 7.987-201.6-4.769c-237.87-45.792-460.988-171.884-616.348-361.981-39.561-48.412-75.342-102.05-91.565-163.59s-10.478-132.376 26.98-184.321c48.344-67.074 134.654-87.907 224.654-109.19-27.58-12.77-39.426-49.81-30.464-80.21 19.149-64.957 92.461-79.32 153.426-78.078 203.193 4.151 390.827 107.2 552.031 232.023 84.695 65.585 165.466 138.929 224.43 229.977 38.753 59.829 70.039 147.7 13.561 204.863-26.052 26.353-71.114 32.953-99.479 5.067"/></g><g fill="#fff" clip-path="url(#e)" transform="translate(236.247 208.895)"><path d="M45.156 515.639s632.127-134 513.217 515.1"/><path d="M47.945 263.711s565.487-200.516 780.624 801.46"/><path d="M258.352-10.938s365.455-44.881 577.284 437.7 200.107 723.648 200.107 723.648m209.078-326.908s-14.01-434.791-454.217-720.735"/></g></g><g transform="translate(418.106 185.753)"><path fill="#e8e8e8" d="M1042.76 247.748q-2.53-2.36-5.05-4.738c-14.865-14.044-29.795-28.95-44.373-44.307-14.895-15.69-29.844-32.293-44.43-49.347a.5.5 0 0 1 .054-.705.5.5 0 0 1 .705.055 1204 1204 0 0 0 93.564 98.052c81.086 75.613 166.456 131.937 254.922 168.062 98.578 40.255 201.194 55.654 304.999 45.773a672.3 672.3 0 0 0 122.061-23.307 696 696 0 0 0 94.213-34.689 655 655 0 0 0 34.89-17.059c8.985-4.734 17.665-9.592 25.8-14.44 13.85-8.255 21.416-13.685 21.487-13.735a.5.5 0 0 1 .698.113.5.5 0 0 1-.113.698c-.075.055-7.661 5.502-21.538 13.772-8.147 4.855-16.84 9.722-25.838 14.464a656 656 0 0 1-34.938 17.085 697 697 0 0 1-94.34 34.745 687 687 0 0 1-57.992 14.015 665 665 0 0 1-64.255 9.341 644 644 0 0 1-69.804 2.835 634 634 0 0 1-74.661-5.471 638 638 0 0 1-38.926-6.426 647 647 0 0 1-39.87-9.19 662 662 0 0 1-40.727-12.181 685 685 0 0 1-41.494-15.401 714 714 0 0 1-42.174-18.85 757 757 0 0 1-42.76-22.522 810 810 0 0 1-43.262-26.423 875 875 0 0 1-43.672-30.554c-14.72-10.976-29.523-22.722-43.995-34.91a1042 1042 0 0 1-39.18-34.755m583.439 570.97a.5.5 0 0 1-.153-.297c-.013-.095-1.318-9.667-2.139-24.874a461 461 0 0 1-.663-27.043c.053-11.27.52-22.442 1.392-33.205 2.22-27.405 7.036-52.362 14.314-74.176a203 203 0 0 1 15.614-35.61 161 161 0 0 1 10.514-16.26 141 141 0 0 1 12.542-14.78 127.6 127.6 0 0 1 23.402-18.917 129.8 129.8 0 0 1 29.09-13.484 156.7 156.7 0 0 1 35.35-6.86 217.5 217.5 0 0 1 42.191.953.5.5 0 0 1 .44.554.5.5 0 0 1-.55.444c-54.932-6.301-98.403 6.488-129.208 38.007-37.262 38.125-49.226 97.289-52.702 140.21a456 456 0 0 0-.728 60.114c.818 15.165 2.118 24.696 2.13 24.79a.5.5 0 0 1-.836.435Zm-848.044 583.373a.5.5 0 0 1-.07-.65c54.262-78.192 76.352-134.81 71.636-183.565-2.163-22.363-9.77-43.678-23.942-67.085a340 340 0 0 0-23.226-33.143c-7.85-10.04-17.168-21.179-29.322-35.05a173 173 0 0 1-10.762-13.581 156 156 0 0 1-8.555-13.407 150 150 0 0 1-11.745-26.305c-5.85-17.295-8.316-34.167-10.701-50.484-4.03-27.572-7.838-53.619-27.207-78.498-21.767-27.956-60.149-50.539-120.792-71.067-48.297-16.348-94.126-26.022-136.209-28.747-33.658-2.179-65.01.056-93.186 6.64a228 228 0 0 0-31.5 9.732 180 180 0 0 0-21.989 10.341c-11.45 6.414-17.043 11.513-17.098 11.564a.5.5 0 0 1-.707-.03.5.5 0 0 1 .03-.707c.055-.05 5.704-5.202 17.227-11.666a180.5 180.5 0 0 1 22.096-10.402 229 229 0 0 1 31.63-9.786c28.274-6.618 59.731-8.868 93.496-6.688a464 464 0 0 1 62.68 8.59 618 618 0 0 1 73.846 20.21c16.224 5.492 31.12 11.255 44.273 17.13a306 306 0 0 1 33.981 17.604 189.3 189.3 0 0 1 25.171 18.088 131 131 0 0 1 17.835 18.578 109.6 109.6 0 0 1 11.962 19.061 122.3 122.3 0 0 1 7.566 19.522c3.903 13.156 5.836 26.381 7.881 40.383 4.816 32.959 9.797 67.042 41.53 103.265 12.167 13.886 21.499 25.04 29.354 35.09a341 341 0 0 1 23.29 33.245 188 188 0 0 1 16.153 33.04 146 146 0 0 1 5.06 16.954 136 136 0 0 1 2.879 17.515 139 139 0 0 1 .542 18.267 156 156 0 0 1-1.918 19.22 189 189 0 0 1-4.507 20.376c-1.946 7.002-4.377 14.316-7.224 21.737-11.563 30.141-30.769 64.364-58.708 104.627a.5.5 0 0 1-.696.125z"/><path fill="#e8e8e8" d="M521.18 1179.012a.5.5 0 0 1 .33-.866c.064-.001 6.573-.147 16.787-1.108a350 350 0 0 0 40.042-6.115c28.254-6.083 66.43-18.631 87.863-43.886 13.927-16.411 19.325-36.377 16.039-59.338-2.316-16.176-10.212-30.58-23.562-43.028a123 123 0 0 0-24.24-17.271c-22.658-12.6-53.14-22.29-90.594-28.803-33.348-5.8-66.156-7.953-87.813-8.733-23.458-.85-39.227-.322-39.384-.317a.5.5 0 0 1-.517-.483.5.5 0 0 1 .483-.517c.156-.005 15.96-.534 39.454.318 13.798.5 27.51 1.372 40.756 2.591 16.564 1.519 32.44 3.592 47.19 6.157 37.565 6.533 68.152 16.262 90.91 28.916a135 135 0 0 1 17.863 11.772 96 96 0 0 1 14.491 13.972 74.3 74.3 0 0 1 10.394 16.362 68.5 68.5 0 0 1 5.559 18.924 88.5 88.5 0 0 1 .798 17.943 73 73 0 0 1-2.744 15.93 69.2 69.2 0 0 1-5.844 14.022 75 75 0 0 1-8.48 12.229 96 96 0 0 1-18.29 16.387 141.5 141.5 0 0 1-22.127 12.471c-13.793 6.305-29.947 11.474-48.014 15.362a351 351 0 0 1-40.157 6.13c-10.244.963-16.778 1.11-16.843 1.112a.5.5 0 0 1-.35-.133m703.793-866.368a240.6 240.6 0 0 1-38.12-45.843 271 271 0 0 1-17.319-31.392 305 305 0 0 1-14.035-35.715.5.5 0 0 1 .321-.63.5.5 0 0 1 .63.322c14.846 45.956 38.704 84.265 69.45 112.937a215.33 215.33 0 0 0 110.11 55.02c75.318 13.434 149.657-13.318 194.005-69.819a.5.5 0 0 1 .702-.084.5.5 0 0 1 .085.702 185.5 185.5 0 0 1-39.327 37.23 196.5 196.5 0 0 1-47.71 24.477 209.2 209.2 0 0 1-52.931 11.169 216 216 0 0 1-55-2.692 217 217 0 0 1-55.381-17.801 220.6 220.6 0 0 1-50.805-33.643q-2.363-2.082-4.675-4.238"/><path fill="none" d="M1062.65 854.49c-25.387-43.744-33.294-99.35-11.963-141.225s75.34-63.7 113.434-50.4c-49.02-26.117-98.449-52.508-142.015-88.212s-81.403-81.914-98.483-135.63-10.492-115.303 24.835-153.337c41.01-44.15 108.734-48.421 170.57-45.425a1214.7 1214.7 0 0 1 527.918 150.156c52.354 29.023 106.836 66.968 127.168 124.234 19.437 54.73 1.187 115.211-35.144 154.347s-87.96 59.801-140.416 71.577-106.931 15.652-158.852 23.298c22.282 20.378 44.803 41.025 62.112 65.98s29.146 55.06 26.829 84.188c-2.766 34.763-25.687 63.683-54.664 79.455s-63.36 19.913-97.285 19.45c-70.006-.963-141.292-20.815-204.985-57.089-24.737-14.088-48.657-30.998-69.343-51.126a234.8 234.8 0 0 1-39.719-50.246"/></g></g></g></svg>