<svg xmlns="http://www.w3.org/2000/svg" width="45.801" height="66.424" viewBox="0 0 45.801 66.424"><defs><clipPath id="a"><path fill="none" d="M0 0h45.801v48.667H0z"/></clipPath><clipPath id="b"><path fill="#adecd1" d="M0 0h27.924v29.749H0z"/></clipPath></defs><g transform="translate(9060 10731)"><g fill="#5d82a9" clip-path="url(#a)" transform="translate(-9060 -10731)"><path d="M9.711 46.61a.15.15 0 0 0-.014.079zm17.81-42.289c.141.046.106-.229.052-.314a.29.29 0 0 0-.052.314m7.063 15.373a.99.99 0 0 0-.121-1.027 1.13 1.13 0 0 0 .121 1.027m-24.393-1.093v.073l.029-.037Zm9.053 4.771c.049-.27-.226-.316-.31-.052a.161.161 0 1 0 .31.052m-.352 2.775.038-.076-.069-.127c-.063.074-.006.134.03.2m-.224-1.005.044-.053-.028-.066zm-3.94-9.849.04-.038-.04-.038Zm12.888-2.121v-.673l-.047-.032a7 7 0 0 0 .015.74zM10.95 15.726l-.027.062.043.017Zm24.406 7.345a8.2 8.2 0 0 0-.622-2.889 6.36 6.36 0 0 0 .622 2.889M2.094 46.08a.42.42 0 0 0-.042.367zm-.225 1.237a2.6 2.6 0 0 0-.384 1.2c-.016.251.157-.038.26 0-.09-.363.135-.717.124-1.2m38.71-14.622-.026.051.039.017ZM2.387 44.388a.285.285 0 0 0 .026.323c.076-.077.117-.344-.026-.323m-.269 1.61c.115-.114.209-.232.1-.412-.141.118-.081.275-.1.412m42.645-29.951a1.75 1.75 0 0 0-.157.766l.162-.762-.005.006zm-23.531 9.941a.31.31 0 0 0 .036.32c.062-.083.1-.338-.036-.32m23.155-8.328c-.2.395-.485.778-.185 1.24l.008-.007c0-.19-.021-.385.174-.511v-.026l.015-.017v-.679h-.01m.185-.71v-.017c-.2.209-.128.485-.194.727l.013-.018v.018h.175v-.015h.015v-.716Z"/><path d="M44.758 16.048s0-.01.008-.014 0 .012 0 .018c.209-.193.068-.559.364-.71v-.022q.002-.017.01-.035l-.069-.417a1.9 1.9 0 0 0-.3 1.179M25.275 47.019c-.011.192-.053.348.106.49-.055-.151.127-.329-.106-.49m-.113-.715c.143-.182.023-.307-.079-.435-.011.148-.1.308.079.435m1.74-29.366a.265.265 0 0 0 0 .352Zm13.64 18.005h.058V33.53l-.058.023ZM35.893 1.31a58 58 0 0 0-.048 5.45h.186c-.373 6.675.477 13.333 1.016 19.977.365-6.013-.641-11.97-.539-17.974a4.8 4.8 0 0 0-.291-2h.186c-.1-1.8-.071-3.612-.006-5.422l-.5-.028m4.965 5.447h.372c.062.047.124.075.186 0-.033-1.715-.039-3.43-.078-5.144l-.349-.02c.018 1.722 0 3.443-.13 5.164m-20.255 0h.557c-.041-2.055.066-4.115-.034-6.169l-.3-.013c-.14 2.06-.248 4.118-.223 6.181m2.787.002a17.4 17.4 0 0 0-.08-3.634c-.249 1.188-.15 2.418-.291 3.634Zm2.23-.001h.185V5.473c-.226.422-.034.867-.185 1.287m17.652 0h.372c-.1-.481-.2-.241-.372 0M28.534.93l-.162-.008q.076 1.223.143 2.442.023-1.218.02-2.434m-2.813 3.142c-.012.206-.116.4.02.6a.8.8 0 0 0-.02-.6m-2.384-1.71c.016-.015.01-.052.013-.079-.057-.273-.18.2-.013.079M23.305.983l-.023.052h.048Zm20.203 2.6a.82.82 0 0 0 .029-.7c-.128.278-.266.456-.029.7m.066-1.416c-.057-.023-.068.023-.058.072q.096.035.058-.072M19.528 33.881a33.3 33.3 0 0 0-.491-6.28 1.81 1.81 0 0 1 .307-1.491 68 68 0 0 1 .605 9.985c.128-4 .033-7.994-.179-11.99a3 3 0 0 0 .432 1.468 13 13 0 0 0-.165-3.389 24.5 24.5 0 0 0-.068-5.046c-.132-1.74-.671-3.408-.859-5.141a40 40 0 0 1 .01-5.238h-.186a.115.115 0 0 1-.186 0c.137-2.071.168-4.164.2-6.259l-.574-.021c-.123 2.093-.146 4.2-.182 6.281h.186a113 113 0 0 0 .786 15.813c-.82-3.008-.854-6.183-1.668-9.219a13.8 13.8 0 0 1-.291-5.461 1.9 1.9 0 0 0-.128-1.137h-.372a3.78 3.78 0 0 0 .221-2.68 20 20 0 0 1-.134-3.659l-.613-.024a39.5 39.5 0 0 0-.215 6.367h.186c-.414 2.613.153 5.2.046 7.8-.894-2.6-.615-5.209-.6-7.8h-.372c.634-.828.313-1.791.292-2.663-.029-1.248-.108-2.49-.087-3.73L13.89.312V6.76h.028l-.028.026v3.155a.88.88 0 0 1 .01.948l.014-.012v.338l-.014-.012c.541 2.125.513 4.469 1.391 6.552.89 1.118.633 2.716 1.71 3.752 1.152 4.033 2.236 8.123 1.989 12.358a43.7 43.7 0 0 1-1.676 14.4l1.186-.033q.021-.097.046-.193c1.206-4.626 1-9.413.979-14.154m-4.798-18.592v-.075l.04.038Zm3.94 9.85.016-.119.028.066Zm.224 1.009c-.036-.069-.094-.129-.03-.2l.069.127-.038.076m.043-2.829c.085-.263.359-.217.31.052a.161.161 0 1 1-.31-.052"/><path d="m16.225 48.288.446-.011a26.7 26.7 0 0 0 .61-6.086c-.129-3.21.262-6.456-.22-9.641-.407 3.838.312 7.735-.2 11.6-.219 1.388-.423 2.768-.635 4.142m-1.452.033c.318-7.175.2-14.4-.157-21.566-.05 7.2-.274 14.393-.546 21.583l.7-.018M45.525 24.42a137.7 137.7 0 0 0-.274 22.95l.55-.02v-2.19c-.245-6.908-.461-13.816-.277-20.741m-.765-8.371v.009l.005-.005v-.018c0-.006 0 .009-.008.014"/><path d="M43.201 33.067a45 45 0 0 1 .435-7.8c-1.49 5.178-.846 10.621-.944 15.932a61 61 0 0 0 .343 6.2c-2.384-3.755-1.109-10.4-1.384-14.824a24.2 24.2 0 0 1 .94-7.311.61.61 0 0 0-.073-.667 2.1 2.1 0 0 1 .207-.7l.009.01v-.026l-.014.01c.279-.423.679-.827.251-1.37.433-1.2.435-2.531 1.223-3.618l.015.008v-.022l-.008.007c-.3-.462-.014-.845.185-1.24h.01v-.018l-.013.018c.066-.242 0-.517.194-.727v.017l.008-.023v.717l.181-.01a5.7 5.7 0 0 0 .362-2.292c-.3.151-.155.516-.364.71l-.162.762a1.75 1.75 0 0 1 .157-.766 1.9 1.9 0 0 1 .3-1.179l.069.417a20.7 20.7 0 0 0 .666-4.126V6.207a9.8 9.8 0 0 1 0-2.278V1.923c0-.015-.006-.03-.008-.045l-.868-.052c.09 1.652.467 3.277.4 4.934h.186c.234.512-.2.959-.154 1.45a17.7 17.7 0 0 1-.159 5.162c-.092-.124.082-.35-.173-.389-.5 3.356-1.8 6.508-2.65 9.777.27-2.738.916-5.419 1.05-8.163-1.1 5.367-1.846 10.787-2.854 16.177.125-7.823 1.161-15.621.9-23.6-.52.368-.4.725-.407 1.029.134 4.4-.3 8.788-.451 13.184.006 5-.573 10.2-.369 15.115.559.451.412 1.013.4 1.551a31.3 31.3 0 0 0 .968 9.448l2.273-.083c-1.207-4.685-.511-9.561-.682-14.354m-2.618-.369.013.068-.04-.017Zm.021 2.245h-.058v-1.39l.058-.023ZM26.838 47.816c-.031-.312-.493-.5-.273-.882l-.013-.008c.034-.875-.537-1.6-.63-2.466a30 30 0 0 1-.417-3.973c.064-2.667.213-5.335.054-8-.269-3.158.468-6.253.811-9.364-2.267 7.3-1.175 15.209-1.3 22.708-1.378-2.185-.877-5.337-1.413-7.84-.162-1.084.333-2.09.316-3.167-.067-4.113.066-8.212 1.474-12.163l.006.016v-.041l-.014.012a1.1 1.1 0 0 1 .19-.712l.011.022v-.038l-.013.012c-.069-.662.425-1.161.552-1.767l.015.012.005-.038-.015.018c-.407-.792.4-1.282.556-1.955 1.165-1 1-4.637 1.388-6.218a20.5 20.5 0 0 0 .02-4.088 1.57 1.57 0 0 1 .26-1.13h.186c-.074-.14.061-.451-.163-.419-.449.065-.387-.249-.354-.419.113-.593-.052-1.177.006-1.771a15.4 15.4 0 0 0-.076-3.253l-.641-.031c0 .342 0 .686-.023 1.031a7.5 7.5 0 0 0 .1 2.663 6.4 6.4 0 0 1 .226 2.194c.517.654-.323.87-.154 1.567.342 4.61-1.255 8.984-2.512 13.349-.283-1.768.536-3.453.442-5.221-1.137 3.156-.875 6.729-1.874 9.949-.378.645-.256 1.42-.613 2.084-.227-7.049 1.05-14.063.442-21.112-.218 7.544-1 15.071-.738 22.635l.235-.89v5.888l-.19.008-.111-1.788a8.1 8.1 0 0 0-.083 2.655c.7.188.407.739.453 1.133a13 13 0 0 1 .011 1.515c.084 2.117-.3 4.783.382 6.626.07-.112-.012-.283.226-.4a8.2 8.2 0 0 0 .515 3.314l2.755-.081-.018-.175m.684-43.496a.29.29 0 0 1 .052-.314c.055.085.089.36-.052.314m.046 8.143.048.032v.673l-.032.035a6 6 0 0 1-.016-.74m-.666 4.474v.352a.266.266 0 0 1 0-.352m-1.74 29.37c-.174-.127-.09-.287-.079-.435.1.128.222.252.079.435m.22 1.2c-.16-.141-.118-.3-.106-.49.233.161.051.339.106.49m14.054.074c.181-13.613.281-27.236-.246-40.822q.027-2.631.062-5.264l-1.015-.057q.008 2.661.024 5.321c.1 13.62 0 27.243-.027 40.864l1.2-.041m-5.23.178c.073-.563.131-1.127.164-1.694a45 45 0 0 0-.41 1.7l.245-.008m1.328-29.33c.036-.646.2-1.468-.5-2.023a.86.86 0 0 1-.222-.484c-.806-2.778-.633-5.64-.661-8.493a1.06 1.06 0 0 1 .214-.669h-.374c.066-1.853.063-3.7.131-5.545l-.411-.022a31.4 31.4 0 0 0-.088 5.567 20 20 0 0 1 .123 3.188 48 48 0 0 0 .553 7.544c.014.112.042.232-.127.33-.447-.563-.374-1.283-.607-1.907-1.073-2.612-.87-5.426-.988-8.132-.4-.51-.121-.772.3-1.024h-.557c0-1.869.016-3.757.164-5.632l-.991-.051a1.4 1.4 0 0 0 .034.852c-.943.77.612 2.416-.508 4.831h.557c.3 3.417-.16 7.057 1.151 10.289a32 32 0 0 0 1.665 4.323 9.1 9.1 0 0 1 .911 3.61l-.014-.015v.015h.01a21 21 0 0 1 .767 5.748c.093 3.144.557 6.279.186 9.432a29.8 29.8 0 0 1-1.3 7.574l1.009-.034c1.14-3.278.763-8.548.955-11.639.508-5.933-1.613-11.708-1.373-17.634m-.954 1.265a1.13 1.13 0 0 1-.121-1.027.99.99 0 0 1 .121 1.027m.149.487a8.2 8.2 0 0 1 .622 2.889 6.35 6.35 0 0 1-.622-2.889M21.352 6.76h-.187v.321l.186-.321"/><path d="M26 6.76h-.186c.023.167.161.226.186 0m17.834 0h-.186c-.085.265.268.266.186 0m-16.351 0h-.186c.014.147.165.17.186 0m17.652 0h.186m-.192 8.583.014-.008q-.002-.024-.008-.049c0 .012-.006.023-.01.035s0 .015 0 .022m-1.465 9.804-.011.01c0 .036-.009.072-.013.109l.027-.1v-.021"/><path d="M43.762 24.481a.95.95 0 0 0-.1.666c.2-.173.168-.373.1-.666m.81-6.818h.014v-.016h-.015zm-.172.68a.82.82 0 0 0 .172-.679h-.175v.679m-.115 3.15c-.068.057 0 .164.012.234l.063-.137c0-.08-.024-.119-.075-.1m-.07-2.598a.6.6 0 0 0 .174-.511c-.2.126-.177.321-.174.511"/><path d="m44.385 18.381.015-.011v-.032l-.015.017c-.005.005 0 .017 0 .026m-.694 2.279c.084.083.122-.063.056-.118a.085.085 0 0 0-.056.118m.446 2.121c0-.052.023-.092-.052-.085 0 .053-.024.092.052.085m-.243 1.053.053.011-.016-.083Zm-1.105.331c.084-.11.007-.18-.053-.255-.006.088-.041.182.053.255m1.991-6.485a.15.15 0 0 0 .041.092zm-.016-.036.016.036v-.047h-.011Zm-16.724 4.82c-1.314 8.4-1.067 16.973-.526 25.508l.587-.017c-.126-2.4-.257-4.8-.354-7.21.007-6.1-.056-12.193.293-18.28m1.806 4.478c-.289 6.993-.363 13.98-.278 20.965l.5-.016c.006-6.986 0-13.971-.222-20.949m2.359 14.154a688 688 0 0 0-.479 6.743l.4-.013a66 66 0 0 0 .075-6.731m-.073-8.936a26.5 26.5 0 0 0-.039 4.968 15.3 15.3 0 0 0 .039-4.968m-.008-.044q-.002.022.008.043-.002-.015.006-.031Zm-4.055-10.469v.628a.62.62 0 0 0 0-.628m0 .627-.013.037q-.002.075-.008.152l.021-.14Zm-1.672.724-.013.029c0 .03-.007.06-.01.091l.023-.078Zm0-.703v.7a.69.69 0 0 0 0-.7m.394-1.869a1.06 1.06 0 0 0-.059.576c.174-.169.284-.344.059-.576m-.075.649.016-.043c.005-.014 0-.016 0-.023l-.012.011v.055"/><path d="M26.649 21.674c.121-.2.055-.406.063-.6-.076.188-.214.371-.063.6m7.785 23.265c-.029.1-.062.2.022.3.075-.07.1-.315-.022-.3m-10.587-7.668.041-.059-.039-.06c-.046.043-.047.075 0 .119M35.09 24.96v.026h.022l-.008-.015-.012-.01M35 24.678a.25.25 0 0 0 .088.281c.009-.093.05-.194-.088-.281m.572 2.24.06-.04c.033-.187-.187-.077-.06.04m-9.928-4.966v.334a.255.255 0 0 0 0-.334m6.472 16.202c.2-.231-.078-.251 0 0"/><path d="M35.28 24.982h-.173c.06.11.119.185.173 0m-9.061-4.967-.016.119c.039-.032.115-.056.016-.119m-.765 2.657a.13.13 0 0 0 .039.1zm6.644 15.546.025-.044q.002-.01-.007-.02l-.007.009zm0 0a.15.15 0 0 0-.017.081zm.022-6.102.013.012M20.744 8.269c-.1 6.642.18 13.281.185 19.921h.191c.083-.358-.064-.747.191-1.188.034 2.912.113 5.725.107 8.542.226-9.369.052-19.04-.271-28.42-.59-.084-.333.781-.4 1.146m.487 17.718c.135-.018.1.237.036.32a.31.31 0 0 1-.036-.32m-.086-18.864h.016V7.08l-.017.029v.013m4.593 6.409a11.7 11.7 0 0 0-.285 2.847 6.6 6.6 0 0 0 .285-2.847m-.286 2.849c0 .011-.007.022-.01.033s0 .028 0 .042l.011-.032zm.427-5.361h.058V7.826h-.058Zm-3.644 24.642v-.88l-.07-.009v.9l.07-.009m-1.186-.63c-.045.109-.071.175.047.238.047-.1.065-.168-.047-.238m1.556-3.222c0-.008-.048-.006-.073-.008-.049.117.121.147.073.008m-8.566-11.682v-.739c0 .244-.168.5 0 .739m.201 2.457-.022-.36c-.033.107-.115.217.022.36m2.812 9.873v-.536a.57.57 0 0 0 0 .539m.013.026-.013-.029v.041Zm-2.691-8.089v-.12a.076.076 0 0 0 0 .12m-.392-5.73c0 .005.031 0 .048.007.035-.084-.078-.125-.048-.007m29.594-5.977v-.259h-.019v.258h.019m-.013-3.567-.02.073.049-.014Zm-6.296 26.974a1.06 1.06 0 0 0 .141-.9 1.05 1.05 0 0 0-.141.9m-.019-7.427v-1.07a1.64 1.64 0 0 0 0 1.07m-.04.989c.069.069.051-.1.029-.146-.024.039-.054.105-.029.146M4.538 6.761h.372c-.482 5.267-.111 10.681-.187 16 .019 1.6.553 3.13.437 4.729.412-6.843-.209-13.911.308-20.73h-.372c.093-2.23.071-4.469.046-6.708L4.733.045c-.013 2.241 0 4.483-.195 6.718m7.802-4.251L12.297.258h-.112l.16 2.257m.892 1.315a1.09 1.09 0 0 0-.136-.925 1.09 1.09 0 0 0 .136.925M7.338 5.077a4.8 4.8 0 0 0-.043-1.65 2.2 2.2 0 0 0 .043 1.65M7.214 1.46v.688c.1-.206.28-.408 0-.688M7.3 3.37l-.01.025v.033c0-.014.007-.029.011-.043l-.005-.014m.023-.574c-.185.223-.079.4-.018.573.073-.177.2-.356.018-.573M9.63 3.899a.4.4 0 0 0 0-.444ZM7.413 35.025c.154-2.539-.264-5.07.483-7.55l.011.036v-.064l-.013.012a7.5 7.5 0 0 1 .555-2.3l.007.016v-.038l-.013.01c.056-.181.041-.387.189-.538l.019.03a.05.05 0 0 0-.007-.044l-.013.012a6 6 0 0 1 .384-1.425l.015.042a.1.1 0 0 0 0-.065l-.014.013c-.072-2.391 1.78-4.07 2.138-6.308a56 56 0 0 0 1.01-10.1h-.192a11.3 11.3 0 0 1-.17-4.098c-.69-.517-.278-1.227-.311-1.839q-.02-.3-.043-.6l-.435-.009a32.4 32.4 0 0 0 .589 6.542h-.557c1.04 1.016-.317.682.376 3.227l-.013-.013c0 4.21-1.752 8.263-2.9 12.281.366-2.5 1.065-4.952 1-7.5-1.026 4.753-1.714 9.559-2.642 14.329-.321 1.927-.034 4.107-.5 5.963.761 3.792-.273 7.684 1.029 11.441.218.649.288 1.358.543 2l1.021-.024a37.8 37.8 0 0 1-1.536-13.443m3.537-19.3.016.08-.043-.018Zm-.754 2.874.027.036-.029.037Z"/><path d="M9.734 46.566c-.916-6.734-.635-13.651-.177-20.435-1.128 3.725-.758 7.825-.8 11.7a82 82 0 0 0 .517 10.632l.855-.02c-.121-.625-.326-1.228-.4-1.858l.009-.016m-.037.123a.14.14 0 0 1 .014-.079zm-7.447 1.141c.881-3.859.749-7.73.931-11.653.186-3.863-.545-7.776-.969-11.619a53 53 0 0 1-.6-5.273q-.148 2.239-.294 4.479a28 28 0 0 1 1.183 6.563l-.015-.013-.018.036.019-.014c.289 4.828.484 9.837-.534 14.63-.292 1.236-.643 2.457-1 3.677l.8-.017q-.002-.048.007-.095a1.16 1.16 0 0 0 .489-.7m.133-3.445c.144-.02.1.246.026.323a.285.285 0 0 1-.026-.323m-.167 1.2c.106.18.012.3-.1.412.021-.137-.038-.294.1-.412m-.127.494-.042.367a.42.42 0 0 1 .042-.367m-.612 2.434a2.6 2.6 0 0 1 .384-1.2c.011.478-.213.832-.124 1.2-.1-.034-.277.255-.26 0m-1.48.15.339-.007a26.5 26.5 0 0 0 .437-4.224c-.29 1.4-.54 2.816-.775 4.231M2.68 6.76c.212-2.231.252-4.5.262-6.759h-.047L2.454 6.76h.045c-.575 6.78.534 13.6.976 20.359.45-6.781-.966-13.612-.419-20.359Zm4.321 13.673c.613-4.542.528-9.115.7-13.672h-.186c-.072-.219.019-.51-.282-.64-.2.189-.171.439-.275.64h.372c-.188 6.684-.79 13.351-.852 20.041.516-2.065.241-4.264.527-6.37M10.108 6.76h-.372c-.036.086-.029.193.055.218.182.055.215-.137.317-.218m2.978 0H12.9M.87 35.673v1.75a3.3 3.3 0 0 0 0-1.75m.029 6.318h.034v-.432H.899Zm10.718-17.796a141 141 0 0 0-.219 24.214l.56-.014c-.262-8.1-.511-16.222-.342-24.2m1.86 13.465c.016 3.566-.03 7.132-.011 10.7l.425-.01V27.431a.77.77 0 0 0-.215.6c-.282 3.206-.214 6.419-.2 9.63M11.9 21.94a1.5 1.5 0 0 0 0 1Zm.193-1.871c-.052-.244-.15.579-.036.664a1.5 1.5 0 0 0 .036-.664m-2.207 4.732c-.018-.205.066-.327-.1-.538.007.2-.072.324.1.538m-.24.622a.84.84 0 0 0-.072.617.53.53 0 0 0 .072-.617"/><path d="m9.573 26.04-.011.016v.075l.019-.064v-.027m.244-5.332a.078.078 0 0 0 0 .125l.038-.062-.036-.063m.553 1.21.052-.065-.036-.078a.087.087 0 0 0-.016.142m-.168.611a.086.086 0 0 0-.02.125l.042-.056zm-1.116.891-.069-.2c-.013.075-.061.158.069.2m.927.139a.08.08 0 0 0-.018.12.08.08 0 0 0 .018-.12M7.907 27.51a.2.2 0 0 0 .025.08zm.591-2.234-.045-.1a.13.13 0 0 0 .045.1m.208-.546-.057-.089c-.006.041-.023.086.057.089M9.849 7.938l-.223-.009v6.013a48 48 0 0 0 .223-6M6.348 28.158h-.052v1.815h.052Zm-2.629 7.02v-.59l-.047.043v.547zm-1.86-18.2c-.028.094.08.094.141.116.022-.1-.072-.252-.141-.116m4.44 16.892a.071.071 0 0 0 .011-.124q-.104.052-.011.124"/></g><g fill="#ff8e6b" clip-path="url(#b)" transform="rotate(-90 -9858.276 -806.3)"><path d="M0 0v29.749a14.9 14.9 0 0 0 13.961-14.874A14.906 14.906 0 0 0 0 0"/><path d="M13.961 0v29.749a14.9 14.9 0 0 0 13.961-14.874A14.906 14.906 0 0 0 13.961 0"/></g></g></svg>