<svg xmlns="http://www.w3.org/2000/svg" width="1328" height="502" viewBox="0 0 1328 502"><defs><clipPath id="a"><path fill="#fff" stroke="#707070" d="M0 0h1328v502H0z"/></clipPath><clipPath id="b"><path fill="#fff" d="m39.148 1233.616 1271.831 43.2L1271.831 43.2 0 0Z"/></clipPath><clipPath id="c"><path fill="#fff" d="M732.127 1019.527C489.54 960.884 258.363 819.192 92.885 613.88 50.75 561.58 12.221 504.032-6.9 439.129s-16.4-138.5 19.2-190.944c45.965-67.7 132.334-85.451 222.43-103.511-28.44-14.574-42.057-53.746-34.33-85.018C216.923-7.187 290.452-18.8 352.166-14.7c205.678 13.649 399.968 129.678 568.5 267.222 88.536 72.262 173.443 152.431 237.072 250.058 41.806 64.139 77.3 157.2 22.687 214.188-25.192 26.292-70.478 31.105-100.389.731 48.06 55.4 52.138 143.059 19.231 204.869s-96.4 99.106-163.026 111.4a353.7 353.7 0 0 1-76.159 5.2c-42.644-1.429-85.732-9.23-127.949-19.436"/></clipPath><clipPath id="d"><path fill="#fff" d="m50.746 1318.538 1262.709-31.095 28.178-1241.882L78.924 76.655Z"/></clipPath><clipPath id="e"><path fill="#fff" d="M727.916 1034.776c-238.1-44.9-460.342-174.237-613.768-371.594C75.082 612.909 39.89 557.129 24.4 492.793s-8.78-138.725 29.49-193.706c49.4-70.982 136.278-93.952 226.877-117.456-27.5-13.032-38.916-51.737-29.525-83.731 20.067-68.385 93.837-84.41 155-83.907C610.087 15.685 797.03 121.3 957.177 250.13c84.133 67.683 164.226 143.555 222.2 238.282 38.094 62.235 68.338 154.01 10.913 214.691-26.489 28-71.8 35.509-99.894 6.631 44.789 53.049 44.077 141.223 7.981 205.495s-101.274 105.614-168.218 121.921a358 358 0 0 1-76.037 9.718c-42.338 1.062-84.773-4.276-126.21-12.091"/></clipPath></defs><g clip-path="url(#a)"><g transform="translate(-639.12 -505.049)"><path fill="#f6f6f6" d="M658.235 1303.297h1289.77c10.557 0 19.115-13.393 19.115-29.915V534.965c0-16.522-8.558-29.915-19.115-29.915H658.235c-10.557 0-19.115 13.393-19.115 29.915v738.418c0 16.521 8.558 29.914 19.115 29.914"/><g opacity=".49" style="isolation:isolate" transform="rotate(202 1273.371 621.597)"><g clip-path="url(#b)"><path fill="#fff" d="M1165.804 829.066c48.059 55.4 52.126 143.058 19.231 204.869s-96.407 99.106-163.026 111.4-136.5 2.119-204.108-14.221c-242.588-58.663-473.777-200.355-639.243-405.667-42.135-52.287-80.676-109.849-99.785-174.751s-16.4-138.489 19.207-190.93c45.953-67.7 132.333-85.464 222.429-103.524-28.458-14.576-42.063-53.734-34.336-85.019 16.522-66.843 90.04-78.457 151.754-74.357 205.69 13.649 399.98 129.691 568.5 267.222 88.536 72.262 173.443 152.431 237.071 250.058 41.818 64.152 77.314 157.2 22.7 214.2-25.193 26.279-70.478 31.093-100.389.719"/></g><g fill="#fff" clip-path="url(#c)" transform="translate(85.772 111.567)"><path d="M-62.079 442.575s633.452-110.7 541.652 560.559"/><path d="M-70.307 180.056s563.14-183.1 824.663 871.373"/><path d="M130.454-96.625s367.649-30.026 603.054 482.808S967.629 1149.8 967.629 1149.8m197.125-331.224s-33.238-453.932-491-772.239"/></g></g><ellipse cx="334.677" cy="367.274" fill="#e8e8e8" opacity=".37" rx="334.677" ry="367.274" style="mix-blend-mode:multiply;isolation:isolate" transform="translate(658.398 802.415)"/><ellipse cx="334.899" cy="368.106" fill="#fff" opacity=".65" rx="334.899" ry="368.106" transform="translate(323.31 292.065)"/><ellipse cx="334.899" cy="368.106" fill="#fff" opacity=".65" rx="334.899" ry="368.106" transform="translate(1536.748 762.664)"/><g opacity=".3" style="isolation:isolate" transform="rotate(165 745.957 894.023)"><g clip-path="url(#d)"><path fill="#fff" d="M1193.413 844.378c44.79 53.048 44.065 141.223 7.981 205.495s-101.281 105.614-168.218 121.92-135.887 10.15-202.247-2.36c-238.1-44.916-460.353-174.249-613.768-371.606-39.066-50.261-74.27-106.053-89.743-170.39s-8.781-138.712 29.49-193.692c49.392-70.982 136.279-93.965 226.877-117.468-27.514-13.032-38.916-51.726-29.524-83.732 20.067-68.385 93.825-84.41 154.988-83.906 203.852 1.691 390.794 107.32 550.93 236.136 84.133 67.683 164.226 143.554 222.2 238.282 38.105 62.247 68.349 154.009 10.925 214.7-26.489 27.983-71.8 35.5-99.894 6.619"/></g><g fill="#fff" clip-path="url(#e)" transform="translate(103.013 134.644)"><path d="M-30.672 499.507s636.1-148.838 508.27 533.561"/><path d="M-24.572 235.224s570.105-217.731 772.863 830.422"/><path d="M190.171-55.613s367.326-51.865 573.576 451.539 191.328 756.412 191.328 756.412m214.095-345.633s-8.362-455.868-446.368-750.027"/></g></g><g transform="translate(364.627 58.644)"><path fill="#e8e8e8" d="M890.877 416.66a1086 1086 0 0 1-25.025-24.1c-14.867-14.78-29.796-30.468-44.374-46.629-14.894-16.512-29.842-33.98-44.43-51.933a.5.5 0 0 1 .073-.703.5.5 0 0 1 .703.072q55.199 67.916 113.491 122.267c75.116 70.047 153.764 122.9 235.023 157.816 98.58 42.358 201.2 58.56 305.005 48.152a642.5 642.5 0 0 0 122.057-24.54 674 674 0 0 0 94.207-36.508 645 645 0 0 0 34.883-17.952c8.981-4.982 17.658-10.094 25.79-15.193 13.839-8.683 21.39-14.387 21.464-14.441a.5.5 0 0 1 .7.096.5.5 0 0 1-.096.7c-.076.057-7.661 5.789-21.538 14.493-8.148 5.11-16.84 10.231-25.837 15.221a643 643 0 0 1-34.936 17.973 675 675 0 0 1-94.345 36.566 657 657 0 0 1-57.99 14.747 633 633 0 0 1-64.258 9.83 612 612 0 0 1-69.812 2.993 604 604 0 0 1-36.77-1.666 601 601 0 0 1-37.893-4.095 607 607 0 0 1-38.926-6.765 621 621 0 0 1-39.872-9.672 636 636 0 0 1-40.728-12.82 664 664 0 0 1-41.494-16.208 699 699 0 0 1-42.172-19.836 744 744 0 0 1-42.762-23.702 804 804 0 0 1-43.261-27.81c-14.604-10.056-29.297-20.874-43.672-32.154-14.72-11.551-29.523-23.912-43.994-36.74a983 983 0 0 1-19.211-17.459m563.471 581.793a.5.5 0 0 1-.155-.3c-.014-.103-1.354-10.447-2.171-26.832a519 519 0 0 1-.625-29.11c.086-12.116.606-24.11 1.545-35.65 2.398-29.377 7.503-56.017 15.175-79.179a213 213 0 0 1 16.43-37.66 165 165 0 0 1 11.042-17.06 143 143 0 0 1 13.162-15.387 125.8 125.8 0 0 1 51.794-31.736 152 152 0 0 1 34.44-6.58 208 208 0 0 1 40.82 1.12.5.5 0 0 1 .437.558.5.5 0 0 1-.557.437c-53.171-6.419-95.635 6.001-126.223 36.904-39.092 39.492-51.769 102.644-55.52 148.66a504 504 0 0 0-.922 64.625c.814 16.347 2.15 26.65 2.164 26.752a.5.5 0 0 1-.837.43ZM606.304 1612.4a.5.5 0 0 1-.075-.64c54.266-82.3 76.362-141.89 71.641-193.216a149 149 0 0 0-2.849-18.299 158 158 0 0 0-5.027-17.724 201.5 201.5 0 0 0-16.071-34.594 359 359 0 0 0-23.227-34.885c-7.85-10.568-17.168-22.289-29.32-36.886a181 181 0 0 1-10.764-14.288 165 165 0 0 1-8.558-14.11 162.3 162.3 0 0 1-11.742-27.677c-5.85-18.197-8.315-35.95-10.698-53.12-4.031-29.03-7.838-56.443-27.215-82.636-10.378-14.028-24.358-26.568-42.737-38.335a299 299 0 0 0-33.871-18.467c-13.124-6.169-27.989-12.222-44.184-17.99-48.32-17.215-94.165-27.393-136.264-30.254-33.664-2.289-65.02.077-93.197 7.011a220 220 0 0 0-31.488 10.248 176 176 0 0 0-21.97 10.886c-11.423 6.743-16.985 12.082-17.043 12.138a.5.5 0 0 1-.708-.011.5.5 0 0 1 .012-.708c.052-.056 5.704-5.474 17.227-12.277a177 177 0 0 1 22.097-10.95 221 221 0 0 1 31.632-10.291c28.277-6.966 59.736-9.334 93.503-7.039a442 442 0 0 1 62.688 9.038c11.582 2.492 23.527 5.495 35.503 8.925 12.519 3.584 25.422 7.74 38.346 12.343 16.223 5.779 31.118 11.844 44.271 18.026a300 300 0 0 1 33.983 18.527 190 190 0 0 1 25.171 19.036 135 135 0 0 1 17.832 19.549 116.3 116.3 0 0 1 11.959 20.054 133 133 0 0 1 7.56 20.54c3.902 13.841 5.836 27.759 7.882 42.49 4.817 34.693 9.799 70.567 41.541 108.694 12.166 14.613 21.495 26.348 29.356 36.931a360 360 0 0 1 23.29 34.982 202.5 202.5 0 0 1 16.15 34.765 159 159 0 0 1 5.06 17.838 150 150 0 0 1 2.868 18.422 154 154 0 0 1 .54 19.216 173 173 0 0 1-1.917 20.226 208 208 0 0 1-4.504 21.441c-1.947 7.366-4.375 15.063-7.222 22.872-11.564 31.718-30.765 67.733-58.705 110.103a.5.5 0 0 1-.76.09Z"/><path fill="#e8e8e8" d="M349.327 1377.63a.5.5 0 0 1 .33-.866c.063-.001 6.417-.152 16.418-1.13a335 335 0 0 0 39.302-6.222c27.803-6.188 65.546-18.95 87.46-44.62 15.052-17.63 20.957-39.262 17.553-64.295-3.481-25.592-19.565-46.947-47.808-63.475-22.655-13.258-53.131-23.457-90.58-30.312-33.346-6.104-66.154-8.372-87.805-9.199-23.463-.896-39.24-.34-39.397-.335a.5.5 0 0 1-.517-.482.5.5 0 0 1 .482-.517c.157-.005 15.964-.564 39.457.334 13.797.527 27.507 1.441 40.755 2.728 16.561 1.601 32.437 3.784 47.19 6.486 37.568 6.876 68.156 17.116 90.915 30.433a134.4 134.4 0 0 1 17.864 12.39 98.5 98.5 0 0 1 14.49 14.7 78.8 78.8 0 0 1 10.391 17.211 75 75 0 0 1 5.551 19.902 97.5 97.5 0 0 1 .754 19.564 80 80 0 0 1-3.048 17.282 75 75 0 0 1-6.353 15.133 80.4 80.4 0 0 1-9.143 13.107 100.7 100.7 0 0 1-18.491 16.651 144 144 0 0 1-22.078 12.678 231 231 0 0 1-47.45 15.622 336 336 0 0 1-39.42 6.24c-10.031.98-16.412 1.13-16.475 1.132a.5.5 0 0 1-.347-.14m708.041-907.71a248.5 248.5 0 0 1-41.899-51.537 289 289 0 0 1-17.595-33.363 331 331 0 0 1-14.23-38.032.5.5 0 0 1 .33-.625.5.5 0 0 1 .626.331c15.553 50.667 40.9 92.432 73.66 122.984a210.65 210.65 0 0 0 108.75 54.3c74.268 12.866 147.51-15.485 191.144-73.989a.5.5 0 0 1 .7-.102.5.5 0 0 1 .102.7 189.9 189.9 0 0 1-38.755 38.753 193 193 0 0 1-46.962 25.69 202.75 202.75 0 0 1-106.4 9.935 209.2 209.2 0 0 1-56.209-18.24 219.5 219.5 0 0 1-51.647-35.308c-.537-.5-1.078-.996-1.615-1.497"/><path fill="none" d="M890.796 1036.12c-25.387-46.04-33.293-104.558-11.962-148.627s75.34-67.038 113.434-53.042c-49.022-27.489-98.45-55.258-142.016-92.833s-81.4-86.206-98.483-142.738-10.493-121.346 24.838-161.376c41.01-46.465 108.729-50.963 170.568-47.807 180.492 9.215 363.11 61.883 527.919 158.026 52.354 30.543 106.835 70.478 127.168 130.746 19.438 57.601 1.187 121.248-35.144 162.436s-87.96 62.935-140.413 75.332-106.93 16.472-158.852 24.519c22.282 21.446 44.802 43.175 62.113 69.438s29.148 57.946 26.829 88.6c-2.764 36.582-25.69 67.024-54.665 83.623s-63.361 20.957-97.285 20.47c-70.004-1.016-141.292-21.907-204.986-60.082-24.734-14.824-48.656-32.622-69.345-53.802a245.5 245.5 0 0 1-39.719-52.879"/></g></g></g></svg>