<svg xmlns="http://www.w3.org/2000/svg" width="66.995" height="67" viewBox="0 0 66.995 67"><defs><clipPath id="a"><path fill="none" d="M0 0h66.995v67H0z"/></clipPath></defs><g clip-path="url(#a)"><path d="M60.826 67H48.793a1.61 1.61 0 0 1-.773-1.229l-.013-27.541-4.77-.048a1.5 1.5 0 0 1-.7-.862 1.29 1.29 0 0 1 .371-1.083l10.66-12.191c.445-.508 1.323-1.183 1.932-.489l11.346 12.936c.338.651.1 1.682-.671 1.69l-4.7.051v27.929Z"/><path fill="#1aa0fe" d="m59.178 64.747-8.818.01V37.074a1.1 1.1 0 0 0-1.028-1.084l-3.112-.029 8.551-9.788 8.57 9.8-3.046.019a1.113 1.113 0 0 0-1.112 1.131Z"/><path d="M39.635 67H29.17l-.65-.832-.005-14.336-3.522-.014a1.23 1.23 0 0 1-1.124-.776 1.3 1.3 0 0 1 .365-1.428l9.545-10.81c.61-.69 1.516.142 1.917.6l8.9 10.2c.354.406.64.806.483 1.3a1.14 1.14 0 0 1-1.056.872l-3.6.051v13.849a1.48 1.48 0 0 1-.787 1.319"/><path fill="#fea621" d="m38.066 64.746-7.231.011V50.672a1.107 1.107 0 0 0-1.067-1.161l-2.312-.058 7-7.98 6.976 7.966-2.292.069a1.1 1.1 0 0 0-1.067 1.024Z"/><path d="m.068 21.2-.005-4.02a19.22 19.22 0 0 1 37.332-4.08l4.9-1.361a1.01 1.01 0 0 1 .311-1.168l7.58-4.837a1.16 1.16 0 0 1 1.7.533l2.16 7.87a1.364 1.364 0 0 1-1.591 1.184 10.5 10.5 0 0 1-1.583-.091l-2.606-.051a19 19 0 0 0-1.96-.109 14 14 0 0 1-2.1-.094c-.652-.044-1.187-.2-1.329-.961l-4.903 1.356.315 2.069v3.516a19.24 19.24 0 0 1-17.26 17.337l-3.728.007A19.224 19.224 0 0 1 .068 21.2"/><path fill="#fe3131" d="M14.169 30.923a12.767 12.767 0 0 0 17.557-13.945l4.029-1.073a16.9 16.9 0 1 1-.582-2.17l-4.04 1.067a12.752 12.752 0 1 0-16.964 16.121"/><path fill="#fea621" d="M18.139 13.252a5.9 5.9 0 0 0-5.018 6.006 6.031 6.031 0 1 0 12.042-.534l4.388-1.136a10.557 10.557 0 1 1-.586-2.168l-4.382 1.142a5.84 5.84 0 0 0-6.444-3.31"/><path fill="#fe3131" d="M18.713 18.159a1.017 1.017 0 0 0-.64 1.262c.079.376.492.975 1.02.85l3.867-.914a3.8 3.8 0 0 1-7.438.894 3.794 3.794 0 0 1 6.858-3.08Z"/><path fill="#333" d="m47.216 12.846-2.234-.154c-.214-.016-.394-.692-.191-.819l5.377-3.334 1.162 4.458a38 38 0 0 0-4.113-.151"/><path d="M23.807 67H.654c-.459-.075-.58-.2-.654-.654V54.574a1.64 1.64 0 0 1 1.362-.775l21.843.01c.529 0 1.234.415 1.235.91l.021 11.572Z"/><path fill="#333" d="m22.217 64.767-19.989.011-.005-8.629h20Z"/><path d="m18.901 61.524-13.274.017a1.03 1.03 0 0 1-.946-1.139 1.06 1.06 0 0 1 1.115-1.08l12.755-.011a1.126 1.126 0 0 1 1.191.864c.108.454-.122 1.347-.84 1.348"/></g></svg>