<svg xmlns="http://www.w3.org/2000/svg" width="56.689" height="67" viewBox="0 0 56.689 67"><defs><clipPath id="a"><path fill="none" d="M0 0h56.689v67H0z"/></clipPath></defs><g clip-path="url(#a)"><path d="M28.062 67h-9.42a.89.89 0 0 1-.679-.5 20 20 0 0 1-.066-3.574 20.8 20.8 0 0 0 .113-6.9c-.444-2.1-.619-1.681-.955.035a19.8 19.8 0 0 0 .107 6.739 24.5 24.5 0 0 1 .021 3.425.9.9 0 0 1-.765.781H7c-.1-.2-.433-.406-.49-.7a3.89 3.89 0 0 1 1.718-3.631 27.6 27.6 0 0 1-1.251-7.333c-1.69.416-3.655.19-4.362-1.33-.782-1.68.118-3.408.152-4.049l.121-2.277c.271-4.768 1.477-9.728 4.641-13.357a8.49 8.49 0 0 1-4.461-7.093 3.2 3.2 0 0 0-.233-1.606A4.07 4.07 0 0 1 .1 22.779a4.16 4.16 0 0 1 1.234-3.958l-.58-4.829a12 12 0 0 1-.128-1.431L.618 8.793.9 7.004a.972.972 0 0 1 1.264-.814c.4-.412.887.328.971.77a32.7 32.7 0 0 0 .379 10.716c.949-.266 1.521-1.324 1.873-2.194.584-2.676 2.3-4.869 5.235-4.956l.293.261c.566-.516 1.792.1 2.415.466 2.671 2.452 5.843 2.374 8.492-.064a5 5 0 0 1 .956-.42c.5-.162 1.4-.439 1.721.028a.4.4 0 0 0 .477-.226q.732-.026.837.443c.511-.308 1.268.28 1.71.629a6.84 6.84 0 0 1 2.155 3.838c.067.479 1.3 2.319 1.768 2.166.27-.087.687-2.427.772-2.921.511-2.952 1.435-10.317-3.253-9.811l-.279-.19c-.366.35-2.542 1.865-2.92 1.606a.47.47 0 0 1-.188-.307c-.073.091-.217.193-.276.138-3.084-3.979-8.81-4.211-13.525-3.75l-.477-.21-.738.357a11 11 0 0 0-5.894 1.85c-.46.214-1.385.132-1.349-.448-.052-.312-.319-.912-.011-1.232a6.4 6.4 0 0 1 2.928-1.647 27.6 27.6 0 0 1 6.121-.943 1.26 1.26 0 0 1 .661-.1l3.737.024c3.662.3 6.735 1.065 9.447 3.638 2.235-1.5 5.1-1.6 6.882.464A6.65 6.65 0 0 1 34.8 8.451l.009 4.081a38.4 38.4 0 0 1-1.173 6.179 4.33 4.33 0 0 1 1.439 3.481 4.06 4.06 0 0 1-2.862 3.451 8.8 8.8 0 0 0-.254 2.219 8.52 8.52 0 0 1-4.409 6.479c3.114 3.581 4.317 8.349 4.631 13.083l.119 2.537a8.3 8.3 0 0 1 .435 3.115 2.65 2.65 0 0 1-2.143 2.336 6.25 6.25 0 0 1-2.509-.043 26.4 26.4 0 0 1-1.221 7.265 4.11 4.11 0 0 1 1.7 3.709c-.034.282-.42.455-.5.66"/><path fill="#665e66" d="M24.964 61.893a34 34 0 0 1-3.888.036.5.5 0 0 1-.158-.179 10.88 10.88 0 0 0-1.475-8.778l-.959-1.252a1.17 1.17 0 0 0-.957-.544 1.2 1.2 0 0 0-.885.486c-2.308 2.7-2.3 6.823-1.886 10.233a35 35 0 0 1-3.668.055l-.265-.378c-.538-3.728-1.1-8.265-.174-11.956a.9.9 0 0 1 .146-.289 2 2 0 0 1 .236-.27l15-.013c.283 4.31.26 8.79-1.066 12.85"/><path fill="#b8e3ee" d="m28.768 49.228-.288-.254a9.9 9.9 0 0 0-1.01-3.064l-.5-1.627a.977.977 0 0 0-1.872.556l.609 2.251h-7.18v-1.54l2.426-1.756a.95.95 0 0 0 .391-.868l-.717-4.968.378-2.527a33 33 0 0 0 4.5-.322c3.654 3.592 4.631 9.217 4.758 14.121Zm-22.515-.006a2 2 0 0 1-.162-.357 1 1 0 0 1-.071-.354 26.7 26.7 0 0 1 4.359-13.191l.317-.025 3.394.148.312 2.512-.666 4.892a1.03 1.03 0 0 0 .455 1l2.354 1.7v1.546H9.374c.243-1.552 1.264-3.008-.013-3.446a.96.96 0 0 0-1.219.548 19.7 19.7 0 0 0-1.08 5.03Z"/><path fill="#79cfde" d="M10.695 35.295 9.56 37.26a25.3 25.3 0 0 0-3.307 11.962H4.807c.131-4.857 1.132-10.581 4.751-14.08.394-.078.771.133 1.138.149"/><path fill="#454045" d="M11.031 49.06a26 26 0 0 0-.564 4.961 38 38 0 0 0 .68 7.885l3.61-.007c-.135.152-.327.138-.554.136-1.406-.014-2.731.019-4.092-.087-1.335-4.183-1.346-8.587-1.07-12.879Z"/><path fill="#de6a57" d="m19.325 42.504-1.776 1.325-1.778-1.248.512-3.617h2.5Z"/><path fill="#454045" d="M24.961 61.897c-.141.158-.328.142-.557.137l-4.105-.081a16.74 16.74 0 0 0-.859-8.978c2.105 1.6 2.416 6.094 1.693 8.921Z"/><path fill="#a9593d" d="m26.358 65.032-6.234.009v-1.086l4.274-.02a2.17 2.17 0 0 1 1.959 1.1"/><path fill="#efcea3" d="M6.895 53.364c-.761.088-1.781.371-2.37-.116-.437-.482-.123-1.457 0-2.035l2.436-.026Zm23.651-.151c-.543.566-1.64.214-2.351.155l-.088-2.161 2.439.007c.094.521.466 1.5 0 2"/><path fill="#a9593d" d="M9.612 65.034c-.482-.349.176-.87.576-1.04l4.753-.054v1.1Z"/><path fill="#dc6956" d="M18.782 36.993h-2.485l-.229-1.525 2.935-.01Z"/><path fill="#79cddc" d="M28.765 49.228a1.6 1.6 0 0 1-.77-.083 14.7 14.7 0 0 0-.529-3.235 5.6 5.6 0 0 1 1.3 3.318"/><path fill="#904b35" d="M10.187 63.995a3 3 0 0 0-.576 1.04l-.9-.033a1.96 1.96 0 0 1 1.476-1.007"/><path fill="#838383" d="m13.017.043-.661.1a.66.66 0 0 1 .661-.1"/><path fill="#efb785" d="m32.109 23.5-.015-3.364a1.93 1.93 0 0 1 .977 1.664 1.86 1.86 0 0 1-.962 1.7"/><path fill="#eeb784" d="M2.947 23.459a1.76 1.76 0 0 1-.941-1.658 1.93 1.93 0 0 1 .973-1.67 62 62 0 0 1-.028 3.328"/><path fill="#f0b885" d="M11.229 12.807a56 56 0 0 0-.456 5.911.42.42 0 0 0 .139.32l.005.31a1.96 1.96 0 0 0-.106 2.819l-.046.308c.208 3.68.516 7.975 2.595 10.945l-2.181-.07a6.516 6.516 0 0 1-6.1-6.012c-.195-2.635-.162-5.171-.1-7.829a7.33 7.33 0 0 0 2.89-4.476 2.92 2.92 0 0 1 3.354-2.226"/><path fill="#010101" d="M10.764 22.478a2.2 2.2 0 0 1 .146-3.437c.451-.267 1.007.124 1.2.442a2.47 2.47 0 0 1 .033 2.566.987.987 0 0 1-1.381.429"/><path fill="#f0cfa4" d="m13.36 33.42-.457-.216c-1.881-3.072-2.155-6.767-2.374-10.278l.236-.451.248-.149c1.554.184 1.635-3.007.14-3.109l-.242-.18c-.206.071-.35.044-.381-.169a22.2 22.2 0 0 1 .472-5.7 2.6 2.6 0 0 1 .226-.367 2.7 2.7 0 0 1 1.338.6 7.49 7.49 0 0 0 9.934.01 2.83 2.83 0 0 1 2.856-.48 2.92 2.92 0 0 1 1.8 1.974 7.5 7.5 0 0 0 2.915 4.587c.141 2.409.019 4.755-.017 7.19a6.65 6.65 0 0 1-6.583 6.694c-3.407.087-6.719.144-10.113.035"/><path d="M17.413 26.808c2.016.106 1.855-2.157 3.234-1.67a.953.953 0 0 1 .559 1.261 4.04 4.04 0 0 1-3.552 2.369 4.1 4.1 0 0 1-3.717-2.192.987.987 0 1 1 1.723-.958 2.1 2.1 0 0 0 1.753 1.187"/><path fill="#010101" d="M24.637 22.152a.95.95 0 0 1-.819.464 1.04 1.04 0 0 1-.8-.436 2.415 2.415 0 0 1 .037-2.827.95.95 0 0 1 .751-.379 1.02 1.02 0 0 1 .822.441 2.44 2.44 0 0 1 .009 2.737"/><path fill="#924d36" d="m11.296 2.197.018.424c-1.6 2.343-.977 5.225-.236 7.767l-.159.393a4.964 4.964 0 0 0-4.986 3.877c-.321 1.3-1.33 3.364-2.678 3.3-.433-3.628-1.091-7.106-.38-10.778a1.02 1.02 0 0 0-.709-.986 8.6 8.6 0 0 1 1.153-2.237c.323.18.874.477 1.265.193a7.7 7.7 0 0 1 3.185-1.411 54 54 0 0 1 3.526-.537"/><path fill="#a9593d" d="m25.584 6.022.194.4a22 22 0 0 0-.656 4.1q0 .34-.617.271a4.7 4.7 0 0 0-3.252 1.119 5.52 5.52 0 0 1-7.217.152 5.12 5.12 0 0 0-3.116-1.281c-.871-3-1.575-6.008.377-8.584 3.496-.413 7.686-.382 10.926 1.158 2.508 1.192 2.951 2.529 3.361 2.665m.234 4.99a1.7 1.7 0 0 1-.087-.329.7.7 0 0 1 0-.3c.164-.563.365-1.115.572-1.663a9 9 0 0 1 2.388-3.992 2.7 2.7 0 0 1 3.258 1.24c1.793 2.935.743 8.492-.187 11.971-1.3.078-2.289-1.956-2.629-3.291a5.03 5.03 0 0 0-3.316-3.631"/><path fill="#924d36" d="M28.692 4.723a20.6 20.6 0 0 0-2.873 6.289 5 5 0 0 0-1.314-.217.9.9 0 0 0 .359-.1 24 24 0 0 1 .721-4.671c.885.294 1.278-.681 3.107-1.3"/><path d="M45.15 22.059a4.38 4.38 0 0 1-4.2-4.283l-.006-7.006a4.34 4.34 0 0 1 3.877-4.278l8.218-.089.9-1.7a1.043 1.043 0 0 1 1.34-.448.927.927 0 0 1 .545 1.134l-.951 1.96a4.43 4.43 0 0 1 1.794 3.579v6.562a4.474 4.474 0 0 1-4.32 4.574Z"/><path fill="#8fdec2" d="M45.855 20.101c-.456-.113-.8-.786-.947-1.217a10.6 10.6 0 0 1-.207-4.048l.287-.474 2.522 3.744a.982.982 0 0 0 1.648-.024l4.713-8.941a2.46 2.46 0 0 1 .781 1.86l.006 6.41a2.617 2.617 0 0 1-2.653 2.679Z"/><path fill="#8fdec2" d="M45.005 11.49c-.576-.176-.337-1.2-.184-1.69.187-.594.5-1.316 1.154-1.452l6.072.033-3.822 7.274-2.551-3.814a1.02 1.02 0 0 0-.67-.35"/><path fill="#66b39c" d="M45.974 8.348a3.49 3.49 0 0 0-.971 3.142 1.05 1.05 0 0 0-.9.45.99.99 0 0 0 0 1.067l.877 1.356a27 27 0 0 0-.026 3.692 5.9 5.9 0 0 0 .893 2.047 2.653 2.653 0 0 1-2.91-2.57l-.008-6.787a2.76 2.76 0 0 1 3.038-2.4"/><path d="M45.549 41.974a4.51 4.51 0 0 1-4.613-4.457V30.68a4.53 4.53 0 0 1 4.332-4.454l6.974-.047c.162.107.667.271.769.087l.976-1.744a.993.993 0 0 1 1.845.677 9.3 9.3 0 0 1-.975 1.966 4.66 4.66 0 0 1 1.813 3.656l.011 6.445a4.6 4.6 0 0 1-4.591 4.709Z"/><path fill="#8fdec2" d="M45.966 39.972c-.6-.12-.836-.673-1.037-1.2a14.1 14.1 0 0 1-.223-4.452c.046-.084.211-.071.331-.055l2.483 3.714a.93.93 0 0 0 .884.416.96.96 0 0 0 .794-.521l4.67-8.865a2.38 2.38 0 0 1 .782 1.876v6.409a2.614 2.614 0 0 1-2.646 2.657Z"/><path fill="#8fdec2" d="M45.209 31.408c-.883-.094-.561-1.265-.325-1.888.18-.473.481-1.13.974-1.307l6.181.033-3.8 7.262-2.39-3.565a1.2 1.2 0 0 0-.643-.535"/><path fill="#66b39c" d="M45.859 28.214a.95.95 0 0 1-.232.485c-.654.864-1.031 2.4-.417 2.71a.97.97 0 0 0-1.051.324.95.95 0 0 0-.085 1.066l.964 1.471a.56.56 0 0 0-.129.4v2.5a4.08 4.08 0 0 0 1.06 2.8c-1.511 0-3.016-.821-3.02-2.551l-.016-6.524a2.7 2.7 0 0 1 2.928-2.684"/><path d="M55.731 55.972c-.637.556-1.179-.242-1.323-.93a44 44 0 0 0-.155-5.166.8.8 0 0 0-.345-.507l-4.488 8.507a1.234 1.234 0 0 1-2.05.213c-.156-.127-2.16-3.119-2.241-3.337a.72.72 0 0 1-.058-.557c-.091.045-.232.106-.279.053-.739-.828-1.545-2.036-.632-3 .188-.2.618-.386.748-.057q.2-.353.637-.067a39 39 0 0 1 2.654 3.718l3.4-6.427-5.534-.065-.154-.263-.4.281a2.356 2.356 0 0 0-2.314 2.3l.021 6.641c.156 1.464.915 2.011 2.322 2.271l.388.258.088-.262 6.343-.041a3.32 3.32 0 0 0 1.859-1.137c.417-.255 1.112-.521 1.191.093a.97.97 0 0 1 .511.657c.22 1.107-1.985 2.593-3.129 2.588l-7.957-.035a4.24 4.24 0 0 1-3.886-4.275v-7.007a4.474 4.474 0 0 1 4.157-4.289l7.286-.076c.156 0 .5.19.628.123l1.061-1.942a.924.924 0 0 1 1.152-.3c.276.146.712.529.639.961a6.2 6.2 0 0 1-1.049 2.126 4.5 4.5 0 0 1 1.851 3.68l.02 4.1a1.1 1.1 0 0 1-.957 1.172"/><path fill="#8fdec2" d="m55.737 55.972-.072 1.733-.258.782c-1.317-.55-1.343 1.321-3.394 1.327l-6.086.02c-.608-.132-.863-.76-1.044-1.3a15.1 15.1 0 0 1-.159-4.323c.065-.094.229-.065.355-.017l2.458 3.671a.97.97 0 0 0 .987.385 1.02 1.02 0 0 0 .719-.58l4.629-8.781a2.2 2.2 0 0 1 .779 1.755l.026 4.432a1.023 1.023 0 0 0 1.061.9"/><path fill="#8fdec2" d="M44.909 51.187c-.5-.255-.249-1.1-.1-1.576.178-.586.48-1.378 1.1-1.529l6.135.042-3.813 7.229-2.6-3.829c-.154-.227-.514-.272-.725-.337"/><path fill="#66b39c" d="M45.908 48.083a4.32 4.32 0 0 0-1 3.1 1.19 1.19 0 0 0-.865.6 1.04 1.04 0 0 0 .132 1.056l.9 1.346c-.121.052-.166.186-.166.363v2.631a4.1 4.1 0 0 0 1.009 2.645c-1.521 0-2.967-.867-2.972-2.523l-.021-6.655a2.7 2.7 0 0 1 2.979-2.573"/></g></svg>