<svg xmlns="http://www.w3.org/2000/svg" width="63.892" height="67" viewBox="0 0 63.892 67"><defs><clipPath id="a"><path fill="none" d="M0 0h63.892v67H0z"/></clipPath></defs><g clip-path="url(#a)"><path d="M29.615 32.594h-8.342a1.06 1.06 0 0 1-1.026-1.049 1.08 1.08 0 0 1 1.125-1.1l8.337.034c.555 0 .9.644.9 1.057a1.044 1.044 0 0 1-1 1.052M29 48.109c-.489.335-1.159-.166-1.332-.494a1.1 1.1 0 0 1 .483-1.445l6.221-4.295a1.107 1.107 0 0 1 1.581.046 1.057 1.057 0 0 1-.249 1.592Zm4.946-27.858c.549.385.854.822.63 1.428-.144.389-.78.971-1.286.619l-4.086-2.84a.97.97 0 0 1-.053-1.441 1.1 1.1 0 0 1 1.542-.051Zm-3.376-8.028A10.9 10.9 0 1 1 15.303.97a10.875 10.875 0 0 1 15.264 8.577Z"/><path fill="#c4f2fe" d="M23.317 11.32a4.54 4.54 0 1 0-7.088 0 7.04 7.04 0 0 0-4.184 3.9 8.84 8.84 0 1 1 15.46-.023 7.24 7.24 0 0 0-4.188-3.877"/><path fill="#33cb33" d="M25.988 17.172a8.82 8.82 0 0 1-12.438.027 5 5 0 0 1 5.226-4.226 16 16 0 0 0 1.874 0 5.04 5.04 0 0 1 5.338 4.194"/><path fill="#feb6b1" d="M19.357 6.004a2.5 2.5 0 1 1-2.066 2.951 2.5 2.5 0 0 1 2.066-2.951"/><path d="M16.236 37.558a9.242 9.242 0 1 1-.63-12.777 9.2 9.2 0 0 1 .63 12.777"/><path fill="#9999fe" d="M8.262 26.561a7.67 7.67 0 0 0-3.512 4.036 12.4 12.4 0 0 0-2.613-.115 7.2 7.2 0 0 1 6.1-6.106Z"/><path fill="#9999fd" d="M4.308 32.501a7.95 7.95 0 0 0 .614 4.733 7.07 7.07 0 0 1-2.77-4.72Z"/><path fill="#bbbbfe" d="M13.035 25.393a7.16 7.16 0 0 1 3.34 5.082l-2.185.046a.935.935 0 0 0-.854 1.016 1.01 1.01 0 0 0 .963.979l2.078.047a7.26 7.26 0 0 1-6.089 6.077l-.051-2.234c-.013-.595-.552-.813-1.048-.791a.846.846 0 0 0-.906.789l-.034 2.227a7 7 0 0 1-3.325-1.394 5.67 5.67 0 0 1-.964-4.449l.35-.284a1 1 0 0 0 .864-.845 1.26 1.26 0 0 0-.421-1.058c-.283-.783.627-1.895 1.174-2.522s1.522-1.681 2.338-1.514a1 1 0 0 0 .924.875 1.035 1.035 0 0 0 1.035-.77 3.6 3.6 0 0 0 .029-1c.664-.729 1.9-.572 2.784-.271"/><path fill="#9898fb" d="M13.035 25.393a12 12 0 0 0-2.784.271l.021-1.281a7 7 0 0 1 2.763 1.01"/><path d="m11.23 35.334-3.293-3.256a1.03 1.03 0 0 1 .148-1.34l3.109-3.089a1.02 1.02 0 0 1 1.341-.071.96.96 0 0 1 .148 1.4l-2.49 2.512 2.189 2.188a1.04 1.04 0 0 1 .187 1.33c-.193.319-.9.766-1.344.326m41.448 31.402-4.892.115a6 6 0 0 1-2.757-.15 2.46 2.46 0 0 1-1.329-2.641l-.145-1.58a2.56 2.56 0 0 1 1.43-2.6c-3.227-4.745-7.942-11.877-3.849-16.577a2.57 2.57 0 0 1-1.912-.4l-1.793-1.379a2.03 2.03 0 0 1-.587-1.375 2.9 2.9 0 0 1 .873-1.828 13.6 13.6 0 0 1-1.534-2.491l-1.642-.057a2.305 2.305 0 0 1-1.6-2.3 6.2 6.2 0 0 1-.1-2.242 2.34 2.34 0 0 1 2.361-1.5 11 11 0 0 1 .767-3 2.167 2.167 0 0 1-1.313-2.782 7.45 7.45 0 0 1 1.988-2.586 2.24 2.24 0 0 1 2.827.483 14.2 14.2 0 0 1 2.7-1.527 2.19 2.19 0 0 1 1.137-2.969 14 14 0 0 1 1.942-.374 2.36 2.36 0 0 1 2.085.433c.505.368.618 1.28.8 1.872l2.947.81c.48-.852 1.383-1.723 2.417-1.379a6.53 6.53 0 0 1 2.972 2.149 2.22 2.22 0 0 1-.534 2.8 10.6 10.6 0 0 1 1.548 2.658 2.2 2.2 0 0 1 3.015 1.217l.351 1.943a2.27 2.27 0 0 1-.439 1.985 2.5 2.5 0 0 1-1.882.81l-.623 2.425c-.037.142-.2.289-.156.432.128.4 1.117.583 1.384 1.8.3 1.359-1 1.766-.594 2.578.162.319.431.14.7.12a3.856 3.856 0 0 1 4.1 4.393c-.073.748.12 1.427.114 2.159l-.018 2.284c0 .464.006.746.005 1.194V52.8l-1.309 6.548a2.48 2.48 0 0 1 1.649 2.688 11 11 0 0 0 .113 2.026 2.366 2.366 0 0 1-2.124 2.426l-3.706.09Z"/><path fill="#fad0a1" d="m61.344 49.351-.036-5.908a1.79 1.79 0 0 0-.776-1.475 1.61 1.61 0 0 0-1.777-.068l.215 4.41a1.004 1.004 0 1 1-2.007.008l-.469-6.33c-.063-.848-2.136-.983-2.438-.288l.158 6.032a.986.986 0 0 1-1.959.149l-.438-6.116c-.127-.664-1.39-.606-1.857-.4-.217.1-.593.176-.582.488l.2 6a1 1 0 0 1-2 .025l-.411-12.667a1.27 1.27 0 0 0-1.342-1.219 1.337 1.337 0 0 0-1.216 1.5l.224 8.649.162 6.914a1.007 1.007 0 1 1-2.011.016l-.144-4.5c-2.184 2.423-.906 6.041.565 8.873a73 73 0 0 0 3.92 6.276l8.6-.249 4.06-.106 1.41-6.87Z"/><path fill="#07e0da" d="M52.768 64.665c-.113-.013-.281-.046-.289-.126a19.5 19.5 0 0 1-.02-2.751l.287-.208 8.957-.242.045 3.092Z"/><path fill="#01fefe" d="m52.745 61.576.023 3.085-7.016.172-.055-3.062Z"/><path fill="#7f7f7f" d="M51.319 37.198a7.678 7.678 0 1 0-8.553.272l.051 2.37a2.245 2.245 0 0 0-2.26 1.427 8.4 8.4 0 0 1-1.642-1.226 2.195 2.195 0 0 0 .513-2.832 17 17 0 0 1-1.533-2.516 2.21 2.21 0 0 0-2.79-.883l-.28-2.01a2.18 2.18 0 0 0 2.358-1.659 20 20 0 0 1 .713-2.911 2.164 2.164 0 0 0-1.372-2.519l1.227-1.643a2.2 2.2 0 0 0 3.116.352c1.787-1.447 3.881-1.31 3.106-4.139l2.02-.315a2.217 2.217 0 0 0 1.745 2.417c2.668.365 3.916 1.789 5.35-.678l1.638 1.2c-1.949 2.2-.043 3 .833 5.086a2.25 2.25 0 0 0 3 1.155l.294 2.039a2.2 2.2 0 0 0-2.488 1.965 10.4 10.4 0 0 1-.6 2.406c-.611 1.756 1.156 2.518 1.263 2.757.044.1-.165.353-.282.3a3.94 3.94 0 0 0-3.844.317 5.2 5.2 0 0 0-1.591-.737"/><path fill="#b1b1b1" d="M52.15 22.305a.84.84 0 0 1 1.016.52.85.85 0 0 1-.495 1.086.824.824 0 0 1-1.1-.512.836.836 0 0 1 .576-1.094"/><path fill="#e5e5e5" d="M49.145 25.823a5.56 5.56 0 0 1 3.34 5.014 5.64 5.64 0 0 1-3.19 5.217l-.1-2.718a3.37 3.37 0 0 0-3.092-3.35 3.31 3.31 0 0 0-3.492 2.949 7.6 7.6 0 0 1-.08 1.743 4.5 4.5 0 0 1-1.12-2.37c-.621-4.065 3.841-7.756 7.73-6.485"/><path fill="#b2b2b2" d="M49.145 25.823a6.653 6.653 0 0 0-7.73 6.485 5.44 5.44 0 0 1 1.684-5.6 5.62 5.62 0 0 1 6.046-.888"/><path fill="#fefefe" d="M49.217 27.944a1.414 1.414 0 1 1-1 1.821 1.41 1.41 0 0 1 1-1.821"/><path d="M28.336 55.868A12.333 12.333 0 1 1 17.488 42.43a12.367 12.367 0 0 1 10.848 13.438"/><path fill="#fec400" d="M14.592 44.521a10.267 10.267 0 1 1-8.691 11.712 10.26 10.26 0 0 1 8.692-11.712"/><path d="M16.919 47.142q.576.263.463 1.254c1.758.124 4.187 3.264 2.7 4.663-1 .94-2.221-.067-2.231-1.272-.886-1.981-5.238-.562-3.027 1.248l3.428.846c3.634 1.42 2.637 6.256-.865 7.094q.056.978-.507 1.229a1.58 1.58 0 0 1-.907.4c-.282.015-.539-.352-.783-.381q-.56-.267-.5-1.251c-1.7-.264-4.132-3.038-2.578-4.521.846-.808 2.134.179 2.2 1.242.993 1.887 5.12.389 3-1.337-2.856-.443-6.836-1.5-5.535-5.349a4.27 4.27 0 0 1 2.938-2.622q-.1-.967.464-1.239c.3-.037.625-.531.925-.389Z"/><path fill="#fedc66" d="M15.172 47.138a3.3 3.3 0 0 0-.119 1.42 5.7 5.7 0 0 0-2.136 1.152 3.417 3.417 0 0 0-.155 4.779 4.2 4.2 0 0 0 2.175 1l2.341.548a1.24 1.24 0 0 1 .861.812 1.27 1.27 0 0 1-.342 1.323 2.57 2.57 0 0 1-2.709.5 1.75 1.75 0 0 1-1.214-1.4.993.993 0 0 0-1.269-.765 1.066 1.066 0 0 0-.659 1.4 3.9 3.9 0 0 0 3.076 2.844 3.9 3.9 0 0 0 .169 1.462 7.59 7.59 0 0 1-.019-15.075"/><path fill="#fedc66" d="m23.429 52.98-.281.176a1.389 1.389 0 1 0 .054 2.5l.285.169a7.444 7.444 0 0 1-6.606 6.379 3.8 3.8 0 0 0 .179-1.445 3.79 3.79 0 0 0 3.16-3.294 3 3 0 0 0-2.3-3.376l-2.992-.718a1.31 1.31 0 0 1-.972-.875 1.3 1.3 0 0 1 .336-1.29 2.63 2.63 0 0 1 3.095-.328 1.54 1.54 0 0 1 .847 1.335 1 1 0 0 0 1.043.907 1.04 1.04 0 0 0 .945-1.041 3.7 3.7 0 0 0-3.16-3.459 3.8 3.8 0 0 0-.145-1.477 7.58 7.58 0 0 1 6.509 5.837"/><path fill="#feeb90" d="M23.428 52.981a1.67 1.67 0 0 1 .8 1.485 1.78 1.78 0 0 1-.746 1.36 1.71 1.71 0 0 1-2.182-.284 1.681 1.681 0 0 1 2.124-2.56"/></g></svg>