<svg xmlns="http://www.w3.org/2000/svg" xmlns:xlink="http://www.w3.org/1999/xlink" width="66.611" height="63.572" viewBox="0 0 66.611 63.572"><defs><clipPath id="a"><rect width="66.611" height="63.572" fill="none"/></clipPath></defs><g clip-path="url(#a)"><path d="M61.23,26.7A130.981,130.981,0,0,1,21.987,48.039a1.277,1.277,0,0,1-1.131-1.029,1.158,1.158,0,0,1,.855-1.232,128.387,128.387,0,0,0,38.1-20.786l-2.571-.075a.977.977,0,0,1-.839-.989c-.026-.444.273-1.1.84-1.1l5.616-.043a1.2,1.2,0,0,1,.944.346,1.179,1.179,0,0,1,.219,1.1l-1.086,5.22a1.16,1.16,0,0,1-1.2.862c-.45-.06-1.073-.545-.971-1.09Z" transform="translate(-12.657 -13.832)"/><path d="M62.943,12.011l-10.034.025c-.38,0-.973-.428-.971-.805L52,.689c0-.778,1.256-.706,1.752-.669A10.932,10.932,0,0,1,63.913,10.576c.018.6-.138,1.433-.97,1.435" transform="translate(-31.531 0)"/><path d="M64.979,13.284l-7.587.05,0-7.6a8.774,8.774,0,0,1,7.59,7.554" transform="translate(-34.84 -3.479)" fill="#fd636e"/><path d="M38.568,18.936a1.078,1.078,0,0,1,1.154,1.2A10.923,10.923,0,1,1,27.265,9.187l1.578-.045a1.036,1.036,0,0,1,1.073,1.078l-.009,8.727Z" transform="translate(-10.849 -5.55)"/><path d="M31.126,23.348a1.068,1.068,0,0,0,1.119,1.125h8.607a8.722,8.722,0,1,1-9.742-9.735Z" transform="translate(-14.252 -8.947)" fill="#fee076"/><path d="M43.09,58.847q-.163.594.025.419a12.548,12.548,0,0,1,3.6-5.138l0-23.456a1.085,1.085,0,0,1,1.1-.924l6.653-.022c.545.119,1.218.431,1.218,1.117L55.7,51.232a12.075,12.075,0,1,1-8.34,21.708L1,72.931c-.429,0-.99-.426-.99-.839L0,20.488a1.025,1.025,0,0,1,1.073-1.105l3.093-.007a1.035,1.035,0,0,1,1.072,1.111l0,47.076,38,.009a11.033,11.033,0,0,1-.579-2.418l-.522.13-6.831.019a1.1,1.1,0,0,1-1.221-1.242L34.1,37c0-.422.578-.811.958-.811l7.075,0a1.2,1.2,0,0,1,.938.947Z" transform="translate(0 -11.763)"/><path d="M7.488,73.142l40.228,0a4.26,4.26,0,0,1,.684.932l-42.923,0L5.465,24.928a2.625,2.625,0,0,1,.942,0l0,47.16a1.038,1.038,0,0,0,1.078,1.053" transform="translate(-3.318 -15.108)" fill="#a69aa6"/><path d="M109.449,120.251c-.032.077.04.22-.1.393a.765.765,0,0,1,.076-.811Z" transform="translate(-66.335 -72.748)" fill="#2b2b2b"/><path d="M96.334,92.485l-4.061,0V67.789a35.676,35.676,0,0,1,4.213-.028l.117.134V92.32Z" transform="translate(-56.017 -41.106)" fill="#6cf4c1"/><path d="M96.323,92.389V67.706l-4.062-.013c-.029-.066.034-.137.133-.136,1.514.02,2.975-.049,4.5.06V92.354a1.6,1.6,0,0,1-.575.035" transform="translate(-56.006 -41.011)" fill="#04de96"/><path d="M130.422,108.859a10.376,10.376,0,0,1-.069,14.067,9.881,9.881,0,1,1-.1-14.405c.1.1.216.2.167.338" transform="translate(-69.001 -64.278)" fill="#ebeef0"/><path d="M156.144,127.527a11.2,11.2,0,0,0,.069-14.067,9.686,9.686,0,0,1-.069,14.067" transform="translate(-94.792 -68.879)" fill="#cfcfd4"/><path d="M119.8,123.266a2.628,2.628,0,0,1,.149-3.734,2.691,2.691,0,0,1,3.746.039l1.719,1.682,4.45-4.514a2.725,2.725,0,0,1,3.8-.2,2.647,2.647,0,0,1,.206,3.807l-6.45,6.564a2.661,2.661,0,0,1-3.76.219Z" transform="translate(-72.297 -70.334)"/><path d="M124.707,125.163a.561.561,0,0,1,.1-.8.554.554,0,0,1,.7.053L128,126.888a1.052,1.052,0,0,0,1.515-.053l5.269-5.317a.565.565,0,0,1,.755-.077.554.554,0,0,1,.086.787l-6.394,6.467c-.235.238-.6.4-.882.119Z" transform="translate(-75.629 -73.658)" fill="#89c8fc"/><path d="M128.42,51.427l.179.024q.108,9.56-.014,19.179l-.27.162a11.566,11.566,0,0,0-4.006,1.334l0-20.686Z" transform="translate(-75.463 -31.22)" fill="#89c8fd"/><path d="M134.513,70.778l.1-19.366c.192,0,.394-.072.511.166l0,19.055c-.185.17-.4.114-.613.144" transform="translate(-81.66 -31.205)" fill="#60b6fe"/><path d="M62.512,102.211l-6.783,0a1.03,1.03,0,0,1-1.076-1.091l0-19.951a1.42,1.42,0,0,1,.96-.973l6.692-.009a1.318,1.318,0,0,1,1.34.848l0,20.084a1.043,1.043,0,0,1-1.14,1.1" transform="translate(-33.179 -48.678)"/><path d="M64.338,103.445l-4.1,0,.009-17.588a1.046,1.046,0,0,1,.388-.066c.471-.017,3.645-.054,3.809.043a.457.457,0,0,1,.129.129l.032,17.321Z" transform="translate(-36.57 -52.067)" fill="#fee076"/><path d="M64.353,103.373,64.32,85.8l-4.057-.014a.8.8,0,0,1,.609-.132c1.365.025,2.65-.035,4.018.069v17.618a1.363,1.363,0,0,1-.538.036" transform="translate(-36.584 -51.995)" fill="#facc62"/><path d="M30.889,112.77l-7.522,0a1.341,1.341,0,0,1-.84-1.35l.028-12.854c0-.424.5-.764.791-.963l6.974-.016a1.113,1.113,0,0,1,1.223,1.231l-.026,13.259c-.018.27-.393.5-.629.691" transform="translate(-13.676 -59.244)"/><path d="M32.286,114.059l-4.062,0,.005-10.735a39.876,39.876,0,0,1,4.254-.028q.131,5.28.071,10.6Z" transform="translate(-17.134 -62.68)" fill="#fd646f"/><path d="M32.293,113.956l0-10.735-4.059,0a.434.434,0,0,1,.31-.138l4.313.039,0,10.8a1.664,1.664,0,0,1-.568.033" transform="translate(-17.142 -62.578)" fill="#fc4755"/></g></svg>