<svg xmlns="http://www.w3.org/2000/svg" width="53.601" height="67" viewBox="0 0 53.601 67"><defs><clipPath id="a"><path fill="none" d="M0 0h53.601v67H0z"/></clipPath></defs><g clip-path="url(#a)"><path d="M53.6 62.162A5.78 5.78 0 0 1 48.829 67H4.77A5.8 5.8 0 0 1 0 62.218V4.763A5.76 5.76 0 0 1 4.768 0H42.8a7 7 0 0 1 1.639 1.622l7.331 8.145a18.4 18.4 0 0 1 1.83 2.151Z"/><path fill="#e5e6e7" d="M51.372 61.176a3.376 3.376 0 0 1-3.379 3.576L5.46 64.741a3.29 3.29 0 0 1-3.22-3.215V5.461A3.315 3.315 0 0 1 5.598 2.23l35.719-.009v7.964a3.38 3.38 0 0 0 3.346 3.208h6.7Z"/><path fill="#bbbdbf" d="M44.725 11.166a1.13 1.13 0 0 1-1.182-1.124l.011-6.011 6.393 7.1Z"/><path fill="#d7d6d9" d="m13.423 57.146 4.437-10.011.018-23.73 1.111.061v25.643l-4.454 10.029-.921-2.043Z"/><path d="M7.829 11.157h17.842v2.234H7.829zm4.464-4.467h13.38v2.235h-13.38zm15.62 14.517c.487.161.338 1.161-.065 1.389a3.068 3.068 0 1 0 3.135 3.191c.267-.483 1.2-.586 1.456-.107-.127-.447 1.113-.3 1.238-.124.586.825-.805 3.376-1.441 4.074-1.1 1.2-3.356 2.419-4.911 1.59a5.581 5.581 0 0 1 .577-11.13Z"/><path fill="#fed322" d="m30.157 21.832.131.264-3.882 3.89a7 7 0 0 0 1.252 1.144l3.834-3.837.315.08.184.5c.534.391.953 1.315.448 1.817l-1.174.014a3.347 3.347 0 0 1-6.692.052 3.35 3.35 0 0 1 3.325-3.424l.016-1.126a4.64 4.64 0 0 1 2.243.621"/><path d="M31.807 23.368 27.6 27.575l-1.589-1.6 4.146-4.152 2.522-2.52 1.59 1.562Zm-3.893 11.239c.487.161.338 1.16-.065 1.389a3.068 3.068 0 1 0 3.135 3.191c.267-.483 1.2-.586 1.456-.107-.125-.446 1.107-.3 1.234-.122.587.826-.8 3.372-1.438 4.07-1.1 1.2-3.355 2.418-4.909 1.591a5.579 5.579 0 0 1 .577-11.127Z"/><path fill="#fed322" d="m30.157 35.232.131.264-3.882 3.889a7 7 0 0 0 1.25 1.143l3.834-3.837.315.079.271.6c.512.343.878 1.32.362 1.718l-1.174.014a3.347 3.347 0 0 1-6.692.053 3.35 3.35 0 0 1 3.327-3.423l.016-1.126a4.64 4.64 0 0 1 2.242.626"/><path d="m31.805 36.766-4.207 4.209-1.587-1.6 4.146-4.152 2.522-2.52 1.589 1.561Zm-3.892 11.24c.487.16.339 1.157-.065 1.386a3.072 3.072 0 1 0 3.138 3.2c.267-.482 1.2-.586 1.453-.107-.125-.446 1.108-.3 1.235-.122.588.827-.8 3.374-1.438 4.072-1.1 1.2-3.355 2.418-4.911 1.59a5.581 5.581 0 0 1 .577-11.13Z"/><path fill="#fed322" d="m30.156 48.632.131.264-3.883 3.89a7 7 0 0 0 1.252 1.142l3.834-3.837.315.08.272.6c.511.343.877 1.32.362 1.718l-1.171.014a3.35 3.35 0 1 1-3.369-3.371l.015-1.122a4.64 4.64 0 0 1 2.242.62"/><path d="m31.805 50.165-4.207 4.21-1.589-1.6 4.147-4.153 2.522-2.52 1.589 1.562Zm6.168-14.443h8.92v2.235h-8.92zm0 4.467h8.92v2.235h-8.92zm0 8.933h8.92v2.235h-8.92zm0 4.466h8.92v2.235h-8.92zm0-31.265h8.92v2.235h-8.92zm0 4.466h8.92v2.235h-8.92z"/><path fill="#d7d6d9" d="M27.325 31.222a5.585 5.585 0 0 0 6.177-5.529l-1.063-.011a5 5 0 0 0-.449-1.816 4.448 4.448 0 1 1-4.3 7.754.96.96 0 0 1-.366-.4m.001 13.399a5.585 5.585 0 0 0 6.174-5.528l-1.061-.011a4.7 4.7 0 0 0-.362-1.718 4.35 4.35 0 0 1 1.978 6.1 4.463 4.463 0 0 1-6.275 1.615 1.06 1.06 0 0 1-.454-.455m0 13.398a5.585 5.585 0 0 0 6.177-5.529l-1.063-.011a4.7 4.7 0 0 0-.362-1.718 4.35 4.35 0 0 1 1.978 6.1 4.463 4.463 0 0 1-6.275 1.615 1.07 1.07 0 0 1-.455-.454"/><path d="m10.056 8.919-2.233.005V6.693h2.231Zm7.817 14.486.279.1-.021 23.682-4.382 9.918-.324.041c-.212.479-.5.842-.958.9a1.145 1.145 0 0 1-1.249-.745L6.705 47.133V21.226a1.093 1.093 0 0 1 1.119-1.131h8.927a1.147 1.147 0 0 1 1.128 1.244Z"/><path fill="#00b29c" d="m15.636 45.735-2.236.026V29.035h2.235Z"/><path fill="#00cbb2" d="m11.169 45.735-2.236.026V29.035h2.235Z"/><path fill="#d0d2d3" d="m15.636 26.783-6.7.011v-4.471h6.7ZM14.082 50.22l-3.572.013-.963-2.223h5.473Z"/><path fill="#86858d" d="m13.026 52.507-.74 1.617-.752-1.633Z"/><path d="M7.833 15.624h28.999v2.234H7.833zm33.489 2.228-2.238.005v-2.231h2.231Z"/></g></svg>