<svg xmlns="http://www.w3.org/2000/svg" width="83.997" height="86" viewBox="0 0 83.997 86"><defs><clipPath id="a"><path fill="none" d="M0 0h83.997v86H0z"/></clipPath></defs><g clip-path="url(#a)"><path d="M73.089 48.657c-.886-.145-1.363-.905-1.931-1.567a23.55 23.55 0 0 1-5.727-13.2v-4.96a23.4 23.4 0 0 1 6.226-13.7c.368-.4.546-.789.941-.886a1.57 1.57 0 0 1 1.5.229 1.49 1.49 0 0 1-.249 2.146 21.2 21.2 0 0 0-.038 29.429c.483.511.8.831.578 1.619a1.23 1.23 0 0 1-1.3.895m10.265-11.994c.538.591.823 1.152.518 1.775-.223.454-1.242 1.1-1.815.583a10.3 10.3 0 0 1-.15-15.051 1.226 1.226 0 0 1 1.74.119 1.35 1.35 0 0 1-.081 1.862 7.765 7.765 0 0 0-.212 10.712"/><path d="M78.833 41.657a1.3 1.3 0 0 1 .252 1.591c-.191.389-1.139.915-1.665.553a16.36 16.36 0 0 1-5.069-8.8c-.22-.886-.007-1.642.863-1.872a1.322 1.322 0 0 1 1.7 1.169 14.3 14.3 0 0 0 3.918 7.364M74.809 28.85a1.262 1.262 0 0 1-1.718.811c-.764-.267-.914-1.04-.732-1.822a17.2 17.2 0 0 1 4.628-8.482 1.32 1.32 0 0 1 1.929.037 1.37 1.37 0 0 1-.248 2 14.64 14.64 0 0 0-3.859 7.459"/><path fill="#fbeaa3" d="M56.925 49.176q.512-.231.707.076l10.162 12.54c2.007 3.19 1.053 8.083-2.248 9.933l-17 2.541-.033-2.2a1.247 1.247 0 0 0-1.2-1.246 1.194 1.194 0 0 0-1.318 1.068l-.109 4.127q-2.441-.326-2.832 1.353l-.062 4.8q-.161 1.065-.817 1.311H15.131V72.9a1.286 1.286 0 0 0-1.118-1.344 1.24 1.24 0 0 0-1.392 1.18l-.012 10.741H4.543a1.92 1.92 0 0 1-1.951-1.889l.01-10.016a9.04 9.04 0 0 1 9.169-9h7.156a1.247 1.247 0 0 0 1.254-1.262h3.368a1.277 1.277 0 0 0 1.238 1.269l32.11.012 2.191 3.3a1.28 1.28 0 0 0 1.793.444 1.24 1.24 0 0 0 .359-1.755l-2.733-4.161-5.47-9.034Z"/><path fill="#fee077" d="m65.543 71.727 1.085-1.253a7.23 7.23 0 0 0 .968-8.39L57.452 49.572a.86.86 0 0 0-.534-.394l2.134-1.226 12.141 14.982a6.14 6.14 0 0 1-.4 5.912c-1.268 2.034-3.083 2.558-5.25 2.881"/><path fill="#fee076" d="m42.168 83.482.487-1.356.053-4.685a1.74 1.74 0 0 1 1.809-1.707l1.344-.008.126-3.837.023 9.4a2 2 0 0 1-1.989 2.187Z"/><path d="M52.232.036a9.76 9.76 0 0 1 4.588 2.087A9.1 9.1 0 0 1 57.913 15.1a5.53 5.53 0 0 0-1.413 3.623l-.1 4.109c-.046 1.943-2.711 3.19-5.158 2.851v2.981a4.18 4.18 0 0 1 1.722 2.711l2.1 7.586L73.32 61.536a6.72 6.72 0 0 1 1.016 4.371c-.194 3.789-3.152 7.508-6.753 8.06l-19.011 2.91-.089 5.368A4.44 4.44 0 0 1 44.834 86H3.743A4.64 4.64 0 0 1 0 82.077l.1-11.468a11.51 11.51 0 0 1 10.87-10.582l7.981-.042a1.27 1.27 0 0 1 1.229 1.326c.753.655-.283 1.342-1.043 1.584l-7.771.028c-4.709.535-7.7 3.071-8.391 7.852L2.93 81.58a1.57 1.57 0 0 0 1.532 1.563l7.814-.042.017-10.479c.538-1.924 2.559-1.926 3.164.061l.01 10.36q13.2.183 26.495.1l.206.336.277-.337q2.377.453 3.119-1.126.2-3.068.1-6.191l.268-.151.058-3.787c-.531-.4-.048-.943.446-1.206 2.18-1.16 2.6 1.718 2.505 3.185l16.349-2.442.253.3.773-.471A5.756 5.756 0 0 0 70.9 63.1L58.972 48.385l-1.587.913-.463-.121v.387l-3.413 1.943c2.655 4.433 5.325 8.875 8.159 13.163.474 1.782-1.047 2.788-2.584 1.737l-2.392-3.479-31.922-.014c-.847-.182-1.935-.805-1.22-1.6l-.028-5.246a12.37 12.37 0 0 1-9.351-10.922l-.049-3.3-3.329-.075c-1.191-.2-2.624-1.066-2.638-2.33l-.05-4.49c-.012-1.015.9-1.7 1.6-2.25l.139-11.641a5.69 5.69 0 0 1 4.945-5.07l3.226-.057-.657-3.2a3.35 3.35 0 0 1 1.51-3.523 3.47 3.47 0 0 1 3.719-.032 20.9 20.9 0 0 0 8.386 2.722l10.671.033c1.014.551.206-.385.119-2.337A9.43 9.43 0 0 1 49.4 0ZM50.69 17.451h3.377a8.2 8.2 0 0 1 1.9-4A6.624 6.624 0 0 0 50.8 2.526a6.68 6.68 0 0 0-5.839 3.8 6.62 6.62 0 0 0 1.06 7.275 7.75 7.75 0 0 1 1.774 3.84Zm-5.3 11.284c.023.09.138.3.282.311a4.25 4.25 0 0 1 3.06-1.212V25.55a3.84 3.84 0 0 1-3.241-2.256c.005-.979-.169-1.968-.114-2.974a17.5 17.5 0 0 0-.053-2.456c-.2-2.246-1.971-3.336-4-3.337L32.5 14.52a22.5 22.5 0 0 1-11.376-3.2.86.86 0 0 0-1.242.9l.943 4.758a1.23 1.23 0 0 1-1.16 1.493l-4.352.05a3.036 3.036 0 0 0-2.941 3.018v10.863l2.74-.039a6.47 6.47 0 0 0 4.911-5.62c.1-.759.521-1.366 1.338-1.366h17.617a8.24 8.24 0 0 1 6.41 3.353m5.112-5.704 2.589.009a.983.983 0 0 0 .868-1.024l-.013-2.03h-6.03l.015 2.162a.91.91 0 0 0 .951.888Zm-28.165 5.021a8.94 8.94 0 0 1-5.619 6.476l.016 10.177a9.76 9.76 0 0 0 8.027 8.993c.643.129 1.324.437 1.343 1.195l-.052 5.234 8.99-.064v-4.972a1.345 1.345 0 0 1 1.364-1.395c4.277-.9 7.907-4.352 7.929-8.838l.056-11.25a5.69 5.69 0 0 0-5.923-5.73l-15.776.009a.36.36 0 0 0-.356.165m24.706 3.472-.161.486c-.078.236-.008.417.248.418l3.4.015a2.07 2.07 0 0 0-1.262-2.007 1.794 1.794 0 0 0-2.219 1.088m-35.817 7.706 2.967-.007-.005-4.284-2.926-.009a.67.67 0 0 0-.695.68v3.029a.635.635 0 0 0 .657.59m39.316-.837.005-2.778a.634.634 0 0 0-.648-.68h-2.989l.02 4.293 3.045-.019a.67.67 0 0 0 .568-.821m.367 3.183a18 18 0 0 1-3.818.19 5.1 5.1 0 0 0 .831 1.709l3.78 5.779 3.563-2.043 2.178-1.243-4.766-5.839a3.12 3.12 0 0 1-1.767 1.458m-13.24 18.4 17.528-.045-8.409-13.54a12.34 12.34 0 0 1-9.169 9.629Z"/><path fill="#fecdbe" d="m50.912 41.571.384-.062q2.267 2.612 4.281 5.39l-.314.295-3.561 2.053-3.78-5.779a5.1 5.1 0 0 1-.831-1.709 18 18 0 0 0 3.818-.19"/><path fill="#feaf9d" d="M55.265 47.196a.77.77 0 0 0-.22-.605l-4.135-5.02a3.12 3.12 0 0 0 1.767-1.457l4.767 5.839Z"/><path fill="#fd9f89" d="M50.545 38.388a.67.67 0 0 1-.568.821l-3.045.019-.02-4.293h2.99a.633.633 0 0 1 .648.68Z"/><path fill="#fdae9d" d="M47.124 32.426a1.94 1.94 0 0 1-.085-.9 1.794 1.794 0 0 1 2.219-1.088 2.07 2.07 0 0 1 1.266 2.001Z"/><path fill="#fec8b9" d="M47.126 32.424c-.255 0-.326-.182-.248-.418l.162-.486a.83.83 0 0 1 .085.9"/><path fill="#fecdbe" d="M26.102 54.888c-.019-.758-.7-1.065-1.343-1.195a9.76 9.76 0 0 1-8.026-8.994l-.017-10.176a8.93 8.93 0 0 0 5.619-6.475q8.048-.15 16.123-.083c2.159.908 2.994 3.752 3.008 5.962l-.036 10.594c-.404 4.093-1.861 7.558-5.867 9.279l-.738.577a3.59 3.59 0 0 0-2.633 1.67 31 31 0 0 0-.115 3.885q-2.93.185-5.912.108Z"/><path fill="#feaf9d" d="m26.102 54.888.126 5.072 5.527.037-.008-3.222a2.18 2.18 0 0 1 1.671-2.215 10.68 10.68 0 0 0 7.68-10.042l.033-10.59a7.14 7.14 0 0 0-2.713-5.871l-16.087-.008a.37.37 0 0 1 .356-.165l15.776-.01a5.69 5.69 0 0 1 5.923 5.729l-.056 11.25c-.023 4.487-3.652 7.939-7.929 8.838a1.346 1.346 0 0 0-1.364 1.395v4.971l-8.99.064Z"/><path d="M34.496 47.174a17.2 17.2 0 0 1-7.8.064 1.271 1.271 0 1 1 .6-2.463 15 15 0 0 0 6.542-.014 1.267 1.267 0 0 1 1.487.811 1.217 1.217 0 0 1-.832 1.6"/><path fill="#010101" d="M31.772 41.418a1.17 1.17 0 0 1-1.392 1.006 1.275 1.275 0 0 1-1.084-1.28l.017-1.782a1.246 1.246 0 0 1 2.49.105Z"/><path fill="#db8658" d="M41.325 14.523a6.76 6.76 0 0 1 4.05 5.8c-.055 1.006.119 1.995.114 2.974l.317.992-.078 4.209-.34.24a8.24 8.24 0 0 0-6.41-3.353H21.365c-.817 0-1.24.606-1.338 1.366a6.47 6.47 0 0 1-4.911 5.621l-2.74.039V21.548a3.036 3.036 0 0 1 2.936-3.025l4.352-.05a1.23 1.23 0 0 0 1.16-1.493l-.943-4.757a.86.86 0 0 1 1.242-.9 22.5 22.5 0 0 0 11.376 3.2Z"/><path fill="#fdaf9d" d="M11.229 39.225a.634.634 0 0 1-.657-.59v-3.029a.67.67 0 0 1 .695-.68l2.926.009.005 4.284Z"/><path fill="#d67e4a" d="m45.388 28.735.1-5.44a3.84 3.84 0 0 0 3.241 2.255v2.285a4.25 4.25 0 0 0-3.059 1.212c-.144-.011-.259-.221-.283-.311"/><path fill="#d57e4a" d="M45.375 20.321a10.33 10.33 0 0 0-4.051-5.794c2.025 0 3.791 1.092 4 3.337a18 18 0 0 1 .053 2.456"/><path fill="#fbeaa3" d="M50.8 2.526a4.4 4.4 0 0 1 2.715 2.445c2.155 3.748.961 7.564-1.686 10.687l-.689 1.486-.45.306-2.894-.012a7.75 7.75 0 0 0-1.774-3.84 6.62 6.62 0 0 1-1.06-7.276 6.69 6.69 0 0 1 5.839-3.8"/><path fill="#fee077" d="M50.69 17.452a9.6 9.6 0 0 1 1.843-3.387 7.944 7.944 0 0 0-1.732-11.539 6.624 6.624 0 0 1 5.168 10.92 8.2 8.2 0 0 0-1.9 4Z"/><path fill="#8c9ba7" d="m50.504 23.027-.316-.22.255-2.624.357-.2h3.147l.013 2.03a.983.983 0 0 1-.867 1.024Z"/><path fill="#acbac3" d="m50.8 19.983-.3 3.044-1.623.009a.91.91 0 0 1-.951-.889l-.01-2.162Z"/><path fill="#010100" d="M50.567 11.327a1.258 1.258 0 1 1-1.74-1.817l2.434-2.44a1.285 1.285 0 0 1 1.807-.074 1.257 1.257 0 0 1 .052 1.774Z"/></g></svg>