<svg xmlns="http://www.w3.org/2000/svg" width="85.959" height="86" viewBox="0 0 85.959 86"><defs><clipPath id="a"><path fill="none" d="M0 0h85.959v86H0z"/></clipPath></defs><g clip-path="url(#a)"><path d="M48.211 48.438a1.516 1.516 0 0 1-2.13-.028 1.43 1.43 0 0 1 .139-2.039l8.159-6.462a1.44 1.44 0 0 1 1.71-.051 1.62 1.62 0 0 1 .436 1.916Zm-10.341.064-8.05-6.34a1.515 1.515 0 0 1-.195-2.067 1.47 1.47 0 0 1 2.062-.123l8.061 6.4a1.421 1.421 0 1 1-1.878 2.134m6.452-4.753c0 .618-.873 1.02-1.28 1.061a1.62 1.62 0 0 1-1.387-.9l-.085-9.738a1.436 1.436 0 1 1 2.828 0Zm-15.356-9.577a14.595 14.595 0 1 1 .009-3.281Z"/><path fill="#827682" d="M22.267 23.871a10.35 10.35 0 0 1 2.98 5.2c.607 2.376.591 6.738-.788 8.815-.192.289-.3.341-.594.087a11.04 11.04 0 0 0-5-4.7 6 6 0 1 0-8.628.02 10.73 10.73 0 0 0-5.481 5.634 11.719 11.719 0 0 1 16.651-15.946 4 4 0 0 1 .86.89"/><path fill="#675d67" d="M23.865 37.977a.64.64 0 0 0 .331-.322 13.3 13.3 0 0 0-1.929-13.784c.309-.018.419.166.638.39a11.725 11.725 0 0 1 1.44 14.632 3.1 3.1 0 0 1-.481-.915"/><path fill="#89c8fd" d="M19.432 36.886a8.4 8.4 0 0 1 1.546 2.509c.308.807.746 2.011.238 2.716a11.705 11.705 0 0 1-14.284-.723 7.748 7.748 0 0 1 12.5-4.5"/><path fill="#f5dbcc" d="M13.664 26.004a3.235 3.235 0 1 1-2.243 3.984 3.22 3.22 0 0 1 2.243-3.981"/><path fill="#5fb4fb" d="M21.217 42.111a12.6 12.6 0 0 0-1.784-5.225 7.63 7.63 0 0 1 2.708 4.482Z"/><path d="m21.863 76.033-2.044 1.015.867 1.518a3.43 3.43 0 0 1-1.1 4.835l-4.233 2.333a3.1 3.1 0 0 1-3.759-1.027l-10.832-19a3.9 3.9 0 0 1-.637-3.2 4 4 0 0 1 2.006-2.276l2.751-1.551c1.65-.93 3.525-.961 4.781.564a10.7 10.7 0 0 1 1.089 1.854l10.267-5.918a13.1 13.1 0 0 1 5.758-1.8 14.3 14.3 0 0 1 5.065 1.257 65.4 65.4 0 0 0 10.3 3.116 5.41 5.41 0 0 1 4.609 5.739c-.035.548-.458 1.109-.372 1.713l14.982-8.645a13 13 0 0 1 5.748-1.848 5.213 5.213 0 0 1 5.716 5c.058 1.675-.383 3.7-1.922 4.653L47.265 78.967a11.1 11.1 0 0 1-6.36 1.926l-1.667-.221Z"/><path fill="#f5dbcc" d="m15.12 68.839-.07-.358 17.623-10.216 1.08.049c2.881.989 5.734 1.728 8.651 2.484a2.285 2.285 0 0 1 1.389 2.869 2.31 2.31 0 0 1-2.692 1.481c-2.862-.534-5.589-1.451-8.417-2.215a1.43 1.43 0 0 0-1.874.914 1.4 1.4 0 0 0 1.114 1.768L41.21 68a10.34 10.34 0 0 0 8.055-1.155l13.716-7.98c1.89-1.1 4.891-2.062 6.366-.612.875.861 1.1 3.08-.158 3.859L45.327 76.857a7.3 7.3 0 0 1-5.828.965l-17.547-4.677a1.7 1.7 0 0 0-1.333.244l-2.224 1.238Z"/><path fill="#f0cabb" d="M33.754 58.313a1.55 1.55 0 0 0-.912.252L15.12 68.839l-3-5.286 11.087-6.336a6.24 6.24 0 0 1 5-.811Z"/><path fill="#d0d0d5" d="M14.749 82.96c-.429.248-.816.265-1.07-.185L2.918 63.76a.6.6 0 0 1 .3-.874l3.549-1.989a.537.537 0 0 1 .748.171L18.336 80.2a.53.53 0 0 1-.134.763Z"/><path fill="#010101" d="M6.093 63.095a1.54 1.54 0 0 1 1.831 1.066 1.557 1.557 0 0 1-1.113 1.895 1.523 1.523 0 1 1-.717-2.961"/><path d="M45.132 28.987 40.905 29a1.2 1.2 0 0 1-.971-.721l-.638-1.655a12.5 12.5 0 0 1-2.344-.934c-.769.452-2.041 1.223-2.744.541l-2.891-2.8a1.56 1.56 0 0 1-.127-1.534l.611-1.5a7.8 7.8 0 0 1-.93-2.187l-1.417-.532c-.4-.151-.957-.56-.948-1.086l.077-4.3c.015-.877 1.425-1.138 2.183-1.329a12.3 12.3 0 0 1 1.044-2.315l-.573-1.374a1.61 1.61 0 0 1 .083-1.654l2.76-2.757c.791-.791 2.028.313 3.013.4a11.6 11.6 0 0 0 2.19-.965c.429-.487.447-1.988 1.387-2.14a18.7 18.7 0 0 1 4.634-.027c.817.255 1.038 1.46 1.29 2.143l1.67.764a1.43 1.43 0 0 0 1.523-.03c.583-.355 1.528-.7 2.094-.142l2.7 2.654a1.4 1.4 0 0 1 .268 1.38l-.7 1.76c.539.658.616 1.58 1.1 2.25.569.348 1.92.392 2.108 1.3l.1 4.379a1.27 1.27 0 0 1-.831 1.034l-1.539.587a7.9 7.9 0 0 1-.924 2.19l.685 1.746a1.4 1.4 0 0 1-.271 1.38l-2.806 2.714c-.8.772-2.62-.661-3.032-.456a8 8 0 0 1-2.069.846l-.641 1.655a1.16 1.16 0 0 1-.9.7"/><path fill="#fee077" d="M43.843 26.045c-.292.426-1.354.236-1.741.09-.277-.7-.394-1.561-1.09-1.865a15.4 15.4 0 0 1-2.833-1.149c-1.359-.946-2.257.239-2.852.2-.238-.014-1.061-.865-1.1-1.011-.186-.621 1.2-1.521.11-3.1a15 15 0 0 1-1.08-2.716c-.318-.732-1.233-.739-1.837-1.114-.326-.364-.2-1.311-.039-1.738 2.634-.533 1.87-2.243 2.961-3.8 1.041-1.488-.16-2.34-.138-2.985.008-.217.852-1.044 1-1.091.61-.193 1.568 1.187 3 .173 1.62-1.148 3.4-.368 3.883-3.021a2.9 2.9 0 0 1 1.8 0c.489 2.657 2.255 1.864 3.882 3.02 1.353.962 2.223-.2 2.881-.2.209 0 1.037.837 1.092 1 .214.617-1.2 1.528-.109 3.1a22 22 0 0 1 1.14 2.817c.332.658 1.221.668 1.779 1.022.33.362.2 1.3.041 1.741-.687.282-1.555.382-1.867 1.076a15.7 15.7 0 0 1-1.147 2.83c-.938 1.326.187 2.24.194 2.868 0 .216-.835 1.045-1 1.1-.624.215-1.536-1.164-2.983-.171a13.8 13.8 0 0 1-2.828 1.134c-.714.288-.706 1.147-1.119 1.787"/><path d="M42.114 7.026a7.563 7.563 0 1 1-6.627 8.528 7.55 7.55 0 0 1 6.627-8.528"/><path fill="#ebeef0" d="M42.29 9.795a4.795 4.795 0 1 1-4.03 5.568 4.773 4.773 0 0 1 4.03-5.568"/><path d="m73.166 46.895-3.742-.014a14.52 14.52 0 0 1-12.412-12.577l-.019-3.4a14 14 0 0 1 3.333-7.752A14.518 14.518 0 1 1 82.201 42.24a14.2 14.2 0 0 1-4.626 3.405 10.8 10.8 0 0 1-4.408 1.254"/><path fill="#fec238" d="M79.471 24.219c4.78 4.913 4.038 13.539-1.268 17.815a11.711 11.711 0 1 1 .875-18.411c.2.175.449.344.392.6"/><path fill="#f3b629" d="M78.202 42.036a13.345 13.345 0 0 0 1.268-17.815.65.65 0 0 1 .463.223 11.7 11.7 0 0 1-1.731 17.592"/><path d="M70.092 40.193a5.34 5.34 0 0 1-4.186-3.77 1.377 1.377 0 0 1 .826-1.7 1.35 1.35 0 0 1 1.775.835 2.52 2.52 0 0 0 1.57 1.728c1.785.647 4.067-.053 4.155-1.3.188-2.65-4.537-1.511-6.861-3.952a4.207 4.207 0 0 1 .554-6.186 8 8 0 0 1 2.168-1.082 1.6 1.6 0 0 1 .5-1.681 1.42 1.42 0 0 1 1.573-.066 1.59 1.59 0 0 1 .6 1.769 5.38 5.38 0 0 1 3.8 3.222 1.357 1.357 0 0 1-.8 1.784 1.427 1.427 0 0 1-1.839-.89 2.835 2.835 0 0 0-3.9-1.129 1.532 1.532 0 0 0-.7 2.3c.893 1.1 3 .8 5.176 1.891a4.26 4.26 0 0 1 2.03 5.782 5.25 5.25 0 0 1-3.736 2.436 1.78 1.78 0 0 1-.515 1.67 1.38 1.38 0 0 1-1.613.074 1.53 1.53 0 0 1-.59-1.737"/></g></svg>