<svg xmlns="http://www.w3.org/2000/svg" width="64.451" height="63.661" viewBox="0 0 64.451 63.661"><defs><clipPath id="a"><path fill="none" d="M0 0h64.451v63.661H0z"/></clipPath></defs><g clip-path="url(#a)"><path d="M64.45 60.013v3.02c-.238.18-.491.621-.912.621l-11.377-.016c-1.15 0-.921-1.633-1.086-3.106a19.06 19.06 0 0 0-9.827-14.638l-3.86 10.415a5.466 5.466 0 1 1-6.65-3.436l5.043-7.54.779-1.188a18.94 18.94 0 0 0-23.179 16.413l-.125 1.875c-.029.44-.144 1.194-.871 1.2l-11.351.035a1.035 1.035 0 0 1-1.012-1L.01 60.64l.1-.632a31.33 31.33 0 0 1 7.2-17.887l.014-21.982a1.61 1.61 0 0 1 1.364-1.406l5.173-.013a1.66 1.66 0 0 1 1.75 1.443l.027 14.737a34 34 0 0 1 5.518-2.628V13.625a1.52 1.52 0 0 1 1.567-1.4h5.17a1.494 1.494 0 0 1 1.542 1.385l.028 16.793c.437.146.846-.075 1.259-.075h3.01c.412 0 .821.218 1.259.078l.025-13.169a1.51 1.51 0 0 1 1.114-1.238h6.036a1.51 1.51 0 0 1 1.122 1.245l.023 15.033a18 18 0 0 1 3.035 1.289l2.493 1.322.026-21.27a1.5 1.5 0 0 1 1.54-1.385l5.2-.016c.625.079 1.529.455 1.529 1.286l.019 28.626a32.36 32.36 0 0 1 7.3 17.886"/><path fill="#70d940" d="M53.23 61.578a20.95 20.95 0 0 0-5.444-13.111l6.492-6.51a30.15 30.15 0 0 1 8.14 19.609Z"/><path fill="#939393" d="M.01 60.639c0-.212-.056-.479.1-.632-.014.208.136.489-.1.632"/><path fill="#70d940" d="m11.247 61.551-9.2.018a30.12 30.12 0 0 1 8.137-19.611l6.5 6.5a20.9 20.9 0 0 0-5.442 13.1"/><path fill="#fed13b" d="M37.848 42.329a21 21 0 0 0-4.61-.712v-9.205a29.5 29.5 0 0 1 9.92 2.02Z"/><path fill="#407092" d="M31.48 54.816a3.421 3.421 0 1 1-2.564 4.175 3.407 3.407 0 0 1 2.564-4.175"/><path fill="#0592fb" d="M35.994 54.21a5.87 5.87 0 0 0-2.749-1.419l7.045-10.369Z"/><path fill="#fe4155" d="M31.228 41.606a20.97 20.97 0 0 0-13.125 5.436l-6.5-6.5a30.07 30.07 0 0 1 19.617-8.129Z"/><path fill="#fed13b" d="M46.366 47.034a21 21 0 0 0-4.43-3.083l3.229-8.67a31 31 0 0 1 7.7 5.259Z"/><path fill="#fe4155" d="M13.52 20.874v15.477c-1.214.862-2.25 1.762-3.314 2.679-.233.261-.309.108-.378-.194l.012-17.932a17 17 0 0 1 3.68-.03"/><path fill="#e0394b" d="m13.52 20.87-3.44-.008v17.981c.013.112.053.163.127.187-.244.211-.389.553-.825.756V20.823c1.175-.111 2.29-.067 3.477-.081.255 0 .5-.042.664.128"/><path fill="#fe4155" d="M41.218 18.101v13.51l-3.459-.784-.252-.087.031-12.594a17.6 17.6 0 0 1 3.677-.045"/><path fill="#e53b4d" d="m41.222 18.101-3.439.006-.017 12.72a1.6 1.6 0 0 1-.677-.163V18.017l3.582-.047a.72.72 0 0 1 .549.131"/><path fill="#fed13b" d="m51.53 36.743-.249-.344.126-21.919.252-.153h3.425l-.012 25.5c-1.208-1.175-2.327-2.107-3.543-3.091"/><path fill="#e5bc35" d="m51.66 14.327-.13 22.417c-.2-.158-.5-.19-.591-.532V14.359a1.8 1.8 0 0 1 .72-.032"/><path fill="#fed13b" d="M24.167 31.37q-.51.132-.494-.169l.045-16.721.252-.153h3.4v16.38Z"/><path fill="#dfb833" d="m23.969 14.327-.044 16.961c.118.087.213.058.242.081a2.7 2.7 0 0 1-.93.2V14.357a1.9 1.9 0 0 1 .732-.03"/><path d="M41.864 10.835a4.013 4.013 0 0 1-5.388.017 3.62 3.62 0 0 1-1.351-3.044l-6.282-1.67a4.1 4.1 0 0 1-6.669.59l-6.661 3.105-.039 1.476a4.081 4.081 0 1 1-5.862-4.36 4.15 4.15 0 0 1 4.984 1.007l6.661-3.1.035-1.485A4.135 4.135 0 0 1 25.638.014a4.05 4.05 0 0 1 3.7 4.08l6.278 1.684a4.09 4.09 0 0 1 3.477-2.048 4.15 4.15 0 0 1 3.622 2.045L48.962 4.1a4 4 0 1 1 .494 2.041l-6.239 1.688a3.94 3.94 0 0 1-1.353 3.006"/><path fill="#6fd940" d="M11.092 8.613a2.026 2.026 0 1 1 .716 3.989 2.035 2.035 0 0 1-2.332-1.534 2.01 2.01 0 0 1 1.612-2.455m27.558-2.774a2.026 2.026 0 1 1-1.425 2.565 2.02 2.02 0 0 1 1.425-2.565m-13.96-3.658a2.024 2.024 0 1 1-1.275 2.647 2.016 2.016 0 0 1 1.275-2.647m27.689.005a2.025 2.025 0 1 1 1.236 3.856 2.047 2.047 0 0 1-2.5-1.212 2.02 2.02 0 0 1 1.261-2.644"/></g></svg>