<svg xmlns="http://www.w3.org/2000/svg" width="87.024" height="87.025" viewBox="0 0 87.024 87.025"><defs><clipPath id="a"><path fill="none" d="M0 0h87.024v87.025H0z"/></clipPath></defs><g clip-path="url(#a)"><path d="M52.771 45.748a1.41 1.41 0 0 1-1.579-1.228 1.43 1.43 0 0 1 .979-1.724l5.175-1.085c.759-.159 1.468.785 1.519 1.337a1.6 1.6 0 0 1-1.334 1.753Zm-5.546-10.49c-.689.427-1.545-.177-1.846-.659a1.71 1.71 0 0 1 .416-2.105l2.711-3.087a1.56 1.56 0 0 1 1.9-.558 1.45 1.45 0 0 1 .894 1.855 9.5 9.5 0 0 1-1.827 2.28 10.8 10.8 0 0 1-2.25 2.274m3.429 4.99a1.6 1.6 0 0 1-2.18-.314 1.52 1.52 0 0 1 .258-2.105l4.335-2.5a1.52 1.52 0 0 1 1.972.839 1.59 1.59 0 0 1-.763 2ZM36.341 53.301a2.1 2.1 0 0 0-1.037-.762 7.3 7.3 0 0 1-1.933 1.06 1.51 1.51 0 0 1-1.753-.824l-2.68-4.638a2.02 2.02 0 0 1-.389-1.672c.324-1.349 4.492-2.45 6.086-4.521l6.35-8.251a1.49 1.49 0 0 1 1.426-.455 1.9 1.9 0 0 1 1.169 1.04l7.34 12.831a1.532 1.532 0 0 1-.9 2.116l-7.681.964a15 15 0 0 0-4.038.782c1.282 1.032 2.617 1.974 2.393 3.1a1.76 1.76 0 0 1-1.259 1.212c-.705.2-1.188-.259-1.7-.758a15 15 0 0 1-1.4-1.228"/><path fill="#ea4040" d="m33.632 50.07-1.562-2.614c1.979-1.108 3.907-2.14 5.268-3.935l4.556-6.02 5.2 9.016-7.338.916a15.5 15.5 0 0 0-6.132 2.637"/><path d="M82.506 80.918a18.005 18.005 0 0 1-30.35-5.508 25 25 0 0 1-5.706 1h-5.875a23.3 23.3 0 0 1-5.7-1.02 17.65 17.65 0 0 1-4 6.226 18.016 18.016 0 1 1-19.261-29.458 25.7 25.7 0 0 1-1-5.71V40.57a23.2 23.2 0 0 1 1.016-5.686 18.029 18.029 0 1 1 23.253-23.266 25 25 0 0 1 5.689-1h5.878a22.8 22.8 0 0 1 5.7 1.02 18.021 18.021 0 1 1 23.26 23.225 25 25 0 0 1 1 5.7v5.878a23.8 23.8 0 0 1-1.016 5.706 18 18 0 0 1 7.113 28.764M16.345 3.157a14.985 14.985 0 1 0 16.579 13.185A14.96 14.96 0 0 0 16.345 3.157m50.96 0a14.985 14.985 0 1 0 16.579 13.185A14.96 14.96 0 0 0 67.3 3.157M51.052 67.051A18.04 18.04 0 0 1 72.424 51.3a30.7 30.7 0 0 0 .019-15.553 18.066 18.066 0 0 1-21.17-21.1 29.66 29.66 0 0 0-15.533-.056 18.066 18.066 0 0 1-21.156 21.16 30.4 30.4 0 0 0 0 15.549 18.044 18.044 0 0 1 21.173 21.06 28.13 28.13 0 0 0 15.309.053c.384-.281-.018-1.045-.017-1.385ZM16.346 54.116A14.985 14.985 0 1 0 32.924 67.3a14.96 14.96 0 0 0-16.578-13.184m50.959 0A14.985 14.985 0 1 0 83.884 67.3 14.96 14.96 0 0 0 67.3 54.116"/><path fill="#d7e5ed" d="M67.305 54.112a14.985 14.985 0 1 1-13.183 16.719 14.97 14.97 0 0 1 13.183-16.719"/><path d="M72.792 70.691c.011-2.249 1.9-3.771 4.147-4.336a8.6 8.6 0 0 0-3.165-5.536 8.03 8.03 0 0 0-9.46-.078 8.62 8.62 0 0 0-3.274 5.617c2.33.57 4.155 2.179 4.171 4.509l.024 3.377a3.74 3.74 0 1 1-7.48 0l.008-5.63c.01-6.659 4.207-12.366 11.228-12.366s11.216 5.709 11.227 12.366l.009 5.63a3.72 3.72 0 0 1-3.73 3.745h-6.016a1.5 1.5 0 0 1-1.485-1.42 1.415 1.415 0 0 1 1.314-1.557l2.461-.038Z"/><path fill="#bc9bdc" d="M62.249 74.143a.76.76 0 0 1-.672.832.735.735 0 0 1-.824-.74l.012-4.832a1.9 1.9 0 0 1 1.457 1.655Zm13.51.171v-3.257a1.9 1.9 0 0 1 1.455-1.655l.013 4.831a.734.734 0 0 1-.667.741.7.7 0 0 1-.805-.66"/><path fill="#d7e5ed" d="M67.305 3.157a14.985 14.985 0 1 1-13.188 16.71 14.97 14.97 0 0 1 13.188-16.71"/><path d="m76.768 26.29-15.457-.03a2.94 2.94 0 0 1-2.806-2.97V12.778A2.96 2.96 0 0 1 61.5 9.799h14.986a2.96 2.96 0 0 1 2.994 2.981v10.5a3.027 3.027 0 0 1-2.709 3.013"/><path fill="#f5c956" d="m76.474 14.286.016 8.991h-15l.016-8.991 6.512 4.895a1.525 1.525 0 0 0 1.831.081Z"/><path fill="#f5c956" d="m73.337 12.83-4.338 3.339-4.42-3.366Z"/><path fill="#d7e5ed" d="M16.346 3.157a14.985 14.985 0 1 1-13.188 16.71 14.97 14.97 0 0 1 13.188-16.71"/><path d="m25.585 20.326 3.218 3.211a1.643 1.643 0 0 1-.139 2.5 9.12 9.12 0 0 1-13.115.452l-5.971-5.98a9.14 9.14 0 0 1 .356-13.013 1.712 1.712 0 0 1 2.571-.21l3.188 3.156a3.1 3.1 0 0 1 .057 4.524l5.325 5.388a3.075 3.075 0 0 1 4.513-.028"/><path fill="#36d39a" d="m22.025 23.622 1.33-1.281 2.346 2.328a6.233 6.233 0 0 1-8.334-.544l-5.428-5.427a6.24 6.24 0 0 1-.56-8.329l2.346 2.343-1.172 1.163a1.51 1.51 0 0 0-.013 2.166l7.482 7.48a1.424 1.424 0 0 0 2 .1"/><path fill="#d7e5ed" d="M16.346 54.112A14.985 14.985 0 1 1 3.158 70.831a14.97 14.97 0 0 1 13.188-16.719"/><path d="m17.012 76.499-4.748 3.395a1.505 1.505 0 0 1-2.475-1.155l-.015-2.305a4.476 4.476 0 0 1-3.71-4.249l-.029-7.512a4.516 4.516 0 0 1 4.507-4.661h14.984a4.52 4.52 0 0 1 4.506 4.66l-.031 7.528a4.31 4.31 0 0 1-4.09 4.249Z"/><path fill="#bc9bdd" d="m16.094 73.493-3.3 2.3a2.68 2.68 0 0 0-.3-1.709c-.708-.958-2.152-.251-2.964-.98a1.67 1.67 0 0 1-.5-1.3l.01-7.313a1.476 1.476 0 0 1 1.5-1.494h14.981a1.477 1.477 0 0 1 1.5 1.494v7.5a1.477 1.477 0 0 1-1.494 1.492Z"/><path fill="#020202" d="M12.983 66.853a1.48 1.48 0 0 1 1.944.828 1.5 1.5 0 1 1-1.944-.828m4.496 0a1.48 1.48 0 0 1 1.944.828 1.5 1.5 0 1 1-1.944-.828m4.497 0a1.48 1.48 0 0 1 1.944.828 1.5 1.5 0 1 1-1.944-.828"/></g></svg>