<svg xmlns="http://www.w3.org/2000/svg" width="85.985" height="86" viewBox="0 0 85.985 86"><defs><clipPath id="a"><path fill="none" d="M0 0h85.985v86H0z"/></clipPath></defs><g clip-path="url(#a)"><path d="M41.1 0c1.678.021 2.507 1.03 3.327 2.347l15.607.015a4.655 4.655 0 0 1 3.946 3.43l.1 7.779c12.885 1.476 21.12 12.654 19.037 25.422q-1.026 4.207-1.968 8.321a4.38 4.38 0 0 1 2.293 3.168c.266 1.5-.549 4.016-2.048 4.605-.083.033-.168-.06-.161-.055 1.277.9 1 7.518-.134 8.948 2.664 2.767 4.9 6.4 4.831 10.394l.054 11.577-41.977-.008q-.092-6.325.063-12.691a16.35 16.35 0 0 1 13.169-13.691q1.6-1.157-1.212-1.228c-4.7-1.169-8.093-4.212-9.086-9.068a50.7 50.7 0 0 1-.314-9.392 1.43 1.43 0 0 0-.092-1.548 13.4 13.4 0 0 1-4.059-5.117 39 39 0 0 1-3.208 3.4L39.216 46.8A11.77 11.77 0 0 1 28.04 58.6v.784c7.636 1.7 12.424 7.085 13.75 14.691l.15 11.746-.212.154q-20.9.069-41.73-.085V74.15c.225-7.292 6.424-13.278 13.36-14.717l.052-2.992-4.18-2.616C3.982 50.292.094 44.342 0 37.914l.063-4.654C.318 23.191 9.108 14.818 18.9 13.662l.119-9.746C19.281 1.838 20.215.185 22.48 0Z"/><path fill="#656d78" d="M26.176 37.443c-.142.5-1.568.4-1.857.066-.871.209-1.757-1.316-2.084-2.076-.881-2.039-.3-3.742.7-5.57a13 13 0 0 0-1.838-.917c-.42.011-1.276 3.421-1.314 4.065a7.43 7.43 0 0 0 .8 3.838l-.086.544-.181.337a3.77 3.77 0 0 1-2.074-.19l-1.345-2.767a4 4 0 0 1 .164-3.447l.779-1.61-2.452-1.223-.927 1.9a7.76 7.76 0 0 0 .036 5.97 6.02 6.02 0 0 0-3.415 4.854 5.64 5.64 0 0 0 2.783 5.341l-.028 6.365a22 22 0 0 1-6.071-4.53 18.912 18.912 0 0 1 11.891-31.626 4.26 4.26 0 0 0 3.709 2.616l4.638.026.793 3.136a3.14 3.14 0 0 0 3.142 2.383 3.206 3.206 0 0 0 3.034-2.548l.742-2.967h3.344c.145.78.721 1.127 1.084 1.7a9.24 9.24 0 0 1-1.346 11.507 4.51 4.51 0 0 0-2.13-4.306 4.335 4.335 0 0 0-4.8.251 4.34 4.34 0 0 0-4.561-.385c-3.32 1.672-2.635 6.031-1.134 9.264"/><path fill="#e5e8ec" d="M32.266 21.765a.5.5 0 0 1-.313.38.38.38 0 0 1-.468-.281l-1.318-5.246-6.843-.03a1.334 1.334 0 0 1-1.158-1.327V4.199a1.353 1.353 0 0 1 1.333-1.411h16.753a1.315 1.315 0 0 1 1.3 1.276l.017 11.024a1.48 1.48 0 0 1-1.637 1.537l-6.371-.018Z"/><path d="M27.711 11.071h-2.766l.009-2.743 2.74-.007Zm5.541.005h-2.767l.009-2.744 2.741-.005Zm5.54-.001h-2.766l.009-2.742h2.74Z"/><path fill="#cbd0d8" d="m49.577 19.402-6.6-.011a1.1 1.1 0 0 1-.971-.438 4.08 4.08 0 0 0 2.319-3.681l.011-1.385 2.742-.039.027-2.758-2.781-.013V5.533l15.216.007a1.35 1.35 0 0 1 1.4 1.342l.014 11.07a1.364 1.364 0 0 1-1.3 1.424l-6.7.022-1.32 5.204a.52.52 0 0 1-.382.343.52.52 0 0 1-.375-.346Z"/><path fill="#030303" d="M52.639 13.848H49.89l-.021-2.765h2.779Zm5.563-.054-2.772.058-.019-2.767h2.78Z"/><path fill="#b17946" d="M56.182 28.944a3.66 3.66 0 0 1 2 3.457 9.8 9.8 0 0 0-3.16-.56 5.44 5.44 0 0 1-4.1-2.347l-2 1.915a5.6 5.6 0 0 0 .947 1.027 11.8 11.8 0 0 0-1.923 3 10.96 10.96 0 0 1-2.326-13.263l1.762-.025.849 3.272a3.074 3.074 0 0 0 3.02 2.272 3.12 3.12 0 0 0 3.071-2.4l.778-3.128 4.635-.024a4.05 4.05 0 0 0 3.988-4.021l.015-1.423a18.39 18.39 0 0 1 16.21 22.012l-2.093 8.55a3.9 3.9 0 0 0-1.636.894 4.11 4.11 0 0 0-4.124-.816c-.267-.619.1-.868.554-1.212a5.52 5.52 0 0 0 1.8-6.371 5.74 5.74 0 0 0-5.442-3.736l-.331-1.58a5.85 5.85 0 0 0-2.938-7.959l-1.243 2.444a3.28 3.28 0 0 1 1.885 2.115 2.87 2.87 0 0 1-.908 3.064c-.922-1.916-3.127-2.389-4.506-3.442-.955-1.466-1.552-3.555-3.615-4.136Z"/><path fill="#f19dcf" d="M76.755 76.093c3.44-1.725 4.512-5.551 2.711-9.121a12.8 12.8 0 0 1 3.645 9.187v6.96h-36l.019-8.137a12.58 12.58 0 0 1 5.2-9.92 13.7 13.7 0 0 0 12.082 6.984l2.293.008a5.75 5.75 0 0 0 2.72 3.639l4.03 2.059Z"/><path fill="#b17946" d="M73.492 74.565a10.4 10.4 0 0 1-2.359-1.092 3.43 3.43 0 0 1-1.476-4.64l1.191-2.411a8.545 8.545 0 0 1 .578-10.61c.066-.175.339-.637.544-.62a4.34 4.34 0 0 0 4.231-.848 4.3 4.3 0 0 0 1.857.963 8.99 8.99 0 0 1-.874 9.29l-1.193 1.815 1.234 2.485a3.405 3.405 0 0 1-1.543 4.607Z"/><path fill="#f9d46f" d="M73.139 49.911a1.377 1.377 0 1 1-1.051 1.708 1.38 1.38 0 0 1 1.051-1.708m5.536.002a1.377 1.377 0 1 1-1.043 1.7 1.374 1.374 0 0 1 1.043-1.7"/><path fill="#efcfb3" d="M54.764 63.753a8.3 8.3 0 0 1 2.944-1.016 4.247 4.247 0 0 0 3.208-4.86 11 11 0 0 0 5.246-2.951l1.3-1.306-1.937-1.946-1.161 1.149a8.418 8.418 0 0 1-14.492-5.849l.005-7.386a7.87 7.87 0 0 1 2.319-5.573c1.9.844 3.727.358 5.271 1.12l3.456 1.706.056-3a6.83 6.83 0 0 1 3.475 4.047l1.874-.925.452 1.794 2.487.037a2.91 2.91 0 0 1 2.52 1.779 2.8 2.8 0 0 1-.643 3.215 7.3 7.3 0 0 1-1.863 1.051l-.018 6.325a4.6 4.6 0 0 0 .544 2.145l-1.105 1.474a11.08 11.08 0 0 0-.963 11.755 8.9 8.9 0 0 0-1.146 2.727h-2.522a10.66 10.66 0 0 1-9.31-5.514"/><path fill="#010101" d="M53.507 36.139a1.35 1.35 0 0 1 1.8.734 1.382 1.382 0 0 1-2.5 1.169 1.367 1.367 0 0 1 .7-1.9"/><path d="M63.573 48.609a6.91 6.91 0 0 1-7.973.022 3.62 3.62 0 0 1-1.557-2.765 3.54 3.54 0 0 1 1.464-2.99 6.9 6.9 0 0 1 8.022-.086 3.67 3.67 0 0 1 1.569 2.768 3.58 3.58 0 0 1-1.525 3.051"/><path fill="#eabf9b" d="M62.323 45.612c.286.879-2.664 2.4-5.06.833a.91.91 0 0 1-.431-.729c0-1.588 4.886-1.961 5.491-.1"/><path fill="#fbd670" d="m26.028 83.122-2.41-9.613 1.374-3.376 2.127 1.072 2.692-8.01a13.97 13.97 0 0 1 8.974 12.971v6.955Zm-8.079-9.65-2.415 9.647H2.782v-6.954a13.86 13.86 0 0 1 8.969-12.961l2.679 8 2.144-1.065Z"/><path fill="#f19dcf" d="m23.145 83.064-4.742.05 2.065-8.266a.94.94 0 0 1 .635.023Z"/><path fill="#fdc529" d="m19.207 65.672-3.178 1.639-1.551-5.05Zm6.329 1.621L22.3 65.672l4.767-3.394Z"/><path fill="#ea86be" d="M21.267 71.888c-.09.222-.849.248-.926.062l-1.261-3.041c1.671-.982 1.735-.992 3.393-.014Z"/><path d="M24.319 37.508c.088.114.163.348.067.443l-1.809 1.808a12 12 0 0 1-2.074-2.363 8.14 8.14 0 0 1-.024-8.024l.464-.879 2.441 1.22-.779 1.612a4.98 4.98 0 0 0 1.714 6.182"/><path fill="#efcfb3" d="M18.247 37.543a.24.24 0 0 1 .216-.123l2.039-.024a1.82 1.82 0 0 1 1.135.945l.944.94 1.738-1.772a5.7 5.7 0 0 1 1.857-.066c.067.145.174.45.341.53l2.432-1.2c-1.1-2.1-2.016-5.515-.259-6.174a1.64 1.64 0 0 1 1.809.473l1.363 1.356 1.557-1.525a1.5 1.5 0 0 1 1.747-.247 1.55 1.55 0 0 1 .855 1.413v14.9a8.415 8.415 0 0 1-14.32 6.024l-1.331-1.315-1.932 1.943 1.126 1.144a11.3 11.3 0 0 0 5.377 3.106l-.03 2.42-4.147 3.1-4.141-3.144V44.861l-1.286-.644a2.83 2.83 0 0 1-1.426-3.171 2.63 2.63 0 0 1 2.406-2.23l2.516-.057Z"/><path fill="#010101" d="M31.225 36.183a1.378 1.378 0 0 1 1.277 2.443 1.41 1.41 0 0 1-1.8-.464 1.38 1.38 0 0 1 .522-1.979"/><path d="M30.342 48.594a6.94 6.94 0 0 1-7.884.123 3.527 3.527 0 0 1 .005-6 6.935 6.935 0 0 1 7.835.082 3.63 3.63 0 0 1 1.552 2.763 3.54 3.54 0 0 1-1.509 3.029"/><path fill="#eabf9b" d="M29.046 45.567c.249 1.182-2.949 2.37-5.1.809a1 1 0 0 1-.389-.661c0-.985 2.855-2.108 5.071-.725a.97.97 0 0 1 .416.576"/></g></svg>