<svg xmlns="http://www.w3.org/2000/svg" width="85.983" height="86" viewBox="0 0 85.983 86"><defs><clipPath id="a"><path fill="none" d="M0 0h85.983v86H0z"/></clipPath></defs><g clip-path="url(#a)"><path fill="#5eab24" d="M80.279 86.001H60.147c-.131-.016-.33-.063-.334-.154-.245-5.123-.307-11.515 6-12.9q3.633-.261 7.266-.159c3.49.349 6.289 1.862 7.253 5.482a35.3 35.3 0 0 1 .279 7.485Z"/><path d="M76.813 67.379a1.38 1.38 0 0 1-.458 1.515l-.94 1.088.055.171a10.32 10.32 0 0 1 7.9 8.724l.091 6.919-.333.2h-2.852l-.034-5.88a7.1 7.1 0 0 0-7.167-7h-5.72a7.2 7.2 0 0 0-7.152 7.342l-.058 5.536h-2.852l.065-6.663a10.13 10.13 0 0 1 8.584-9.042 6.96 6.96 0 0 1-2.279-2.915.8.8 0 0 1-.462-.258c-.9-1.175-.338-4.574.285-5.872 3.361-7 13.945-4.8 14.226 2.975.035.966-.017 2.7-.9 3.154"/><path fill="#5eab24" d="M69.876 60.259a4.287 4.287 0 1 1-3.895 4.815 4.27 4.27 0 0 1 3.895-4.815"/><path fill="#87f136" d="M80.258 67.377h-3.446a7.23 7.23 0 0 0-2.1-8.461 7.168 7.168 0 0 0-11.046 8.462h-3.451v-5.689a7.135 7.135 0 0 1 7.141-7.181h5.718a7.14 7.14 0 0 1 7.18 7.159Z"/><path d="M77.293 44.564a7.13 7.13 0 0 1-2.773 7.127 10.226 10.226 0 0 1 8.626 9.129l-.015 6.554h-2.873l-.336-.2-.059-6.392a6.78 6.78 0 0 0-5.072-5.736 37.3 37.3 0 0 0-7.612-.208c-4.058.431-6.186 2.629-6.627 6.667v5.62l-.335.244h-2.943l.088-6.663a10.025 10.025 0 0 1 8.631-8.99 7.08 7.08 0 0 1-2.791-7.144 7.174 7.174 0 0 1 14.094-.012"/><path fill="#87f136" d="M70.025 41.635a4.287 4.287 0 1 1-4.063 4.655 4.27 4.27 0 0 1 4.063-4.655"/><path fill="#010101" d="M85.983.1v45.8l-.013.224c-.844.125-7.069.263-7.356-.017-.229-.223-.329-1.516.177-1.548-.564-.147-.406-1.525.013-1.8l3.969-.055q.066-19.715-.057-39.4H3.426l-.132.124q-.066 19.672.063 39.28l3.848.029c.508.239.628 1.61.078 1.825.6.248.45 1.357-.115 1.681q-3.509.006-7.02-.014L0 46.013.008.043Q43.027-.065 85.983.1"/><path d="m61.652 44.629-.015 1.276H51.616l-.008-1.344.022-1.512h10.006Zm-27.186 0-.008 1.276H24.431l-.012-1.411.019-1.444h10Z"/><path fill="#f0f1f1" d="M78.792 44.561h-1.5l-.411-.285a6.843 6.843 0 0 0-13.279.014l-.4.284-1.546.052-.224-.01a3.9 3.9 0 0 1-.167-1.233h-9.2a1.6 1.6 0 0 0-.122.956l-.339.22-1.508.01-.414-.284a6.854 6.854 0 0 0-13.3 0l-.413.283-1.505.059-.224-.009a4 4 0 0 1-.172-1.234h-9.191a1.3 1.3 0 0 1-.458 1.109l-1.548.083-.4-.284a6.844 6.844 0 0 0-13.281-.016l-.411.283H7.282l-.03-1.507-4.3-.01.007-40.067h80.152l.011 40.067-4.3.01Z"/><path d="M42.028 8.757a10.014 10.014 0 1 1-8.946 11.087 10 10 0 0 1 8.946-11.087"/><path fill="#fecc00" d="M50.021 20.11a7 7 0 0 1-4.747 5.386 6.93 6.93 0 0 1-7.486-2c1.979-.854 3.637-2.577 5.715-3.179Z"/><path fill="#d70027" d="m41.615 17.876-5.3 3.207a7.11 7.11 0 0 1 5.278-9.37Z"/><path fill="#2487fe" d="M50.037 17.276h-5.559v-5.56a7.12 7.12 0 0 1 5.562 5.562"/><path d="m32.233 14.166-3.89-2.577-2.479-.023-.005 17.173H5.81V5.831h20.048l.019 2.853 3.331.031 4.6 3.061Z"/><path fill="#d70027" d="m23 25.869-14.323.009-.006-17.189h14.314Z"/><path fill="#020000" d="M21.566 23.01h-7.15v-2.869h7.141Z"/><path d="M14.397 15.852h7.158v2.864h-7.158z"/><path fill="#010000" d="m21.561 14.405-7.136.019-.01-2.864 7.142-.015Z"/><path fill="#030001" d="m12.982 22.956-2.874.053v-2.86l2.836-.008Z"/><path fill="#010000" d="m12.97 14.412-2.849-.005-.014-2.828 2.866-.029Zm.01 4.296-2.854.006-.011-2.852h2.861Z"/><path d="m56.886 31.607-6.117-4.587 1.719-2.282 5.351 4 2.349.005.024-4.294h20.049v11.444H60.232l-.031-4.282Z"/><path fill="#fecc00" d="m77.398 33.013-14.318.022-.005-5.727 14.323-.011Z"/><path fill="#020100" d="m74.536 31.599-2.844.006-.012-2.853 2.823-.016Z"/><path fill="#020200" d="m68.811 31.575-2.835.028-.019-2.849 2.835-.017Z"/><path d="m61.644 13.006-8.563-.018-.008-2.862h8.569l.012-4.294H80.26V17.28h-18.6Z"/><path fill="#2487fe" d="m77.399 14.397-12.888.026V8.689h12.886Z"/><path fill="#000001" d="M70.237 12.988h-2.863v-2.845l2.855-.011Z"/><path fill="#5eab24" d="M53.103 85.999H32.969c-.132-.036-.329-.1-.334-.2-.124-2.891-.269-7.5 1.393-9.856 1.617-2.3 3.568-2.913 6.225-3.159a38 38 0 0 1 7.164.152 7.44 7.44 0 0 1 5.6 4.955c.546 1.692.5 5.941.413 7.858Z"/><path d="M49.611 67.377a7.9 7.9 0 0 1-2.236 2.938 10.144 10.144 0 0 1 8.585 9.965l-.008 5.719h-2.849l-.055-5.871a7.09 7.09 0 0 0-7.149-7.007h-5.725a7.09 7.09 0 0 0-7.151 7.006L32.969 86h-2.853l.056-6.687a10.1 10.1 0 0 1 8.523-8.989 8.1 8.1 0 0 1-2.238-2.945.8.8 0 0 1-.461-.259c-.891-1.175-.328-4.578.294-5.873 3.384-7.037 14-4.752 14.225 3.055.027.943-.029 2.655-.9 3.077"/><path fill="#5eab24" d="M42.699 60.256a4.286 4.286 0 1 1-3.928 4.738 4.263 4.263 0 0 1 3.928-4.738"/><path fill="#87f136" d="M53.055 67.376h-3.447a7.246 7.246 0 0 0-2.089-8.451 7.156 7.156 0 0 0-8.88-.075 7.24 7.24 0 0 0-2.186 8.526H33.01v-5.71a7.13 7.13 0 0 1 7.16-7.161h5.719a7.13 7.13 0 0 1 7.157 7.163Z"/><path d="M50.097 44.572a7.19 7.19 0 0 1-2.744 7.119 10.12 10.12 0 0 1 8.524 8.863l.105 6.818h-2.928l-.335-.2-.005-5.689c-.359-3.4-2.116-5.864-5.6-6.545a43 43 0 0 0-7.811-.052 6.75 6.75 0 0 0-5.894 5.9l-.057 6.339-.335.245h-2.926l.083-6.682a10.13 10.13 0 0 1 8.543-9 7.2 7.2 0 1 1 11.383-7.12"/><path fill="#87f136" d="M42.853 41.632a4.288 4.288 0 1 1-4.1 4.6 4.273 4.273 0 0 1 4.1-4.6"/><path fill="#5eab24" d="M25.922 85.998H5.79c-.132-.036-.33-.1-.335-.2-.145-2.942-.3-7.457 1.409-9.871 1.613-2.276 3.491-2.868 6.127-3.148a39 39 0 0 1 7.249.156 7.43 7.43 0 0 1 5.585 4.989c.542 1.7.512 5.9.43 7.82Z"/><path d="M22.406 67.381a7.46 7.46 0 0 1-2.217 2.929 10.14 10.14 0 0 1 8.584 9.977V86h-2.852l-.073-5.83a7.1 7.1 0 0 0-7.133-7.046h-5.722a7.15 7.15 0 0 0-7.18 7.165l-.024 5.715H2.938l.061-6.858a10.03 10.03 0 0 1 8.525-8.832 7.4 7.4 0 0 1-2.268-2.93c-.882-.444-.938-2.172-.907-3.132.313-9.571 14.705-9.538 14.965.057.025.943-.033 2.656-.909 3.076"/><path fill="#5eab24" d="M15.52 60.254a4.287 4.287 0 1 1-3.96 4.638 4.263 4.263 0 0 1 3.96-4.638"/><path fill="#87f136" d="M25.856 67.377h-3.45a7.23 7.23 0 0 0-2.073-8.442 7.17 7.17 0 0 0-11.075 8.441H5.814v-5.715a7.14 7.14 0 0 1 7.178-7.154l5.876.011a7.075 7.075 0 0 1 6.982 7.169Z"/><path d="M22.87 44.577a7.07 7.07 0 0 1-2.792 7.142 10.01 10.01 0 0 1 8.632 8.993l.087 6.661h-2.942l-.335-.151v-5.711c-.432-3.977-2.457-6.2-6.471-6.658l-6.052-.011c-3.676.349-6.176 2.137-6.793 5.945l-.056 6.343-.336.245H2.904l.094-6.848a10.084 10.084 0 0 1 8.543-8.83 7.182 7.182 0 1 1 11.329-7.12"/><path fill="#87f136" d="M15.677 41.632a4.287 4.287 0 1 1-4.131 4.5 4.27 4.27 0 0 1 4.131-4.5"/></g></svg>