<svg xmlns="http://www.w3.org/2000/svg" width="70.49" height="50.685" viewBox="0 0 70.49 50.685"><defs><clipPath id="a"><path fill="none" d="M0 0h70.49v50.684H0z"/></clipPath></defs><g clip-path="url(#a)"><path d="m0 40.883.022-3.144a11.32 11.32 0 0 1 8.2-9.272V9.253a4.8 4.8 0 0 1 3.866-3.88h2.87L15 2.476A2.97 2.97 0 0 1 18.187.013 3.016 3.016 0 0 1 21 2.927l.036 2.448h7.294l.024-2.6A2.76 2.76 0 0 1 29.475.708 2.87 2.87 0 0 1 32.53.243a2.75 2.75 0 0 1 1.824 2.277l.054 2.853h7.415l.042-2.9a2.97 2.97 0 0 1 3.183-2.46 3.015 3.015 0 0 1 2.816 2.915l.033 2.43 2.756.043a4.61 4.61 0 0 1 3.833 3.822l.028 2.1c0 .139.232.16.322.113a.43.43 0 0 0 .206-.29l.309-1.336a1.15 1.15 0 0 1 1.07-.885 9.4 9.4 0 0 1 3.548.1.92.92 0 0 1 .5.57l.5 1.825a10 10 0 0 1 1.942.764l1.337-.786a1.13 1.13 0 0 1 1.411.06 13 13 0 0 1 2.415 2.516c.244.359.015.9-.162 1.206l-.77 1.32a6.6 6.6 0 0 1 .8 1.882l1.751.465a1.14 1.14 0 0 1 .785 1.131l.014 2.219c0 .484.021 1.414-.478 1.568l-1.994.616a18 18 0 0 1-.873 1.965l.864 1.454c.353.594.07 1.07-.289 1.52a12.5 12.5 0 0 1-1.793 1.8 1.44 1.44 0 0 1-1.829.18l-1.194-.739a9 9 0 0 1-1.932.841l-.6 2.019c-.31.56-2.013.6-3.129.482-.547-.057-1.254.108-1.639-.443-.6-.855-.239-2.233-1.108-2.182l.006 11.549a4.705 4.705 0 0 1-3.88 3.873H19.833a11.27 11.27 0 0 1-12.2 3.4A11.39 11.39 0 0 1 0 40.883"/><path fill="#f92d2d" d="M11.07 14.177c-.108-.011-.271-.043-.277-.119a23 23 0 0 1 .1-5.055 2.27 2.27 0 0 1 .936-1.487 2.2 2.2 0 0 1 .809-.218h2.325v2.213a3.02 3.02 0 0 0 2.865 3.114 2.93 2.93 0 0 0 3.106-2.833l.012-2.5h7.438l.021 2.461a2.95 2.95 0 0 0 3.032 2.875 2.986 2.986 0 0 0 2.941-2.98l.011-2.356h7.438l.005 2.357a2.98 2.98 0 0 0 3.094 2.975 3.02 3.02 0 0 0 2.876-3.112l-.008-2.211 2.177-.009a2.653 2.653 0 0 1 2.615 2.621v4.269Z"/><path fill="#384767" d="M32.446 9.574a1.094 1.094 0 0 1-1.023 1.13 1.066 1.066 0 0 1-1.105-1.089V3.06a1.062 1.062 0 1 1 2.123-.019Z"/><path fill="#384868" d="M45.876 9.583a1.063 1.063 0 1 1-2.124.063V3.032a1.057 1.057 0 1 1 2.113 0ZM19.007 9.58a1.06 1.06 0 0 1-1.07 1.121 1.044 1.044 0 0 1-1.049-1.056V3.029a1.056 1.056 0 0 1 1.052-1.046 1.037 1.037 0 0 1 1.062 1.047Z"/><path fill="#d71f1f" d="M11.826 7.516a5.16 5.16 0 0 0-.818 2.955l.063 3.706-.912-.012.008-4.249a2.55 2.55 0 0 1 1.658-2.4"/><path fill="#dee9f3" d="M18.656 28.619v2.26a13.5 13.5 0 0 0-3.643-2.187Z"/><path fill="#1a97ce" d="M11.412 28.086q-.543-.021-.667-.288l.049-11.53.276-.165h41.518l.011 25.9a2.68 2.68 0 0 1-2.8 2.789l-28.684-.006a11.26 11.26 0 0 0-.527-11.714v-5.371a1.01 1.01 0 0 0-1.063-1.006l-5.655.048c-.685.006-.894.892-.761 1.481Z"/><path fill="#1083b4" d="m11.071 16.102-.05 11.791.392.192-1.25.018V16.137Z"/><path d="M19.526 25.789h-5.384a.987.987 0 0 1-1.053-1.005v-5.486a.99.99 0 0 1 1.052-1.009h5.386a1 1 0 0 1 1.058 1.009v5.487a.993.993 0 0 1-1.059 1"/><path fill="#dfebf5" d="m18.67 23.834-3.639.02-.015-3.619 3.629-.016Z"/><path d="M48.591 25.792h-5.384a.983.983 0 0 1-1.038-.91l.014-5.673a.953.953 0 0 1 1.021-.913h5.388a1 1 0 0 1 1.074 1.01v5.488a1 1 0 0 1-1.074 1.007"/><path fill="#dfebf5" d="m47.75 23.836-3.645.022-.01-3.618 3.65-.011Z"/><path d="M48.663 34.188h-5.457a.98.98 0 0 1-1.036-.911v-5.67a.984.984 0 0 1 1.042-.913h5.384a1 1 0 0 1 1.074 1.009v5.491a.973.973 0 0 1-1 1"/><path fill="#dfebf5" d="m47.749 32.238-3.644.022-.01-3.618 3.65-.011Z"/><path d="M48.663 42.591h-5.451a.98.98 0 0 1-1.036-.911v-5.672a.98.98 0 0 1 1.036-.913h5.384a1 1 0 0 1 1.074 1.01v5.486a.973.973 0 0 1-1 1"/><path fill="#dfebf5" d="m47.75 40.646-3.644.023-.011-3.63 3.65-.011Z"/><path d="M29.369 25.784h-5.58a.96.96 0 0 1-1-.987v-5.513a.96.96 0 0 1 1-.989h5.513a.956.956 0 0 1 .978.986v5.513a.96.96 0 0 1-.91.987"/><path fill="#e0ecf6" d="m28.357 23.843-3.62.005v-3.616l3.612-.008Z"/><path d="M29.369 34.187h-5.581a.96.96 0 0 1-1-.987v-5.512a.96.96 0 0 1 1-.99h5.513a.956.956 0 0 1 .978.985v5.513a.957.957 0 0 1-.91.987"/><path fill="#e0ecf6" d="m28.357 32.245-3.62.005v-3.616l3.612-.008Z"/><path d="M29.368 42.589h-5.581a.96.96 0 0 1-1-.987V36.09a.96.96 0 0 1 1-.99h5.514a.955.955 0 0 1 .978.987V41.6a.955.955 0 0 1-.91.987"/><path fill="#e0ecf6" d="m28.358 40.648-3.62.005v-3.622l3.611-.01Z"/><path d="M39.135 42.589h-5.706a.96.96 0 0 1-.951-.98v-5.52a.96.96 0 0 1 .952-.982l5.518-.01a.96.96 0 0 1 1.023.994v5.515a.97.97 0 0 1-.836.984"/><path fill="#dfebf5" d="m38.05 40.644-3.614.031-.028-3.637 3.629-.013Z"/><path d="M39.134 25.782h-5.706a.96.96 0 0 1-.951-.979V19.28a.96.96 0 0 1 .951-.981h5.645a.966.966 0 0 1 .9.986v5.516a.97.97 0 0 1-.836.984"/><path fill="#dfebf5" d="m38.05 23.835-3.639.014v-3.612l3.627-.01Z"/><path d="M39.134 34.185h-5.706a.96.96 0 0 1-.951-.98v-5.522a.96.96 0 0 1 .952-.981h5.643a.967.967 0 0 1 .9.985v5.517a.97.97 0 0 1-.836.984"/><path fill="#dfebf5" d="m38.05 32.238-3.639.014V28.64l3.627-.01Z"/><path fill="#7f8ea3" d="m58.79 10.888.385 1.533c.222.886 1.481.695 3.213 1.741a1.09 1.09 0 0 0 1.16-.024l1.356-.771 1.084 1.113-.822 1.418c-.486.838.561 1.545 1.039 3.546a1.02 1.02 0 0 0 .754.74l1.555.383a5.8 5.8 0 0 1-.021 1.658l-1.568.383c-.889.217-.692 1.479-1.794 3.309a.98.98 0 0 0 .057 1l.787 1.346a4.4 4.4 0 0 1-1.141 1.147l-1.245-.744a1.16 1.16 0 0 0-1.247-.027c-1.806 1.085-2.928.777-3.185 1.78l-.391 1.509-1.305.03-.147-.062a3.44 3.44 0 0 0-.6-1.613c-.209-.795-1.351-.669-2.2-1.188l.061-1.729a6.868 6.868 0 1 0-.044-11.934v-1.787l1.626-.554c.435-.148.454-.575.724-.819a4.6 4.6 0 0 0 .437-1.253 1.64 1.64 0 0 1 1.472-.133"/><path fill="#e0ecf6" d="M54.53 24.944v-7.107a4.934 4.934 0 1 1 0 7.107"/><path fill="#6d7b8d" d="m58.789 10.888-1.255-.008-.247 1.083c-.063.279-.305.221-.4.309a2.5 2.5 0 0 1 .309-1.359 1.91 1.91 0 0 1 1.6-.027"/><path fill="#717f92" d="M57.463 31.961c-.107 0-.3.028-.347-.139l-.4-1.535c.687.315.634.869.751 1.675"/><path fill="#faa515" d="M6.489 47.407c-1.363-1.065-3.023-2.863-3.339-4.614a.6.6 0 0 1 .128-.629c.1-.1.289-.183.338-.1 3.077 8.177 15.307 6.427 15.632-2.385.323-8.748-11.6-11.523-15.318-3.675l-.4.219c-.332.155-.441-.084-.355-.42a9.2 9.2 0 0 1 3.264-4.455 9.345 9.345 0 1 1 .049 16.059"/><path fill="#e59815" d="M6.44 31.347a12.4 12.4 0 0 0-3 4.524.34.34 0 0 0 .091.35c.3.4-.093 1.584-.5 1.839q-.193.1-.043.507c.439.111.424 1.5 0 1.655-.1.24-.1.51.035.538.574.023.661 1.088.254 1.4a10.86 10.86 0 0 0 3.211 5.243 9.334 9.334 0 0 1-.049-16.059"/><path d="M3.278 42.163c-.09-.438.022-.991-.254-1.4-.168-.026-.119-.376-.035-.537v-1.655q-.153-.355.042-.507a9 9 0 0 1 .5-1.839 8.326 8.326 0 1 1 .082 6.412c-.1-.234-.131-.416-.335-.47"/><path fill="#f09f15" d="m3.027 38.061-.042.507a.8.8 0 0 1-.066-.837c.137.14.083.261.109.329"/><path fill="#f19f15" d="M3.023 40.761c-.2.179-.18-.009-.184-.089-.01-.169.01-.447.149-.448Z"/><path fill="#e0ecf6" d="M7.716 44.665a7.022 7.022 0 0 1 .363-10.824 6.363 6.363 0 1 1-.363 10.824"/><path fill="#cad3dc" d="M8.078 33.84a7.62 7.62 0 0 0-.364 10.824 6.356 6.356 0 0 1 .364-10.824"/><path d="m14.204 40.317-2.938.012a.994.994 0 0 1-1-1.063v-4.147a1 1 0 0 1 .931-1.075.95.95 0 0 1 1 .949l.012 3.41 1.949.009a.954.954 0 0 1 .049 1.906"/></g></svg>