<svg xmlns="http://www.w3.org/2000/svg" width="80.344" height="86" viewBox="0 0 80.344 86"><defs><clipPath id="a"><path fill="none" d="M0 0h80.344v86H0z"/></clipPath></defs><g clip-path="url(#a)"><path d="M35.087.044a7.71 7.71 0 0 1 6 4.825l7.715.1c.814.011.982 1.4.9 2.066l13.417.029a5.25 5.25 0 0 1 4.557 4.079l.035 9.082 2.09-3.488a5.1 5.1 0 0 1 7.426-1.226 4.98 4.98 0 0 1 2.489 6.953L67.692 43.341l.008 38.426A5.21 5.21 0 0 1 63.463 86H4.418A5.2 5.2 0 0 1 0 81.552L.042 11.62a4.89 4.89 0 0 1 4.491-4.48L18.208 7c-.243-.772.028-2.05.788-2.058l7.658-.086A8.2 8.2 0 0 1 32.422 0Z"/><path fill="#827582" d="m65.025 47.977-2.5 4.281v27.169a1.33 1.33 0 0 1-1.363 1.365h-3.325l-51.406-.01a1.27 1.27 0 0 1-1.181-1.236l-.013-65.734a1.367 1.367 0 0 1 1.338-1.5l11.568-.017V9.789l-12.9.01a2.426 2.426 0 0 0-2.508 2.505l.006 68.609a2.38 2.38 0 0 0 2.5 2.4h52.454l4.967-.015a2.39 2.39 0 0 0 2.376-2.529Z"/><path fill="#e2a66e" d="M55.8 49.782a4.8 4.8 0 0 1-1.45-.812l17.7-30.637a2.22 2.22 0 0 1 2.534-1.089Z"/><path fill="#e1a66e" d="M77.15 18.807c-.041-.062-.089-.141-.151-.142-.141 0-.14.011-.238.18L58.155 51.082c-.031.281.986.881 1.44.825l17.526-30.348a2.43 2.43 0 0 0 .03-2.753"/><path fill="#665c66" d="m57.318 53.849-3.463 2-.01-4Z"/><path fill="#827582" d="M65.038 12.254a2.35 2.35 0 0 0-2.289-2.433l-13.181-.076-.02 2.195a.4.4 0 0 0 .178.349h8.075l3.338.017a1.334 1.334 0 0 1 1.382 1.3l.03 15.682 2.5-4.248Z"/><path fill="#e2a66e" d="m46.936 14.553-26.084.022-.005-7.022 6.864-.012a1.356 1.356 0 0 0 1.31-1.044 5.007 5.007 0 0 1 9.709-.047 1.394 1.394 0 0 0 1.417 1.099h6.737Z"/><path fill="#010101" d="M33.413 4.949a1.66 1.66 0 0 1 2.078 1.134 1.676 1.676 0 0 1-3.152 1.122 1.652 1.652 0 0 1 1.074-2.256"/><path fill="#ebeef0" d="m59.839 55.565-2.061 1.173-4.746 2.673a1.3 1.3 0 0 1-1.332-.142 1.4 1.4 0 0 1-.548-1.083v-9.023l6.713-11.683 1.967-3.412V15.01l-10.257-.062v1.36a1.43 1.43 0 0 1-1.252.946H19.235c-.966-.326-1.244-1.174-1.017-2.256l-10.29-.015.01 63.108 49.858.012 2.047-.032Z"/><path d="m50.28 44.481-15.5.036a1.349 1.349 0 1 1 0-2.694h15.265a1.324 1.324 0 0 1 1.342 1.125c.1.573-.24 1.529-1.111 1.531m-.147 20.167-15.343.014a1.348 1.348 0 1 1 0-2.692h15.266a1.31 1.31 0 0 1 1.357 1.277 1.3 1.3 0 0 1-1.278 1.4m.001-36.571-15.352.02a1.35 1.35 0 1 1 .017-2.7l15.385.021a1.33 1.33 0 0 1-.051 2.656m-7.797 5.874h-7.56a1.347 1.347 0 1 1 0-2.691h7.556a1.35 1.35 0 0 1 1.391 1.258 1.33 1.33 0 0 1-1.387 1.433m.079 16.424-7.636.011a1.347 1.347 0 0 1-1.405-1.257 1.3 1.3 0 0 1 1.244-1.415l7.716-.02a1.341 1.341 0 1 1 .081 2.68m-.018 20.136-7.607.011a1.348 1.348 0 1 1-.021-2.693h7.571a1.33 1.33 0 0 1 1.38 1.292 1.306 1.306 0 0 1-1.327 1.389m-15.295-5.161-.009 4.043a3.49 3.49 0 0 1-3.443 3.6h-6.63a3.49 3.49 0 0 1-3.445-3.6l.011-6.4a3.44 3.44 0 0 1 3.387-3.476h6.72a3.49 3.49 0 0 1 3.224 2.379l2.145-1.925a1.354 1.354 0 1 1 1.824 2Z"/><path fill="#89c8fd" d="m23.255 68.865 1.084-1.008.054 1.527a.88.88 0 0 1-.906.926h-6.318a.88.88 0 0 1-.913-.94l.015-6.385a.837.837 0 0 1 .873-.824l6.808.117c.539.128.672 1.6.3 1.962l-1.835 1.775-2.328-2.289a1.3 1.3 0 0 0-1.806-.013 1.32 1.32 0 0 0-.08 1.9l3.182 3.195a1.35 1.35 0 0 0 1.869.048"/><path d="m27.108 47.051-.03 4.194a3.44 3.44 0 0 1-3.405 3.456h-6.69a3.43 3.43 0 0 1-3.4-3.458v-6.576a3.435 3.435 0 0 1 3.4-3.45h6.684a3.51 3.51 0 0 1 3.246 2.377l2.454-2.128a1.275 1.275 0 0 1 1.821.465 1.416 1.416 0 0 1-.387 1.809Z"/><path fill="#6bf4c1" d="m23.265 50.566 1.084-.923-.008 1.759c0 .341-.5.611-.856.612l-6.344.018a.824.824 0 0 1-.872-.808v-6.543a.85.85 0 0 1 .873-.8l6.786.127c.568.079.706 1.6.337 1.947l-1.861 1.764-2.324-2.277a1.337 1.337 0 0 0-1.889 1.882l3.187 3.2a1.373 1.373 0 0 0 1.89.048"/><path d="m27.095 28.802-.015 4.126a3.5 3.5 0 0 1-3.55 3.509h-6.4a3.5 3.5 0 0 1-3.55-3.511l-.011-6.4a3.5 3.5 0 0 1 3.474-3.6h6.574a3.51 3.51 0 0 1 3.311 2.425l2.165-1.98a1.341 1.341 0 1 1 1.806 1.98Z"/><path fill="#fd636e" d="M21.504 32.337a1.23 1.23 0 0 0 1.538.109l1.306-1.1.03 1.579a.83.83 0 0 1-.864.824l-6.515-.016a.783.783 0 0 1-.732-.8l-.009-6.4a.85.85 0 0 1 .778-.913h6.586c.97 0 .928 1.847.619 2.127l-1.864 1.688-2.225-2.218a1.341 1.341 0 1 0-1.893 1.9Z"/></g></svg>