<svg xmlns="http://www.w3.org/2000/svg" width="90.029" height="87.025" viewBox="0 0 90.029 87.025"><defs><clipPath id="a"><path fill="none" d="M0 0h90.029v87.025H0z"/></clipPath></defs><g clip-path="url(#a)"><path fill="#f69494" d="M87.305 7.628a1.544 1.544 0 0 0-1.082-1.544 5.4 5.4 0 0 0-1.534-.051h-7l-.007 1.6a1.345 1.345 0 0 1-1.189 1.366 1.32 1.32 0 0 1-1.434-1.226l-.035-1.754h-7.778l-.038 1.749a1.315 1.315 0 0 1-2.626-.128V6.03h-7.818l-.011 1.6a1.316 1.316 0 0 1-1.193 1.362 1.28 1.28 0 0 1-1.433-1.2l-.032-1.776-7.768.01-.042 1.676a1.35 1.35 0 0 1-1.239 1.303 1.29 1.29 0 0 1-1.371-1.158l-.057-1.82-7.772-.01-.016 1.612a1.33 1.33 0 0 1-1.313 1.366 1.316 1.316 0 0 1-1.329-1.367l-.012-1.6h-7.818v1.609a1.356 1.356 0 0 1-1.212 1.368 1.3 1.3 0 0 1-1.385-1.1l-.063-1.886h-7.777l-.035 1.753a1.313 1.313 0 0 1-2.621-.137l-.009-1.618-8.39.06c-1.688.012-.95 2.632-1.482 3.463a1.35 1.35 0 0 1-1.146.56l-.006 3.359c.537.047 1.342.379 1.355 1.045l.075 3.725 82.4-.006 2.249-.026Z"/><path d="m86.031 2.954-7.855-.077c.377-3.716-4.035-3.9-3.515-.046a65 65 0 0 1-7.016-.038c.435-3.723-3.945-3.706-3.53-.011-.2.295-6.213.075-7.031-.01.647-3.731-4.034-3.654-3.317.047q-3.542.158-7.024-.017c.34-3.877-3.9-3.616-3.645.084h-6.819Q36.5-.052 34.253.067 32.5.354 32.832 2.891q-3.44.076-6.925-.014c.257-3.735-3.979-3.925-3.613-.026a65 65 0 0 1-7.017-.079c.428-3.856-3.794-3.532-3.6.108l-7.6.052C2 3.226.207 4.08 0 6.4v77.114c.226 2.262 2.052 3.231 4.124 3.491l81.465.02c2.258-.3 4.383-1.332 4.44-3.882V6.772c-.344-2.459-1.57-3.424-4-3.818m.92 14.9-1.745.02-.149.353-.219-.352q-40.922.019-81.832-.012l-.063-9.924a.5.5 0 0 0 .1-.394c.061-.546.2-1.137.847-1.118l7.986-.053c-.435 3.948 3.826 4.047 3.392.051a61 61 0 0 1 7.094.059c-.484 3.841 3.841 3.874 3.352-.015.859-.045 6.9-.268 7.117.019-.47 3.865 3.845 3.826 3.365-.028.852-.06 6.871-.253 7.088.033-.464 3.813 3.794 3.87 3.389 0 .826-.1 6.876-.3 7.084-.006-.51 3.875 3.892 3.813 3.36-.058q3.586-.148 7.117.041c-.488 3.914 3.853 3.833 3.358-.045a61 61 0 0 1 7.089.059c-.459 3.878 3.867 3.848 3.356-.053q3.377.008 6.642-.164l.014-.234.309.343c1.03-.094 1.785 0 1.957 1.179Z"/><path fill="#fef2dd" d="m35.081 83.88-14.518.021V59.686h14.515ZM69.38 69.628l-14.518.014V47.111H69.38Zm-6.075 7.548a1.33 1.33 0 0 0 1.33 1.318h4.716l.024 5.4-14.5.006-.008-5.4 3.636-.01a1.206 1.206 0 0 0 1.228-.936.7.7 0 0 1 .682-.384Zm-11.082 6.711-14.5.014-.01-5.4 14.489-.006ZM35.078 50.825l-14.508.006v-3.72h14.51Zm17.128.002H37.74l-.007-3.723h14.472Zm.007 18.813H37.728v-3.725h14.48Z"/><path fill="#c0e8ae" d="m69.358 72.275-31.221-.006a.46.46 0 0 0-.412.18l.017 3.418 20.805.013a1.31 1.31 0 0 1 1.016.526 1.44 1.44 0 0 1 .165 1.15q1.677-.043 3.418-.028l.154-.351a1.356 1.356 0 0 1 1.412-1.3l2.224-.036 2.435-.031Z"/><path fill="#f59494" d="m52.201 59.669-3.2-.032-10.885-.023a.45.45 0 0 0-.384.185l-.015 3.338a.5.5 0 0 0 .4.183l14.1-.062Z"/><path fill="#c3e1fe" d="M32.719 34.667 9.96 34.655v3.582l22.62-.007 2.478.01.027-3.562Z"/><path fill="#fde87d" d="M49.875 53.476h-29.3v3.571h29.167l2.471-.014.007-3.544Z"/><path fill="#fef2dd" d="M7.285 39.006a1.74 1.74 0 0 0 1.676 1.857l8.963.021v43.009H4.215a1.524 1.524 0 0 1-1.585-1.485V20.867h15.293v11.158h-8.8a1.734 1.734 0 0 0-1.834 1.77Z"/><path fill="#010000" d="m12.741 28.89-3.963.021a1.35 1.35 0 0 1-1.468-1.175 1.3 1.3 0 0 1 1.3-1.462l4.035-.012a1.325 1.325 0 0 1 1.396 1.154 1.3 1.3 0 0 1-1.3 1.474"/><path fill="#fef2dd" d="m69.378 38.215-14.513.026V20.867H69.38Z"/><path fill="#010101" d="m64.212 28.887-4.14.012a1.3 1.3 0 0 1-1.331-1.33 1.325 1.325 0 0 1 1.343-1.3l4.037-.007a1.325 1.325 0 0 1 1.366 1.155 1.282 1.282 0 0 1-1.275 1.468"/><path fill="#fef2dd" d="m52.228 38.219-14.513.021V20.869h14.51Z"/><path d="m47.002 28.899-3.972.011a1.35 1.35 0 0 1-1.428-1.178 1.288 1.288 0 0 1 1.268-1.456h4.2a1.28 1.28 0 0 1 1.274 1.287 1.3 1.3 0 0 1-1.34 1.333"/><path fill="#c0e8ae" d="m79.977 40.857-3.433-.021-55.974-.005v3.694l56.674-.014 2.787-.09Z"/><path fill="#fef2dd" d="m35.082 32.015-14.52.013V20.865h14.511Z"/><path fill="#010100" d="m29.961 28.885-4.143.016a1.32 1.32 0 1 1 0-2.638l4.037.008a1.32 1.32 0 0 1 1.333 1.167 1.28 1.28 0 0 1-1.228 1.447"/><path fill="#fef2dd" d="m84.308 20.816-11.936-.024c-.208 0-.32.077-.358.185l-.005 17.254 8.953.019a1.71 1.71 0 0 1 1.679 1.689v5.463a1.76 1.76 0 0 1-1.844 1.709h-8.789v36.784l12.679-.011 1.54-.043a1.594 1.594 0 0 0 1.079-1.6V20.865Z"/><path fill="#010000" d="M81.254 28.904h-3.966a1.323 1.323 0 1 1 0-2.642l4.035.012a1.316 1.316 0 1 1-.07 2.63"/></g></svg>