<svg xmlns="http://www.w3.org/2000/svg" width="92.058" height="86" viewBox="0 0 92.058 86"><defs><clipPath id="a"><path fill="none" d="M0 0h92.058v86H0z"/></clipPath></defs><g clip-path="url(#a)"><path d="M84.772 85.2a1.6 1.6 0 0 1-1.6.779 1.66 1.66 0 0 1-1.293-1l-6.61-12.232a5.3 5.3 0 0 1-.662-2.828l.026-68.154c0-.756.595-1.7 1.258-1.7L90.426 0a1.47 1.47 0 0 1 1.633 1.679v70.078Z"/><path fill="#fea621" d="m88.968 69.701-4.025.038-.007-47.914 4.031-.027Zm-7.124.002-3.995.031V21.795h3.993Z"/><path fill="#fe3131" d="m88.966 11.822-11.114.018V3.113l11.1.008Z"/><path fill="#cbcbcb" d="m88.965 18.709-11.1.009-.005-3.792h11.112Z"/><path fill="#fe9d5c" d="m87.889 72.843-4.482 8.266-4.5-8.272Z"/><path d="M0 75.35V29.324a2.11 2.11 0 0 1 1.977-1.092l7.734.013-.005-26.77A1.365 1.365 0 0 1 11.179.017L58.938.011A1.46 1.46 0 0 1 60.6 1.658l-.016 26.583 8.078.02a1.674 1.674 0 0 1 1.635 1.3v45.04c.094 1.113-.611 1.662-1.633 1.662h-22.78l-29.117 9.709a1.775 1.775 0 0 1-2.2-1.649v-8.071L1.11 76.231c-.541 0-.851-.6-1.11-.881"/><path fill="#7cd53e" d="m67.22 31.486.005 41.707-22.126-.011-27.29 9.088-.007-7.461a1.64 1.64 0 0 0-1.293-1.614l-13.427-.006v-41.7h6.626v33.55c.163.8.587 1.507 1.473 1.507H59.11a1.533 1.533 0 0 0 1.481-1.475V31.483Z"/><path fill="#fee3ae" d="m57.513 63.459-44.711.009V3.094h44.71Z"/><path d="M51.752 34.84H18.614a1.57 1.57 0 0 1-1.479-1.5 1.52 1.52 0 0 1 1.477-1.6h33.073a1.516 1.516 0 0 1 1.49 1.456 1.56 1.56 0 0 1-1.427 1.642m.095 7.674-33.3-.011a1.476 1.476 0 0 1-1.4-1.556 1.56 1.56 0 0 1 1.6-1.524h32.815a1.567 1.567 0 0 1 1.609 1.366 1.516 1.516 0 0 1-1.324 1.725m-.056-15.388-33.207.01a1.534 1.534 0 0 1-1.445-1.508 1.52 1.52 0 0 1 1.583-1.576h32.86a1.507 1.507 0 0 1 1.6 1.439 1.524 1.524 0 0 1-1.392 1.635m.031-7.687H18.724a1.54 1.54 0 0 1-1.579-1.4 1.5 1.5 0 0 1 1.39-1.673H51.76a1.52 1.52 0 0 1 1.418 1.383 1.57 1.57 0 0 1-1.361 1.694m.027 30.772-33.306-.011a1.494 1.494 0 0 1-1.4-1.544 1.55 1.55 0 0 1 1.586-1.534l33.018.01a1.549 1.549 0 0 1 .1 3.08m-.018-38.499h-33.1a1.539 1.539 0 1 1 0-3.077l33.028.01a1.536 1.536 0 0 1 1.42 1.366 1.56 1.56 0 0 1-1.352 1.7m.006 46.179-32.925.031a1.57 1.57 0 0 1-1.758-1.408 1.536 1.536 0 0 1 1.577-1.672l33.028.011a1.53 1.53 0 0 1 1.431 1.382 1.49 1.49 0 0 1-1.353 1.655"/></g></svg>