<svg xmlns="http://www.w3.org/2000/svg" width="72.385" height="62.221" viewBox="0 0 72.385 62.221"><defs><clipPath id="a"><path fill="none" d="M0 0h72.385v62.221H0z"/></clipPath></defs><g clip-path="url(#a)"><path d="M59.163 62.175c-.738 0-1.072-.808-1.094-1.313-.025-.573.318-1.429 1.039-1.437l7.71-.083a2.73 2.73 0 0 0 2.687-2.687l.08-7.709c.007-.677.8-1.018 1.306-1.04.559-.024 1.434.32 1.438 1.039l.057 8.321a5.85 5.85 0 0 1-4.956 4.955ZM69.605 13.33l-.1-7.766a2.745 2.745 0 0 0-2.665-2.688L59.109 2.8c-.676-.006-1.018-.8-1.04-1.305-.024-.559.32-1.434 1.039-1.439L67.429 0a5.85 5.85 0 0 1 4.956 4.956l-.052 8.321c0 .671-.809 1.021-1.308 1.039s-1.41-.253-1.419-.987M37.57 7.501a1.51 1.51 0 0 1-1.574 1.403 1.419 1.419 0 1 1 .255-2.826c.655.067 1.415.745 1.323 1.422"/><path fill="#7fb3fe" d="m34.682 7.442.291.122a1.152 1.152 0 0 0 2.291.046l.306-.109 3.323.005.3.109a1.2 1.2 0 0 0 1.146 1.026l18.392.016c2.082.336 2.967 1.5 3.2 3.529l-.027 31.825a.49.49 0 0 1-.575.142l-7.704-13.328a5.533 5.533 0 0 0-9.711-.246l-5.825 10.1-.284.256-22.934.053c-5.149.878-5.072 7.593.393 8.216l17.59-.008.354.171a8.1 8.1 0 0 0 .293 3.064q.616 1 .1 1.436H12.023c-2.116-.233-3.258-1.128-3.572-3.3l-.009-38.388c.243-2.313 1.286-3.294 3.577-3.548h17.868a1.16 1.16 0 0 0 1.151-1.065l.3-.136Z"/><path d="m58.432 16.816-14.6.01a1.415 1.415 0 0 1-1.449-1.34 1.392 1.392 0 0 1 1.446-1.487H58.37a1.39 1.39 0 0 1 1.453 1.357 1.374 1.374 0 0 1-1.391 1.461m.012 6.626-7.273.013a1.416 1.416 0 1 1-.006-2.831h7.214a1.4 1.4 0 0 1 1.446 1.367 1.38 1.38 0 0 1-1.381 1.448M37.887 33.454a3.38 3.38 0 0 1-3.4 3.347H16.403a3.385 3.385 0 0 1-3.425-3.293l-.011-17.375a3.364 3.364 0 0 1 3.441-3.306h18.074a3.39 3.39 0 0 1 3.423 3.444Z"/><path fill="#fecfc5" d="m34.502 33.973-18.151.014a4 4 0 0 1 2.685-3.207l2.792-1.016a3.04 3.04 0 0 0 2.061-2.377 7 7 0 0 0 3.079 0 3.03 3.03 0 0 0 1.97 2.346l3.1 1.13a3.94 3.94 0 0 1 2.458 3.109m-5.559-12.676a3.48 3.48 0 0 1-3.567 3.431 3.534 3.534 0 0 1-3.46-3.645l.006-1.994a3.48 3.48 0 0 1 3.594-3.429 3.523 3.523 0 0 1 3.433 3.574Z"/><path fill="#e9efef" d="m33.162 28.268-3.326-1.266a1.9 1.9 0 0 1-.165-1.1 6.84 6.84 0 0 0 2.124-5.678 7.43 7.43 0 0 0-1.093-4.552l3.8-.015a.606.606 0 0 1 .577.623l-.009 13.156a6.8 6.8 0 0 0-1.907-1.168m-12.158-1.255-3.335 1.271a6.8 6.8 0 0 0-1.876 1.154l-.011-13.295a.6.6 0 0 1 .605-.489l3.756.026c-1.022 1.415-1.035 2.934-1.085 4.55a6.92 6.92 0 0 0 2.12 5.677 1.67 1.67 0 0 1-.174 1.1"/><path d="M31.333 7.435a1.465 1.465 0 0 1-1.515 1.486H12.026a3.22 3.22 0 0 0-3.3 3.269v38.123a3.233 3.233 0 0 0 3.3 3.275h23.672a5.9 5.9 0 0 1-.674-4.106l-17.631.01a4.44 4.44 0 0 1-4.564-4.328 4.38 4.38 0 0 1 4.429-4.479h22.5l5.913-10.251a5.74 5.74 0 0 1 5.127-2.9 5.88 5.88 0 0 1 5.07 3.151l7.758 13.416.026-31.9a3.25 3.25 0 0 0-3.308-3.277l-17.93.008a1.5 1.5 0 0 1-1.522-1.419c-.058-.476.463-1.382 1.118-1.384l19.187-.042a6.314 6.314 0 0 1 5.376 6.019l-.044 38.587a5.93 5.93 0 0 1-4.963 5.724h-50.62a6.22 6.22 0 0 1-5.106-6l-.044-38.305a6.3 6.3 0 0 1 5.376-6.016l19.042.03c.649 0 1.14.816 1.118 1.321"/><path fill="#e9efef" d="m36.324 46.644-19.194-.015a1.53 1.53 0 0 1-1.471-1.589 1.57 1.57 0 0 1 1.6-1.525h20.836Z"/><path fill="#fe7d95" d="m60.842 53.571-20.119.014a2.92 2.92 0 0 1-2.482-1.328 2.84 2.84 0 0 1-.2-2.924l10-17.364a2.99 2.99 0 0 1 2.5-1.6 2.93 2.93 0 0 1 2.726 1.488l9.87 17.09a2.94 2.94 0 0 1 .124 3.055 2.86 2.86 0 0 1-2.418 1.57"/><path d="M52.105 43.883a1.417 1.417 0 1 1-2.831-.048v-8.059a1.423 1.423 0 0 1 1.4-1.525 1.4 1.4 0 0 1 1.429 1.42Z"/><path fill="#010001" d="M50.308 47.86a1.386 1.386 0 0 1 1.736.98 1.43 1.43 0 0 1-.9 1.7 1.415 1.415 0 0 1-1.749-.786 1.385 1.385 0 0 1 .914-1.894"/><path d="M0 13.443v-8.9C.568 2.393 2.392.098 4.813.087l8.449-.041c.717 0 1.063.929 1.04 1.444s-.364 1.3-1.04 1.31l-7.738.075A2.76 2.76 0 0 0 2.86 5.539l-.076 7.739c-.007.709-.853 1.05-1.415 1.041A1.62 1.62 0 0 1 0 13.443m0 44.242v-8.908a1.59 1.59 0 0 1 1.507-.873c.492.028 1.274.377 1.28 1.038l.073 7.735a2.746 2.746 0 0 0 2.688 2.664l7.715.084c.72.007 1.062.859 1.039 1.442-.018.455-.368 1.313-1.039 1.311l-8.318-.03A5.78 5.78 0 0 1 0 57.685"/></g></svg>