<svg xmlns="http://www.w3.org/2000/svg" width="85.055" height="86" viewBox="0 0 85.055 86"><defs><clipPath id="a"><path fill="none" d="M0 0h85.055v86H0z"/></clipPath></defs><g clip-path="url(#a)"><path d="M54.562 41.408a22.9 22.9 0 0 0-14.56-3.315 22.668 22.668 0 0 0-17.171 33.684 1.525 1.525 0 0 1-.265 2.074 1.464 1.464 0 0 1-2.021-.3 25.508 25.508 0 0 1 35.513-34.567 1.58 1.58 0 0 1 1.183-1.9c.871-.154 1.487.47 1.728 1.344l1.084 3.932a1.74 1.74 0 0 1-.262 1.372 1.8 1.8 0 0 1-1.2.485l-4.774.02c-.708 0-1.109-1.031-.99-1.514a1.76 1.76 0 0 1 1.739-1.311m-28.59 35.701a20 20 0 0 1 5.332-.127 1.45 1.45 0 0 1 .91 1.645 1.56 1.56 0 0 1-1.736 1.092 22.55 22.55 0 0 0 34.542-16.737 22.23 22.23 0 0 0-2.689-13.353c-.4-.7-.676-1.5-.009-2.135.469-.449 1.619-.765 2.1.022a25.4 25.4 0 0 1-2.687 29.849l-1.158 1.259-1.277 1.168a24.5 24.5 0 0 1-14.38 6.205h-4.773a25.54 25.54 0 0 1-11.253-3.813 1.4 1.4 0 0 1-.823 1.866 1.343 1.343 0 0 1-1.851-.929L25.001 78.8a1.33 1.33 0 0 1 .979-1.684"/><path d="m48.166 61.295-11.16-.03-.887 1.487a9.65 9.65 0 0 1 5.173 6.889c.172.79-.175 2.161-1.233 2.162l-16.079.031c-1.041 0-1.555-1.175-1.393-2.045a9.65 9.65 0 0 1 5.179-7.035 5.76 5.76 0 0 1-1.3-3.991 5.62 5.62 0 0 1 2.994-4.479 5.4 5.4 0 0 1 5.672.435 9.9 9.9 0 0 1 3.217-2.537 5.8 5.8 0 0 1-1.3-3.993 5.54 5.54 0 0 1 4.14-4.9 5.488 5.488 0 0 1 5.506 8.891 9 9 0 0 1 3.2 2.55 5.43 5.43 0 0 1 5.708-.432 5.56 5.56 0 0 1 2.993 4.649 6.03 6.03 0 0 1-1.3 3.815 9.65 9.65 0 0 1 5.159 6.88c.169.793-.17 2.161-1.232 2.163l-16.08.036a1.62 1.62 0 0 1-1.407-1.885 9.6 9.6 0 0 1 5.206-7.2 3.35 3.35 0 0 1-.776-1.461"/><path fill="#89c8fd" d="m38.142 68.924-12.434.04a6.64 6.64 0 0 1 6.014-4.349 6.55 6.55 0 0 1 6.42 4.308m21.161.001-12.436.039a6.66 6.66 0 0 1 6.015-4.348 6.54 6.54 0 0 1 6.421 4.309M47.718 58.383H37.364l-.393-1.314a6.62 6.62 0 0 1 5.476-3.036 6.56 6.56 0 0 1 5.624 3.045Z"/><path fill="#f5dbcc" d="M31.085 56.676a2.648 2.648 0 1 1-1.595 3.5 2.635 2.635 0 0 1 1.595-3.5m21.161.001a2.648 2.648 0 1 1-1.594 3.5 2.63 2.63 0 0 1 1.594-3.5m-10.58-10.578a2.645 2.645 0 1 1-1.595 3.493 2.633 2.633 0 0 1 1.595-3.493"/><path d="M17.858 38.472a19.2 19.2 0 0 1-10.8-4.321c-.384-.31-1.113-.055-1.5.016l-3.391.625A1.82 1.82 0 0 1 .5 34.508a1.46 1.46 0 0 1-.346-1.749c.717-1.513 1.531-2.866 2.112-4.47a19.258 19.258 0 1 1 15.592 10.183"/><path fill="#6cf4c1" d="M28.047 5.371c7.315 5.394 8.925 17.136 3.368 24.362a.8.8 0 0 1-.291.207 2 2 0 0 1-.389.134c-.331.288-.365.177-.215-.219l-.245-.359a5 5 0 0 0-.051-2.111 3.82 3.82 0 0 0 1.251-3.728 3.58 3.58 0 0 0 1.357-3.408 5.9 5.9 0 0 1-.89-2.449 2.906 2.906 0 0 0-2.448-3.736l-5.121-.041-.425-.193q-.111-1.981-.074-4a5.9 5.9 0 0 0-5.115-5.858c-.848-.121-1.614-.148-1.828.838l-.056 4.625a4.2 4.2 0 0 1-1.193 2.472c-2.5 2.948-4.6 3-8.2 2.809-.766.1-1.045.2-1.162.967l-.009 13.54a1.07 1.07 0 0 0 1.04.993l4.783.032a8.6 8.6 0 0 0 7.192 1.968l3.945-.535a26 26 0 0 0 5.317-.28 1.46 1.46 0 0 1 1.416-.455c.107.132.143.283.023.392a87 87 0 0 1-2.222 1.958A16.41 16.41 0 0 1 8.211 31.41a1.42 1.42 0 0 0-1.237-.357l-3.1.536 1.237-2.536a1.52 1.52 0 0 0 .05-1.35A16.437 16.437 0 0 1 28.047 5.371"/><path fill="#00e398" d="M27.809 33.291c.549-.832 1.558-1.428 2.2-2.35-.31-.319-.273-.408.172-.392a.9.9 0 0 1 .556-.475 17.807 17.807 0 0 0-2.4-24.188c-.2-.172-.332-.285-.287-.514a16.417 16.417 0 0 1-.239 27.92"/><path d="M30.521 29.854q.109.345-.341.694a1 1 0 0 1-.172.393c-.8.414-1.228 1.032-2.565 1.044l-4.143.037c-4.082.465-7.651 1.723-11.288-1.477l-4.529.013a1.44 1.44 0 0 1-1.514-1.4V15.671c0-2.269 3.96-.82 6.056-1.463 1.191-.365 4.479-2.853 4.5-4.788l.048-4.5a1.35 1.35 0 0 1 1.372-1.354 6.23 6.23 0 0 1 6.206 5.478 33 33 0 0 1 .017 4.623l5.335.043a3.32 3.32 0 0 1 2.498 1.635c.778 1 .112 2.125.337 2.991.254.982 1.12 1.693.939 2.859a4.63 4.63 0 0 1-1.5 2.556 3.54 3.54 0 0 1-1.262 3.72 3.5 3.5 0 0 1 0 2.378"/><path fill="#64ecba" d="M30.736 30.073c-.143.187-.266.411-.556.475.017-.226.268-.505.341-.694Z"/><path fill="#f5dbcc" d="M21.211 23.346a3.63 3.63 0 0 0 .356 3.393 3.46 3.46 0 0 0-.525 2.809c-2.657.44-5.226.761-7.137-1.049l.015-12.07a22 22 0 0 0 3.346-2.629c2.164-2.166 2.184-4.208 2.067-7.148a3.42 3.42 0 0 1 2.114 3.27l-.029 2.96c-.012 1.214-2.146 1.99-.934 3.646 1.123 1.538-.181 3.315-1.942 4.27a1.417 1.417 0 0 0-.617 2.029 1.444 1.444 0 0 0 2.207.245.96.96 0 0 1 .482-.253c.158-.009.339.208.6.523"/><path fill="#d0d0d5" d="m11.139 27.754-2.4.026V17.191l2.4-.038Z"/><path fill="#f1d3c4" d="M29.943 21.443h-6.495a.55.55 0 0 1-.538-.5.524.524 0 0 1 .543-.592l6.4-.007a.56.56 0 0 1 .594.431.546.546 0 0 1-.51.668"/><path fill="#e3cbbd" d="m28.819 25.323-4.87-.061a.573.573 0 0 1 .4-1.036h4.1a.6.6 0 0 1 .62.364.78.78 0 0 1-.248.735"/><path fill="#f0cabb" d="M23.767 16.967a.25.25 0 0 1 .158-.186 53 53 0 0 1 5.381-.048.32.32 0 0 1 .269.164.463.463 0 0 1-.425.661l-4.836.024a.543.543 0 0 1-.546-.616"/><path fill="#f3d9cb" d="M29.575 16.9a.7.7 0 0 1-.392.127l-5.414-.058a.5.5 0 0 1 .545-.5h4.863a.48.48 0 0 1 .4.437"/><path fill="#efcabb" d="m23.772 28.598.435-.238 3.335.075.257-.143c.252.093.174.592.051.713a.84.84 0 0 1-.576.227l-2.961-.012a.522.522 0 0 1-.541-.622"/><path fill="#f4dacb" d="M27.8 28.292c.007.07.067.29-.008.37l-4.019-.064a.5.5 0 0 1 .551-.487c1.174.082 2.388-.218 3.476.181"/><path fill="#e2bfb1" d="m28.82 25.322-4.87-.061Z"/><path d="M79.569 34.182c-.441-.082-1.188-.343-1.568-.032a19.284 19.284 0 1 1 4.788-5.857c.587 1.6 1.395 2.955 2.115 4.468a1.46 1.46 0 0 1-.254 1.66 1.8 1.8 0 0 1-1.757.374Z"/><path fill="#fee077" d="M57.42 33.399a17.08 17.08 0 0 1-7.1-14.522.75.75 0 0 1 .125-.318 1.7 1.7 0 0 1 .246-.311q.108-.212.169.027l.376.163a6.2 6.2 0 0 0 1.029 2.056c-.509 2 .1 4.108 2.383 4.453l5.112.038.472.2q.07 2.249.069 4.521a5.94 5.94 0 0 0 4.652 5.245c1.074.257 2.059.349 2.305-.917l.044-4.528a4.42 4.42 0 0 1 1.378-2.622c2.54-2.793 4.427-2.749 7.959-2.587.843-.1 1.085-.251 1.21-1.064V9.817c-.111-.617-.253-.891-.918-1.018l-4.889-.052a8.54 8.54 0 0 0-6.92-1.992 34.3 34.3 0 0 1-7.938.563 2.25 2.25 0 0 1-1.608-.093c-.11-.094-.207-.244-.14-.31.536-.536 1.1-1.059 1.672-1.553a16.4 16.4 0 0 1 22.97 22.006 1.61 1.61 0 0 0-.18 1.575l1.283 2.647-3.1-.532a1.43 1.43 0 0 0-1.236.35 16.4 16.4 0 0 1-19.429 1.993"/><path fill="#fecf63" d="m57.109 5.361-1.532 1.863-.092.407a3.06 3.06 0 0 0-1.719 2.778l-.338.237-.219.075a30.6 30.6 0 0 0-2.514 7.528A18.33 18.33 0 0 0 57.423 33.4a16.48 16.48 0 0 1-8.079-13.862 16.27 16.27 0 0 1 7.765-14.177"/><path d="M50.86 18.276a4.2 4.2 0 0 1 1.06-3.16 4.43 4.43 0 0 1 1.323-3.725q-.246-.535.181-.744a3.38 3.38 0 0 1 2.151-3.422c1.573-.535 3.407-.035 5.159-.231 4.158-.466 7.707-1.764 11.428 1.447l4.645.007a1.35 1.35 0 0 1 1.381 1.354v13.436c0 2.413-3.914.9-6.1 1.565-1.124.343-4.43 2.864-4.448 4.712l-.042 4.461a1.42 1.42 0 0 1-1.486 1.459 6.327 6.327 0 0 1-6.191-6.766 33 33 0 0 1 .083-3.335l-5.142-.032a3.3 3.3 0 0 1-2.658-1.582 4 4 0 0 1-.261-3.148 4.86 4.86 0 0 1-1.083-2.3"/><path fill="#fddf76" d="m53.426 10.646.225.956c-1.53.787-1.2 2.416-1.4 3.617-.485.931-1.535 1.763-1.387 3.057l-.171-.024a17.8 17.8 0 0 1 2.52-8.191Z"/><path fill="#f5dbcc" d="M62.736 26.117c.009-1.162 2.112-2.047.991-3.56-1.193-1.61.11-3.414 1.845-4.323a1.41 1.41 0 1 0-1.488-2.345c-.17.137-.455.313-.622.266-1.066-.3.489-2.013-.869-3.847a3.54 3.54 0 0 0 .515-2.833c2.552-.482 5.2-.788 7.142 1.009v12.072c-2.311 1.5-5.322 3.9-5.373 6.616l-.058 3.155a3.35 3.35 0 0 1-2.106-3.161Z"/><path fill="#cfcfd4" d="m75.428 21.854-2.4.023-.009-10.642 2.4-.009Z"/><path fill="#f2d1c2" d="M60.126 21.555c.235 0 .347.4.284.565-.044.119-.162.407-.386.405l-5.18-.025a.67.67 0 0 1-.34-.524.425.425 0 0 1 .391-.431 30.4 30.4 0 0 1 5.231.009"/><path fill="#e3cbbd" d="M56.598 9.918a15 15 0 0 1 3.664.036c.187.04.228.551.077.692a.75.75 0 0 1-.528.246l-3.124-.028a.52.52 0 0 1-.467-.495c-.021-.2.051-.454.378-.451"/><path fill="#efcabb" d="M61.073 18.532c-.248-.074-.407-.138-.2-.215l-6.528.126-.6-.218a.42.42 0 0 1 .04-.437.56.56 0 0 1 .39-.217l6.4-.017a.67.67 0 0 1 .635.3.69.69 0 0 1-.133.681"/><path fill="#f4dacb" d="m61.073 18.531-6.752.14a.576.576 0 0 1-.579-.448l7.166-.128c.212 0 .243.238.166.435"/><path fill="#efcabc" d="M60.396 14.305a.26.26 0 0 1-.161.169c-.295.132-4.264.071-4.923.053a.3.3 0 0 1-.186-.128.44.44 0 0 1 0-.465.5.5 0 0 1 .411-.216l4.346-.012a.49.49 0 0 1 .515.6"/><path fill="#f0d6c8" d="M60.396 14.306a.49.49 0 0 1-.529.467l-4.311-.006c-.246 0-.359-.237-.43-.368a.52.52 0 0 1 .4-.187Z"/><path fill="#e4ccbe" d="m60.025 22.526-5.18-.025Z"/><path fill="#dcb9ac" d="m60.127 21.555-5.231-.009c-.036-.115.092-.178.283-.178h4.534a.53.53 0 0 1 .413.186"/><path fill="#e6c1b3" d="m60.262 9.951-3.664-.036c-.007-.1.12-.173.311-.172h2.974a.44.44 0 0 1 .38.2"/></g></svg>